<svg width="36" height="36" viewBox="0 0 36 36" fill="none" xmlns="http://www.w3.org/2000/svg">
<g id="Control Plane icon reversed">
<rect id="Rectangle 1228" width="36" height="36" rx="8" fill="#F4F4F4"/>
<g id="CP">
<path d="M13.2997 24.24C9.21969 24.24 6.17969 21.06 6.17969 17.04V17C6.17969 13.02 9.15969 9.76001 13.3997 9.76001C15.9797 9.76001 17.5397 10.66 18.8797 11.94L17.2997 13.76C16.1797 12.72 14.9797 12.02 13.3797 12.02C10.7197 12.02 8.75969 14.22 8.75969 16.96V17C8.75969 19.74 10.6997 21.96 13.3797 21.96C15.0997 21.96 16.1997 21.28 17.3997 20.16L18.9797 21.76C17.5197 23.28 15.9197 24.24 13.2997 24.24Z" fill="#318DDE"/>
<path d="M20.5653 24V10H26.0853C29.3653 10 31.4053 11.86 31.4053 14.68V14.72C31.4053 17.86 28.8853 19.5 25.8053 19.5H23.0253V24H20.5653ZM23.0253 17.28H25.8853C27.7453 17.28 28.9053 16.24 28.9053 14.78V14.74C28.9053 13.1 27.7253 12.24 25.8853 12.24H23.0253V17.28Z" fill="#318DDE"/>
</g>
</g>
</svg>
