<svg width="24" height="24" viewBox="0 0 24 24" fill="none" xmlns="http://www.w3.org/2000/svg">
<path d="M13.9434 1C14.2684 1.0001 14.5817 1.12634 14.8193 1.35254L21.0918 7.32324C21.3518 7.57077 21.5 7.91755 21.5 8.28027V20.3379C21.5 21.8413 20.2306 22.9998 18.7402 23H5.25977C3.76939 22.9998 2.50001 21.8413 2.5 20.3379V3.66211C2.50001 2.15865 3.76939 1.00019 5.25977 1H13.9434ZM5.25977 2.04688C4.26896 2.04706 3.52736 2.80367 3.52734 3.66211V20.3379C3.52736 21.1963 4.26896 21.9529 5.25977 21.9531H18.7402C19.731 21.9529 20.4726 21.1963 20.4727 20.3379V8.38965H14.7578C14.3326 8.38953 13.9875 8.03798 13.9873 7.60449V2.05078C13.9729 2.04821 13.9582 2.0469 13.9434 2.04688H5.25977ZM15.9316 17.125C16.2418 17.125 16.4932 17.3649 16.4932 17.6602C16.493 17.9553 16.2417 18.1943 15.9316 18.1943H5.82227C5.51217 18.1943 5.25992 17.9553 5.25977 17.6602C5.25977 17.3649 5.51207 17.125 5.82227 17.125H15.9316ZM15.9316 13.8506C16.2418 13.8506 16.4932 14.0905 16.4932 14.3857C16.4929 14.6808 16.2416 14.9199 15.9316 14.9199H5.82227C5.51224 14.9199 5.26004 14.6808 5.25977 14.3857C5.25977 14.0905 5.51207 13.8506 5.82227 13.8506H15.9316ZM10.3154 10.71C10.6254 10.7102 10.8769 10.9491 10.877 11.2441C10.877 11.5393 10.6254 11.7791 10.3154 11.7793H5.82227C5.51207 11.7793 5.25977 11.5394 5.25977 11.2441C5.25986 10.9489 5.51213 10.71 5.82227 10.71H10.3154Z" fill="white"/>
</svg>
