<svg width="24" height="24" viewBox="0 0 24 24" fill="none" xmlns="http://www.w3.org/2000/svg">
<g clip-path="url(#clip0_11345_12461)">
<path d="M3.81174 16.3783C3.33294 16.4051 2.96343 16.7167 2.90584 17.1928C2.86552 17.5261 2.83325 17.9944 2.83325 18.6393C2.83325 19.2842 2.86552 19.7525 2.90584 20.0858C2.96343 20.5619 3.33294 20.8736 3.81174 20.9004C4.12119 20.9177 4.54699 20.931 5.12492 20.931C5.70285 20.931 6.12865 20.9177 6.43808 20.9004C6.91688 20.8736 7.28642 20.5619 7.344 20.0858C7.38433 19.7525 7.41658 19.2842 7.41658 18.6393C7.41658 17.9944 7.38433 17.5261 7.344 17.1928C7.28642 16.7167 6.91688 16.4051 6.43808 16.3783C6.12865 16.3609 5.70284 16.3477 5.12492 16.3477C4.54699 16.3477 4.12119 16.3609 3.81174 16.3783Z" fill="#0E4F9E"/>
<path d="M17.5618 3.25328C17.083 3.28008 16.7134 3.59172 16.6558 4.0678C16.6155 4.40114 16.5833 4.86937 16.5833 5.51432C16.5833 6.15927 16.6155 6.6275 16.6558 6.96084C16.7134 7.43692 17.083 7.74859 17.5618 7.77538C17.8712 7.79267 18.297 7.806 18.8749 7.806C19.4528 7.806 19.8786 7.79267 20.1881 7.77538C20.6669 7.74859 21.0364 7.43692 21.094 6.96084C21.1343 6.6275 21.1666 6.15927 21.1666 5.51432C21.1666 4.86937 21.1343 4.40113 21.094 4.0678C21.0364 3.59172 20.6669 3.28008 20.1881 3.25328C19.8786 3.23596 19.4528 3.22266 18.8749 3.22266C18.297 3.22266 17.8712 3.23596 17.5618 3.25328Z" fill="white"/>
<path d="M17.4575 13.6967C16.5965 13.6649 16.2171 12.8861 16.719 12.1859C16.854 11.9976 17.0085 11.7882 17.1852 11.5568C17.5281 11.1075 17.8156 10.7827 18.0476 10.5489C18.4728 10.1205 19.0794 10.1204 19.5045 10.5488C19.7366 10.7827 20.024 11.1075 20.367 11.5568C20.5435 11.7881 20.6979 11.9974 20.8328 12.1856C21.3347 12.886 20.9553 13.6649 20.0942 13.6967C19.735 13.71 19.3003 13.7186 18.776 13.7186C18.2515 13.7186 17.8167 13.71 17.4575 13.6967Z" fill="#0E4F9E"/>
<path d="M3.81174 16.3783C3.33294 16.4051 2.96343 16.7167 2.90584 17.1928C2.86552 17.5261 2.83325 17.9944 2.83325 18.6393C2.83325 19.2842 2.86552 19.7525 2.90584 20.0858C2.96343 20.5619 3.33294 20.8736 3.81174 20.9004C4.12119 20.9177 4.54699 20.931 5.12492 20.931C5.70285 20.931 6.12865 20.9177 6.43808 20.9004C6.91688 20.8736 7.28642 20.5619 7.344 20.0858C7.38433 19.7525 7.41658 19.2842 7.41658 18.6393C7.41658 17.9944 7.38433 17.5261 7.344 17.1928C7.28642 16.7167 6.91688 16.4051 6.43808 16.3783C6.12865 16.3609 5.70284 16.3477 5.12492 16.3477C4.54699 16.3477 4.12119 16.3609 3.81174 16.3783Z" fill="white"/>
<path d="M6.91626 18.6396C6.91626 18.011 6.88539 17.5628 6.8479 17.2529C6.82249 17.0428 6.67347 16.8927 6.4104 16.8779C6.11206 16.8612 5.69559 16.8477 5.12524 16.8477C4.55496 16.8477 4.13847 16.8612 3.84009 16.8779C3.57685 16.8927 3.42802 17.0427 3.40259 17.2529C3.3651 17.5629 3.33325 18.011 3.33325 18.6396C3.33326 19.2679 3.36512 19.7155 3.40259 20.0254C3.42802 20.2356 3.57689 20.3866 3.84009 20.4014C4.13854 20.418 4.55507 20.4307 5.12524 20.4307C5.69554 20.4307 6.11198 20.418 6.4104 20.4014C6.67346 20.3866 6.82248 20.2356 6.8479 20.0254C6.88537 19.7155 6.91625 19.2679 6.91626 18.6396ZM7.91626 18.6396C7.91625 19.3004 7.88323 19.7888 7.84009 20.1455C7.75035 20.8874 7.16042 21.3605 6.46606 21.3994C6.14572 21.4173 5.71047 21.4307 5.12524 21.4307C4.53985 21.4307 4.10386 21.4173 3.78345 21.3994C3.08921 21.3604 2.49915 20.8873 2.40942 20.1455C2.3663 19.7889 2.33326 19.3004 2.33325 18.6396C2.33325 17.9785 2.36628 17.4895 2.40942 17.1328C2.49916 16.391 3.08923 15.9179 3.78345 15.8789C4.10393 15.861 4.5399 15.8477 5.12524 15.8477C5.71042 15.8477 6.14564 15.861 6.46606 15.8789C7.16039 15.9178 7.75035 16.3909 7.84009 17.1328C7.88325 17.4896 7.91626 17.9785 7.91626 18.6396Z" fill="white"/>
<path d="M20.6663 5.51465C20.6663 4.88599 20.6354 4.43784 20.5979 4.12793C20.5725 3.9178 20.4235 3.76775 20.1604 3.75293C19.862 3.73623 19.4456 3.72266 18.8752 3.72266C18.305 3.72266 17.8885 3.73624 17.5901 3.75293C17.3269 3.76766 17.178 3.91773 17.1526 4.12793C17.1151 4.43785 17.0833 4.88594 17.0833 5.51465C17.0833 6.14298 17.1151 6.59054 17.1526 6.90039C17.178 7.11062 17.3269 7.26164 17.5901 7.27637C17.8886 7.29303 18.3051 7.30566 18.8752 7.30566C19.4455 7.30566 19.862 7.29304 20.1604 7.27637C20.4235 7.26156 20.5725 7.11055 20.5979 6.90039C20.6354 6.59054 20.6662 6.14292 20.6663 5.51465ZM21.6663 5.51465C21.6662 6.17544 21.6332 6.66385 21.5901 7.02051C21.5004 7.76243 20.9104 8.23554 20.2161 8.27441C19.8957 8.29232 19.4605 8.30566 18.8752 8.30566C18.2899 8.30566 17.8539 8.29232 17.5334 8.27441C16.8392 8.23541 16.2491 7.76231 16.1594 7.02051C16.1163 6.66385 16.0833 6.17542 16.0833 5.51465C16.0833 4.85352 16.1163 4.36456 16.1594 4.00781C16.2492 3.26598 16.8393 2.79291 17.5334 2.75391C17.8539 2.73597 18.2899 2.72266 18.8752 2.72266C19.4604 2.72266 19.8956 2.73597 20.2161 2.75391C20.9104 2.79278 21.5003 3.26587 21.5901 4.00781C21.6333 4.36456 21.6663 4.8535 21.6663 5.51465Z" fill="white"/>
<path d="M11.2502 18.377V5.56934C11.2502 4.60295 10.4666 3.81951 9.50024 3.81934H7.71118C6.74469 3.81934 5.96118 4.60283 5.96118 5.56934V13.6982C5.96096 14.1123 5.62526 14.4482 5.21118 14.4482C4.79711 14.4482 4.46141 14.1123 4.46118 13.6982V5.56934C4.46118 3.77441 5.91626 2.31934 7.71118 2.31934H9.50024C11.295 2.31951 12.7502 3.77452 12.7502 5.56934V18.377C12.7502 19.3435 13.5338 20.127 14.5002 20.127H16.2883C17.2548 20.127 18.0383 19.3434 18.0383 18.377V14.0029C18.0383 13.5888 18.3743 13.2531 18.7883 13.2529C19.2025 13.2529 19.5383 13.5887 19.5383 14.0029V18.377C19.5383 20.1719 18.0833 21.627 16.2883 21.627H14.5002C12.7053 21.627 11.2502 20.1719 11.2502 18.377Z" fill="white"/>
<path d="M18.7755 9.47754C19.2494 9.47752 19.6956 9.67625 20.0372 10.0205C20.2953 10.2806 20.6036 10.6306 20.963 11.1016C21.1439 11.3385 21.303 11.5544 21.4425 11.749C21.8251 12.2832 21.9291 12.9454 21.6486 13.5205C21.3674 14.0963 20.7802 14.4218 20.1222 14.4463C19.7526 14.46 19.3078 14.4688 18.7755 14.4688C18.2432 14.4687 17.7993 14.46 17.4298 14.4463C16.7719 14.4219 16.1847 14.097 15.9034 13.5215C15.6226 12.9463 15.7266 12.2832 16.1095 11.749C16.249 11.5544 16.408 11.3386 16.589 11.1016C16.9484 10.6306 17.2567 10.2806 17.5148 10.0205C17.8563 9.67638 18.3017 9.47767 18.7755 9.47754ZM18.7755 10.9775C18.7335 10.9777 18.6633 10.9935 18.5802 11.0771C18.3743 11.2846 18.1076 11.5843 17.7814 12.0117C17.6091 12.2374 17.4586 12.4411 17.3282 12.623C17.2675 12.7079 17.2496 12.772 17.2452 12.8066C17.2411 12.8401 17.248 12.8569 17.2511 12.8633C17.2544 12.8699 17.2632 12.8848 17.2911 12.9014C17.3204 12.9188 17.3813 12.9434 17.4855 12.9473C17.8342 12.9602 18.2594 12.9687 18.7755 12.9688C19.2918 12.9688 19.7177 12.9602 20.0665 12.9473C20.1701 12.9434 20.2304 12.9188 20.2599 12.9014C20.288 12.8846 20.2977 12.8698 20.3009 12.8633C20.3041 12.8568 20.31 12.8395 20.3058 12.8057C20.3014 12.7708 20.2835 12.7068 20.2228 12.6221L19.7706 12.0117C19.4444 11.5842 19.1777 11.2846 18.9718 11.0771C18.8883 10.9931 18.8174 10.9775 18.7755 10.9775Z" fill="white"/>
</g>
<defs>
<clipPath id="clip0_11345_12461">
<rect width="20" height="20" fill="white" transform="translate(2 2)"/>
</clipPath>
</defs>
</svg>
