<!--
  - Copyright (c) 2023-2025. Cloud Software Group, Inc. All Rights Reserved. Confidential & Proprietary
  -->

<svg width="49" height="48" viewBox="0 0 49 48" fill="none" xmlns="http://www.w3.org/2000/svg">
<path d="M15.3882 13.0334C15.3804 13.0662 15.3804 13.1005 15.3882 13.1334V19.4998C15.3858 19.569 15.4015 19.6377 15.4336 19.699C15.4657 19.7604 15.5132 19.8123 15.5715 19.8498C16.7162 20.5949 18.0266 21.047 19.3871 21.1664H20.0536C21.2425 21.1704 22.4165 20.9025 23.486 20.3831C23.5562 20.3466 23.615 20.2916 23.6561 20.224C23.6973 20.1564 23.7191 20.0789 23.7193 19.9998V4.41699C23.7193 4.36084 23.708 4.30526 23.6861 4.25359C23.6641 4.20193 23.6319 4.15523 23.5915 4.11632C23.551 4.0774 23.5031 4.04707 23.4506 4.02713C23.3981 4.0072 23.3422 3.99809 23.2861 4.00033H18.1874C18.0951 3.99941 18.0049 4.02801 17.9299 4.08198C17.855 4.13594 17.7993 4.21244 17.7709 4.30032C17.6209 4.91697 17.0877 6.85024 15.3882 13.0334Z" fill="white"/>
<path d="M26.2018 20.0161C26.2 20.0956 26.2211 20.1739 26.2624 20.2419C26.3037 20.3098 26.3636 20.3645 26.435 20.3994C27.7148 21.0152 29.1351 21.2797 30.5506 21.1661C31.9734 21.0481 33.3406 20.5597 34.5162 19.7495V13.083C34.524 13.0501 34.524 13.0159 34.5162 12.983L32.1169 4.29999C32.0894 4.21479 32.0361 4.14021 31.9645 4.08649C31.8929 4.03277 31.8064 4.00256 31.717 4H26.6183C26.5078 4 26.4019 4.0439 26.3238 4.12203C26.2456 4.20017 26.2018 4.30615 26.2018 4.41665V20.0161Z" fill="white"/>
<path d="M44.9468 12.4497L42.0142 5.66661C41.8454 5.19468 41.5395 4.78392 41.1358 4.48699C40.732 4.19006 40.2489 4.02049 39.7482 4H35.166C35.1039 4.00129 35.043 4.01702 34.9881 4.04595C34.9331 4.07487 34.8857 4.1162 34.8495 4.16666C34.8078 4.21697 34.7786 4.27636 34.7641 4.34005C34.7496 4.40374 34.7503 4.46995 34.7661 4.53332L36.9822 12.583C36.9997 12.6935 36.9997 12.8059 36.9822 12.9164V18.8662C36.9833 18.9494 37.0093 19.0304 37.0568 19.0987C37.1043 19.167 37.1712 19.2195 37.2488 19.2495C37.8473 19.4949 38.4851 19.6304 39.1316 19.6495V40.2488C39.1316 40.3593 39.0878 40.4652 39.0096 40.5434C38.9315 40.6215 38.8256 40.6654 38.7151 40.6654H11.1224C11.0119 40.6654 10.906 40.6215 10.8278 40.5434C10.7497 40.4652 10.7058 40.3593 10.7058 40.2488V19.6495C11.3578 19.6306 12.0011 19.4951 12.6053 19.2495C12.683 19.2195 12.7499 19.167 12.7974 19.0987C12.8449 19.0304 12.8709 18.9494 12.8719 18.8662V12.9164C12.8629 12.8054 12.8629 12.694 12.8719 12.583L15.1213 4.53332C15.1506 4.47663 15.1658 4.41377 15.1658 4.34999C15.1658 4.28621 15.1506 4.22335 15.1213 4.16666C15.0817 4.11583 15.0312 4.0745 14.9735 4.04567C14.9159 4.01684 14.8525 4.00123 14.7881 4H10.156C9.65528 4.02049 9.1721 4.19006 8.76837 4.48699C8.36464 4.78392 8.05876 5.19468 7.88992 5.66661L4.95737 12.4497C4.94325 12.5604 4.94325 12.6724 4.95737 12.783L4.95737 14.2996C4.97018 15.1335 5.17896 15.9527 5.56683 16.691C5.95469 17.4293 6.51077 18.0659 7.19011 18.5495C7.24592 18.5855 7.2919 18.6348 7.3239 18.693C7.3559 18.7512 7.37291 18.8164 7.37339 18.8828V40.6654C7.37325 41.1102 7.46213 41.5506 7.63479 41.9605C7.80745 42.3705 8.06039 42.7417 8.37871 43.0523C8.69704 43.3629 9.0743 43.6067 9.48828 43.7692C9.90226 43.9317 10.3446 44.0097 10.7892 43.9986H39.115C39.5596 44.0097 40.0019 43.9317 40.4159 43.7692C40.8298 43.6067 41.2071 43.3629 41.5254 43.0523C41.8438 42.7417 42.0967 42.3705 42.2694 41.9605C42.442 41.5506 42.5309 41.1102 42.5308 40.6654V18.8828C42.532 18.8184 42.5476 18.755 42.5764 18.6973C42.6052 18.6397 42.6466 18.5892 42.6974 18.5495C43.376 18.064 43.9325 17.4273 44.3229 16.6898C44.7133 15.9522 44.9268 15.134 44.9468 14.2996V12.4497Z" fill="white"/>
</svg>
