<svg width="24" height="24" viewBox="0 0 24 24" fill="none" xmlns="http://www.w3.org/2000/svg">
<path d="M21.0791 3.19727C21.0791 3.05894 20.964 2.93555 20.8081 2.93555H16.2266C16.0707 2.93557 15.9556 3.05896 15.9556 3.19727V7.73096C15.9556 7.86924 16.0707 7.99266 16.2266 7.99268H20.8081C20.964 7.99268 21.0791 7.86925 21.0791 7.73096V3.19727ZM22.3291 7.73096C22.3291 8.57196 21.6419 9.24268 20.8081 9.24268H16.2266C15.3928 9.24266 14.7056 8.57195 14.7056 7.73096V3.19727C14.7056 2.35624 15.3927 1.68557 16.2266 1.68555H20.8081C21.6419 1.68555 22.3291 2.35623 22.3291 3.19727V7.73096Z" fill="white"/>
<path d="M8.04443 16.2686C8.04443 16.1302 7.92935 16.0068 7.77344 16.0068H3.19189C3.036 16.0069 2.9209 16.1302 2.9209 16.2686V20.8022C2.92094 20.9405 3.03603 21.0639 3.19189 21.064H7.77344C7.92933 21.064 8.0444 20.9405 8.04443 20.8022V16.2686ZM9.29443 20.8022C9.2944 21.6433 8.60724 22.314 7.77344 22.314H3.19189C2.35812 22.3139 1.67094 21.6433 1.6709 20.8022V16.2686C1.6709 15.4275 2.3581 14.7569 3.19189 14.7568H7.77344C8.60726 14.7568 9.29443 15.4275 9.29443 16.2686V20.8022Z" fill="white"/>
<path d="M17.894 8.62109C17.894 8.27592 18.1739 7.99609 18.519 7.99609C18.8642 7.99609 19.144 8.27592 19.144 8.62109V15.2607C20.6862 15.5533 21.8525 16.9079 21.8525 18.5352C21.8525 20.3761 20.36 21.8687 18.519 21.8687C16.6781 21.8687 15.1855 20.3761 15.1855 18.5352C15.1856 16.9079 16.3519 15.5533 17.894 15.2607V8.62109Z" fill="white"/>
<path d="M14.8908 8.17769C15.1361 7.9349 15.5318 7.93723 15.7746 8.18257C16.0174 8.42793 16.0155 8.82357 15.7702 9.06636L9.02116 15.7446C8.77579 15.9872 8.38011 15.985 8.13737 15.7397C7.89466 15.4943 7.89692 15.0987 8.14226 14.8559L14.8908 8.17769Z" fill="white"/>
<path d="M3.07861 4.03837C3.07861 4.6616 3.32881 5.2593 3.77416 5.69999C4.21952 6.14068 4.82355 6.38826 5.45337 6.38826C6.0832 6.38826 6.68723 6.14068 7.13258 5.69999C7.57794 5.2593 7.82814 4.6616 7.82814 4.03837C7.82814 3.41514 7.57794 2.81743 7.13258 2.37674C6.68723 1.93605 6.0832 1.68848 5.45337 1.68848C4.82355 1.68848 4.21952 1.93605 3.77416 2.37674C3.32881 2.81743 3.07861 3.41514 3.07861 4.03837Z" fill="white"/>
<path d="M5.45397 6.88281C4.45951 6.88281 3.50578 7.27372 2.80259 7.96955C2.09939 8.66538 1.70435 9.60912 1.70435 10.5932C1.70435 10.6588 1.73068 10.7217 1.77756 10.7681C1.82444 10.8145 1.88802 10.8405 1.95432 10.8405H8.95362C9.01992 10.8405 9.0835 10.8145 9.13038 10.7681C9.17726 10.7217 9.20359 10.6588 9.20359 10.5932C9.20359 9.60912 8.80854 8.66538 8.10535 7.96955C7.40216 7.27372 6.44843 6.88281 5.45397 6.88281Z" fill="white"/>
</svg>
