<svg width="24" height="24" viewBox="0 0 24 24" fill="none" xmlns="http://www.w3.org/2000/svg">
<path d="M21.0451 14.3994C21.0399 14.1693 20.984 14.0269 20.9345 13.9535C20.8893 13.8868 20.8558 13.882 20.8442 13.8811C18.8305 13.7369 16.0375 13.7369 14.0238 13.8811C14.0123 13.882 13.9788 13.8867 13.9336 13.9535C13.884 14.0269 13.8281 14.1692 13.8229 14.3994C13.821 14.4841 13.8201 14.5767 13.8201 14.6776C13.8201 14.7784 13.821 14.8711 13.8229 14.9558C13.8281 15.1861 13.8839 15.3293 13.9336 15.4026C13.9788 15.4693 14.0124 15.4742 14.0238 15.475C16.0375 15.6192 18.8305 15.6192 20.8442 15.475C20.8557 15.4742 20.8893 15.4692 20.9345 15.4026C20.9841 15.3293 21.0399 15.1861 21.0451 14.9558C21.047 14.8711 21.0479 14.7784 21.0479 14.6776C21.0479 14.5767 21.047 14.4841 21.0451 14.3994ZM21.9966 14.9787C21.9807 15.6835 21.6295 16.3962 20.9103 16.4478C18.8523 16.5951 16.0157 16.5951 13.9578 16.4478C13.2385 16.3963 12.8873 15.6835 12.8714 14.9787C12.8693 14.8861 12.8677 14.7858 12.8677 14.6776C12.8677 14.5695 12.8693 14.469 12.8714 14.3765C12.8874 13.6718 13.2386 12.9589 13.9578 12.9074C16.0157 12.76 18.8523 12.76 20.9103 12.9074C21.6294 12.9589 21.9806 13.6718 21.9966 14.3765C21.9987 14.469 22.0004 14.5695 22.0004 14.6776C22.0004 14.7858 21.9987 14.8861 21.9966 14.9787Z" fill="white"/>
<path d="M13.3469 19.83C13.3605 19.2288 13.6384 18.8611 13.9908 18.8359C16.0266 18.6901 18.8411 18.6901 20.8769 18.8359C21.2293 18.8611 21.5072 19.2288 21.5208 19.83C21.5228 19.9187 21.5239 20.0151 21.5239 20.1196C21.5239 20.2242 21.5228 20.3206 21.5208 20.4093C21.5072 21.0105 21.2293 21.3781 20.8769 21.4034C18.8411 21.5492 16.0266 21.5492 13.9908 21.4034C13.6384 21.3781 13.3605 21.0105 13.3469 20.4093C13.3449 20.3206 13.3438 20.2242 13.3438 20.1196C13.3438 20.0151 13.3449 19.9187 13.3469 19.83Z" fill="white"/>
<path d="M21.0451 19.8408C21.0399 19.6107 20.984 19.4683 20.9345 19.3949C20.8893 19.3283 20.8558 19.3234 20.8442 19.3225C18.8305 19.1783 16.0375 19.1783 14.0238 19.3225C14.0123 19.3234 13.9788 19.3281 13.9336 19.3949C13.884 19.4683 13.8281 19.6106 13.8229 19.8408C13.821 19.9255 13.8201 20.0181 13.8201 20.119C13.8201 20.2199 13.821 20.3125 13.8229 20.3972C13.8281 20.6276 13.884 20.7708 13.9336 20.844C13.9787 20.9107 14.0124 20.9156 14.0238 20.9165C16.0375 21.0607 18.8305 21.0607 20.8442 20.9165C20.8557 20.9156 20.8894 20.9106 20.9345 20.844C20.9841 20.7708 21.0399 20.6276 21.0451 20.3972C21.047 20.3125 21.0479 20.2199 21.0479 20.119C21.0479 20.0181 21.0471 19.9255 21.0451 19.8408ZM21.9966 20.4201C21.9807 21.125 21.6294 21.8377 20.9103 21.8892C18.8523 22.0366 16.0157 22.0366 13.9578 21.8892C13.2836 21.8409 12.9324 21.2118 12.8779 20.5525L12.8714 20.4201C12.8693 20.3275 12.8677 20.2272 12.8677 20.119C12.8677 20.0109 12.8693 19.9105 12.8714 19.8179C12.8874 19.1132 13.2386 18.4003 13.9578 18.3488C16.0157 18.2014 18.8524 18.2015 20.9103 18.3488C21.6294 18.4003 21.9806 19.1132 21.9966 19.8179C21.9987 19.9105 22.0004 20.0109 22.0004 20.119L21.9966 20.4201Z" fill="white"/>
<path d="M21.4008 3.87265C21.2806 2.84106 20.3879 2.15499 19.3189 2.1148C17.8693 2.06029 15.4795 2 12.0003 2C8.52121 2 6.13141 2.06029 4.68174 2.1148C3.61279 2.15499 2.72002 2.84105 2.59981 3.87264C2.52957 4.47545 2.47607 5.25148 2.47607 6.21697C2.47607 7.18249 2.52957 7.95849 2.59981 8.5613C2.72002 9.59288 3.61279 10.279 4.68174 10.3192C6.13141 10.3736 8.52121 10.4339 12.0003 10.4339C15.4795 10.4339 17.8693 10.3736 19.3189 10.3192C20.3879 10.279 21.2806 9.59293 21.4008 8.5613C21.4711 7.95849 21.5246 7.18249 21.5246 6.21697C21.5246 5.25148 21.4711 4.47546 21.4008 3.87265Z" stroke="white" stroke-width="1.5" stroke-linejoin="round"/>
<path d="M2.53728 19.651C2.5901 20.6156 3.32721 21.349 4.29668 21.4015C4.9268 21.4357 5.75257 21.4624 6.79341 21.4624C7.83425 21.4624 8.66 21.4357 9.2901 21.4015C10.2596 21.349 10.9967 20.6156 11.0495 19.651C11.0838 19.024 11.1107 18.2024 11.1107 17.1668C11.1107 16.1311 11.0838 15.3095 11.0495 14.6826C10.9967 13.718 10.2596 12.9845 9.2901 12.932C8.66 12.8979 7.83425 12.8711 6.79341 12.8711C5.75257 12.8711 4.9268 12.8979 4.29669 12.932C3.32721 12.9845 2.5901 13.718 2.53729 14.6826C2.50296 15.3095 2.47607 16.1311 2.47607 17.1668C2.47607 18.2024 2.50296 19.024 2.53728 19.651Z" fill="white"/>
<path d="M10.6351 17.1665C10.6351 16.1396 10.6084 15.3268 10.5746 14.7094C10.536 14.0046 10.003 13.4584 9.26503 13.4184C8.64377 13.3848 7.8265 13.3584 6.79375 13.3584C5.76087 13.3584 4.94286 13.3848 4.32154 13.4184C3.58381 13.4586 3.05147 14.0047 3.01288 14.7094C2.97908 15.3268 2.95243 16.1396 2.95243 17.1665C2.95243 18.1934 2.97908 19.0063 3.01288 19.6236C3.05167 20.3282 3.58398 20.8735 4.32154 20.9137H4.32247C4.9437 20.9473 5.7611 20.9737 6.79375 20.9737C7.82655 20.9737 8.64381 20.9474 9.26503 20.9137C10.0029 20.8737 10.5358 20.3283 10.5746 19.6236C10.6084 19.0063 10.6351 18.1934 10.6351 17.1665ZM11.5875 17.1665C11.5875 18.2107 11.56 19.0415 11.5252 19.6779C11.4581 20.9022 10.5162 21.8232 9.31526 21.8883C8.67638 21.923 7.84234 21.9493 6.79375 21.9493C5.74497 21.9493 4.91027 21.923 4.27131 21.8883C3.07053 21.8231 2.12942 20.9021 2.06232 19.6779C2.02747 19.0415 2 18.2107 2 17.1665C2 16.1224 2.02747 15.2916 2.06232 14.6551C2.12934 13.4309 3.07049 12.51 4.27131 12.4447C4.91022 12.4101 5.74495 12.3828 6.79375 12.3828C7.84239 12.3828 8.67642 12.4101 9.31526 12.4447C10.5163 12.5098 11.4582 13.4308 11.5252 14.6551C11.56 15.2916 11.5875 16.1224 11.5875 17.1665Z" fill="white"/>
</svg>
