<svg width="25" height="25" viewBox="0 0 25 25" fill="none" xmlns="http://www.w3.org/2000/svg">
<path fill-rule="evenodd" clip-rule="evenodd" d="M19.7516 7.68229C21.0748 7.68229 22.1475 6.60964 22.1475 5.28646C22.1475 3.96327 21.0748 2.89062 19.7516 2.89062C18.4285 2.89062 17.3558 3.96327 17.3558 5.28646C17.3558 6.60964 18.4285 7.68229 19.7516 7.68229ZM19.7516 15.2386C21.0748 15.2386 22.1475 14.166 22.1475 12.8428C22.1475 11.5195 21.0748 10.4469 19.7516 10.4469C18.4285 10.4469 17.3558 11.5195 17.3558 12.8428C17.3558 14.166 18.4285 15.2386 19.7516 15.2386ZM22.1475 20.4948C22.1475 21.818 21.0748 22.8906 19.7516 22.8906C18.4285 22.8906 17.3558 21.818 17.3558 20.4948C17.3558 19.1716 18.4285 18.099 19.7516 18.099C21.0748 18.099 22.1475 19.1716 22.1475 20.4948ZM6.31413 17.0157C8.61531 17.0157 10.4808 15.1502 10.4808 12.849C10.4808 10.5478 8.61531 8.68235 6.31413 8.68235C4.01294 8.68235 2.14746 10.5478 2.14746 12.849C2.14746 15.1502 4.01294 17.0157 6.31413 17.0157ZM16.4455 6.82527C16.687 7.34336 17.0468 7.79524 17.49 8.14626L13.8439 12.0157H16.2C16.1384 12.2815 16.1058 12.5583 16.1058 12.8428C16.1058 13.1317 16.1394 13.4128 16.203 13.6824H13.8442L17.5355 17.5996C17.088 17.9426 16.7225 18.387 16.473 18.8984C16.4565 18.8835 16.4404 18.8677 16.4248 18.8512L11.6503 13.7844C11.7032 13.4805 11.7308 13.168 11.7308 12.849C11.7308 12.53 11.7032 12.2173 11.6503 11.9134L16.4248 6.84646C16.4316 6.83925 16.4385 6.83219 16.4455 6.82527Z" fill="white"/>
</svg>
