<svg width="32" height="32" viewBox="0 0 32 32" fill="none" xmlns="http://www.w3.org/2000/svg">
<g id="ic_apis">
<path id="&#240;&#159;&#142;&#168;Color" fill-rule="evenodd" clip-rule="evenodd" d="M15.9605 27.3518L9.25105 31.2187C9.05908 31.3295 8.82183 31.3302 8.62912 31.2207L1.12705 26.9565C0.934774 26.8474 0.816689 26.6445 0.81788 26.4254L0.87069 17.7915C0.872228 17.5766 0.988615 17.3785 1.17678 17.2695L8.38277 13.1165L8.42814 5.69904C8.42968 5.48418 8.54607 5.28554 8.73424 5.17709L16.3019 0.815539C16.4939 0.704794 16.7312 0.704021 16.9239 0.813512L24.4259 5.07777C24.6182 5.18723 24.7366 5.38993 24.7351 5.60884L24.6888 13.1792C24.7194 13.2526 24.7357 13.3323 24.7351 13.4143L24.7339 13.6056L31.1754 17.267C31.3676 17.3764 31.4861 17.5791 31.4845 17.798L31.4317 26.4315C31.4302 26.6463 31.3138 26.845 31.1256 26.9534L23.5579 31.315C23.366 31.4257 23.1287 31.4265 22.936 31.317L15.9605 27.3518ZM16.3423 16.8714L11.1647 13.9282L16.6193 10.7843L21.797 13.7277L16.3423 16.8714ZM24.7197 15.9357L29.4286 18.6124L29.386 25.6096L23.2406 29.1517L18.0624 26.2085L24.3762 22.5696C24.5644 22.4607 24.6808 22.2625 24.6823 22.0477L24.7197 15.9357ZM17.2228 18.887L22.6698 15.7476L22.6365 21.2258L17.189 24.3656L17.2228 18.887ZM8.93318 29.0554L14.3887 25.9109L8.68451 22.6689C8.49207 22.5597 8.37396 22.3567 8.37534 22.1374L8.41628 15.4438L2.91644 18.6139L2.87389 25.611L8.93318 29.0554ZM10.4313 21.3231L15.0881 23.9704L15.1216 18.5225L10.4644 15.8753L10.4313 21.3231ZM22.646 11.8714L16.9239 8.61893C16.7312 8.50944 16.4939 8.51021 16.3019 8.62096L10.4405 11.9991L10.4739 6.52152L16.6193 2.97937L22.6791 6.42321V6.42372L22.646 11.8714Z" fill="#1774E5"/>
</g>
</svg>
