<svg width="33" height="33" viewBox="0 0 33 33" fill="none" xmlns="http://www.w3.org/2000/svg">
<g id="icon_Component">
<path id="Union" fill-rule="evenodd" clip-rule="evenodd" d="M2.15149 2.73195L18.1514 2.73195V12.7319L12.2661 12.7319L2.15149 12.7319V2.73195ZM12.2661 14.7319L2.15149 14.7319V30.7319H12.2661V14.7319ZM30.1514 14.7319V30.7319H14.2661V14.7319L20.3919 14.7319L30.1514 14.7319ZM12.2661 32.7319H1.65149C0.823061 32.7319 0.151489 32.0603 0.151489 31.2319V14.7319H0.151367V2.23195C0.151367 1.49573 0.681763 0.883394 1.38129 0.756205C1.46893 0.740261 1.55924 0.731934 1.65149 0.731934H18.1514H30.6513H30.6514C31.4799 0.731934 32.1514 1.40351 32.1514 2.23193L32.1515 12.7319V31.2319C32.1515 32.0603 31.4799 32.7319 30.6515 32.7319H12.2661V32.7319Z" fill="#1774E5"/>
</g>
</svg>
