<svg width="48" height="48" viewBox="0 0 48 48" fill="none" xmlns="http://www.w3.org/2000/svg">
<path d="M18 4V8M30 4V8M18 40V44M30 40V44M40 18H44M40 28H44M4 18H8M4 28H8M17.6 40H30.4C33.7603 40 35.4405 40 36.7239 39.346C37.8529 38.7708 38.7708 37.8529 39.346 36.7239C40 35.4405 40 33.7603 40 30.4V17.6C40 14.2397 40 12.5595 39.346 11.2761C38.7708 10.1471 37.8529 9.2292 36.7239 8.65396C35.4405 8 33.7603 8 30.4 8H17.6C14.2397 8 12.5595 8 11.2761 8.65396C10.1471 9.2292 9.2292 10.1471 8.65396 11.2761C8 12.5595 8 14.2397 8 17.6V30.4C8 33.7603 8 35.4405 8.65396 36.7239C9.2292 37.8529 10.1471 38.7708 11.2761 39.346C12.5595 40 14.2397 40 17.6 40ZM21.2 30H26.8C27.9201 30 28.4802 30 28.908 29.782C29.2843 29.5903 29.5903 29.2843 29.782 28.908C30 28.4802 30 27.9201 30 26.8V21.2C30 20.0799 30 19.5198 29.782 19.092C29.5903 18.7157 29.2843 18.4097 28.908 18.218C28.4802 18 27.9201 18 26.8 18H21.2C20.0799 18 19.5198 18 19.092 18.218C18.7157 18.4097 18.4097 18.7157 18.218 19.092C18 19.5198 18 20.0799 18 21.2V26.8C18 27.9201 18 28.4802 18.218 28.908C18.4097 29.2843 18.7157 29.5903 19.092 29.782C19.5198 30 20.0799 30 21.2 30Z" stroke="#1774E5" stroke-width="4" stroke-linecap="round" stroke-linejoin="round"/>
</svg>
