<svg width="38" height="44" viewBox="0 0 38 44" fill="none" xmlns="http://www.w3.org/2000/svg">
<path d="M22.8857 0C23.5361 0 24.1623 0.25168 24.6377 0.704102L37.1846 12.6475C37.7045 13.1425 37.9999 13.8352 38 14.5605V38.6758C38 41.6829 35.4606 44 32.4795 44H5.52051C2.53944 44 2.96599e-05 41.6829 0 38.6758V5.32422C2.92209e-05 2.31706 2.53944 0 5.52051 0H22.8857ZM5.52051 2.09473C3.53852 2.09473 2.05374 3.60712 2.05371 5.32422V38.6758C2.05374 40.3929 3.53852 41.9053 5.52051 41.9053H32.4795C34.4615 41.9053 35.9463 40.3929 35.9463 38.6758V14.7793H24.5156C23.665 14.7791 22.9756 14.0754 22.9756 13.208V2.10254C22.9462 2.09722 22.916 2.09473 22.8857 2.09473H5.52051ZM26.8633 32.251C27.4835 32.251 27.9861 32.729 27.9863 33.3193C27.9863 33.9098 27.4836 34.3886 26.8633 34.3887H6.64355C6.02318 34.3887 5.52051 33.9099 5.52051 33.3193C5.52075 32.729 6.02333 32.251 6.64355 32.251H26.8633ZM26.8633 25.7012C27.4836 25.7012 27.9863 26.18 27.9863 26.7705C27.9863 27.361 27.4836 27.8398 26.8633 27.8398H6.64355C6.02318 27.8398 5.52051 27.361 5.52051 26.7705C5.52052 26.18 6.02318 25.7012 6.64355 25.7012H26.8633ZM15.6299 19.4189C16.2502 19.4189 16.7527 19.8979 16.7529 20.4883C16.7529 21.0788 16.2503 21.5576 15.6299 21.5576H6.64355C6.02318 21.5576 5.52051 21.0788 5.52051 20.4883C5.52069 19.8979 6.02329 19.419 6.64355 19.4189H15.6299Z" fill="#1774E5"/>
</svg>
