<svg width="29" height="33" viewBox="0 0 29 33" fill="none" xmlns="http://www.w3.org/2000/svg">
<g id="Foundations/system icon/pl-icon-document">
<path id="Union" fill-rule="evenodd" clip-rule="evenodd" d="M4.2835 0.731934C2.05204 0.731934 0.151367 2.41709 0.151367 4.60413V28.8597C0.151367 31.0468 2.05204 32.7319 4.2835 32.7319H24.4637C26.6951 32.7319 28.5958 31.0468 28.5958 28.8597V11.3217C28.5958 10.794 28.3748 10.29 27.9854 9.92986L18.5939 1.24415C18.238 0.915 17.7692 0.731934 17.2824 0.731934H4.2835ZM1.6889 4.60413C1.6889 3.35531 2.79989 2.25515 4.2835 2.25515H17.2824C17.305 2.25515 17.3275 2.25714 17.3496 2.26103V10.3374C17.3496 10.9683 17.8659 11.4798 18.5028 11.4798L27.0583 11.4798V28.8597C27.0583 30.1086 25.9473 31.2087 24.4637 31.2087H4.2835C2.79989 31.2087 1.6889 30.1086 1.6889 28.8597V4.60413ZM11.8511 14.8551H5.12434C4.65996 14.8551 4.2835 15.2033 4.2835 15.6327C4.2835 16.0622 4.65996 16.4104 5.12434 16.4104H11.8511C12.3155 16.4104 12.6919 16.0622 12.6919 15.6327C12.6919 15.2033 12.3155 14.8551 11.8511 14.8551ZM4.2835 24.9645C4.2835 25.394 4.65996 25.7421 5.12434 25.7421H20.2595C20.7239 25.7421 21.1003 25.394 21.1003 24.9645C21.1003 24.535 20.7239 24.1868 20.2595 24.1868H5.12434C4.65996 24.1868 4.2835 24.535 4.2835 24.9645ZM5.12434 20.979H20.2595C20.7239 20.979 21.1003 20.6309 21.1003 20.2014C21.1003 19.7719 20.7239 19.4238 20.2595 19.4238H5.12434C4.65996 19.4238 4.2835 19.7719 4.2835 20.2014C4.2835 20.6309 4.65996 20.979 5.12434 20.979Z" fill="#1774E5"/>
</g>
</svg>
