<svg width="40" height="40" viewBox="0 0 40 40" fill="none" xmlns="http://www.w3.org/2000/svg">
<path d="M3.62349 28.7566C2.66589 28.8101 1.92685 29.4334 1.81168 30.3856C1.73104 31.0522 1.6665 31.9887 1.6665 33.2786C1.6665 34.5685 1.73104 35.505 1.81168 36.1716C1.92685 37.1238 2.66589 37.7471 3.62349 37.8007C4.24238 37.8353 5.09398 37.862 6.24984 37.862C7.40569 37.862 8.25729 37.8353 8.87617 37.8007C9.83375 37.7471 10.5728 37.1238 10.688 36.1716C10.7687 35.505 10.8332 34.5685 10.8332 33.2786C10.8332 31.9887 10.7687 31.0522 10.688 30.3856C10.5728 29.4334 9.83375 28.8101 8.87617 28.7566C8.25729 28.7219 7.40569 28.6953 6.24984 28.6953C5.09398 28.6953 4.24238 28.7219 3.62349 28.7566Z" fill="#1774E5"/>
<path d="M31.1235 2.50656C30.1659 2.56015 29.4268 3.18344 29.3117 4.1356C29.231 4.80227 29.1665 5.73875 29.1665 7.02865C29.1665 8.31855 29.231 9.255 29.3117 9.92167C29.4268 10.8738 30.1659 11.4972 31.1235 11.5508C31.7424 11.5853 32.594 11.612 33.7498 11.612C34.9057 11.612 35.7573 11.5853 36.3762 11.5508C37.3338 11.4972 38.0728 10.8738 38.188 9.92167C38.2687 9.255 38.3332 8.31855 38.3332 7.02865C38.3332 5.73875 38.2687 4.80226 38.188 4.1356C38.0728 3.18344 37.3338 2.56015 36.3762 2.50656C35.7573 2.47192 34.9057 2.44531 33.7498 2.44531C32.594 2.44531 31.7424 2.47192 31.1235 2.50656Z" fill="#1774E5"/>
<path d="M30.9149 23.3925C29.1931 23.3288 28.4342 21.7713 29.438 20.3709C29.7079 19.9943 30.0171 19.5754 30.3703 19.1127C31.0562 18.214 31.6312 17.5644 32.0952 17.0968C32.9456 16.2399 34.1587 16.2399 35.0091 17.0967C35.4732 17.5644 36.0481 18.2139 36.7339 19.1127C37.0869 19.5752 37.3958 19.9938 37.6656 20.3702C38.6695 21.7709 37.9106 23.3289 36.1884 23.3925C35.4701 23.4191 34.6007 23.4362 33.5521 23.4362C32.5031 23.4362 31.6334 23.4191 30.9149 23.3925Z" fill="white"/>
<path d="M3.62349 28.7566C2.66589 28.8101 1.92685 29.4334 1.81168 30.3856C1.73104 31.0522 1.6665 31.9887 1.6665 33.2786C1.6665 34.5685 1.73104 35.505 1.81168 36.1716C1.92685 37.1238 2.66589 37.7471 3.62349 37.8007C4.24238 37.8353 5.09398 37.862 6.24984 37.862C7.4057 37.862 8.25729 37.8353 8.87617 37.8007C9.83375 37.7471 10.5728 37.1238 10.688 36.1716C10.7687 35.505 10.8332 34.5685 10.8332 33.2786C10.8332 31.9887 10.7687 31.0522 10.688 30.3856C10.5728 29.4334 9.83375 28.8101 8.87617 28.7566C8.25729 28.7219 7.40569 28.6953 6.24984 28.6953C5.09398 28.6953 4.24238 28.7219 3.62349 28.7566Z" stroke="#1774E5" stroke-width="2" stroke-linejoin="round"/>
<path d="M31.1235 2.50656C30.1659 2.56015 29.4268 3.18344 29.3117 4.1356C29.231 4.80227 29.1665 5.73875 29.1665 7.02865C29.1665 8.31855 29.231 9.255 29.3117 9.92167C29.4268 10.8738 30.1659 11.4972 31.1235 11.5508C31.7424 11.5853 32.594 11.612 33.7498 11.612C34.9057 11.612 35.7573 11.5853 36.3762 11.5508C37.3338 11.4972 38.0728 10.8738 38.188 9.92167C38.2687 9.255 38.3332 8.31855 38.3332 7.02865C38.3332 5.73875 38.2687 4.80226 38.188 4.1356C38.0728 3.18344 37.3338 2.56015 36.3762 2.50656C35.7573 2.47192 34.9057 2.44531 33.7498 2.44531C32.594 2.44531 31.7424 2.47192 31.1235 2.50656Z" stroke="#1774E5" stroke-width="2" stroke-linejoin="round"/>
<path d="M33.5773 23.3947V32.7529C33.5773 35.5143 31.3388 37.7529 28.5773 37.7529H24.9998C22.2383 37.7529 19.9998 35.5143 19.9998 32.7529V7.1377C19.9998 4.37627 17.7613 2.1377 14.9998 2.1377H11.4223C8.66092 2.1377 6.42236 4.37627 6.42236 7.1377V23.3947" stroke="#1774E5" stroke-width="2.5" stroke-linecap="round" stroke-linejoin="round"/>
<path d="M30.9149 23.3925C29.1931 23.3288 28.4342 21.7713 29.438 20.3709C29.7079 19.9943 30.0171 19.5754 30.3703 19.1127C31.0562 18.214 31.6312 17.5644 32.0952 17.0968C32.9456 16.2399 34.1587 16.2399 35.0091 17.0967C35.4732 17.5644 36.0481 18.2139 36.7339 19.1127C37.0869 19.5752 37.3958 19.9938 37.6656 20.3702C38.6695 21.7709 37.9106 23.3289 36.1884 23.3925C35.4701 23.4191 34.6007 23.4362 33.5521 23.4362C32.5031 23.4362 31.6334 23.4191 30.9149 23.3925Z" stroke="#1774E5" stroke-width="2.5" stroke-linejoin="round"/>
</svg>
