<svg width="40" height="40" viewBox="0 0 40 40" fill="none" xmlns="http://www.w3.org/2000/svg">
<path d="M10.4414 9.03343C10.4336 9.06631 10.4336 9.10055 10.4414 9.13343V15.4999C10.439 15.5691 10.4547 15.6378 10.4868 15.6991C10.5189 15.7605 10.5664 15.8124 10.6247 15.8499C11.7694 16.595 13.0798 17.0471 14.4403 17.1666H15.1068C16.2957 17.1706 17.4698 16.9026 18.5392 16.3832C18.6094 16.3467 18.6682 16.2917 18.7094 16.2241C18.7505 16.1566 18.7723 16.079 18.7725 15.9999V0.416989C18.7726 0.360842 18.7613 0.305265 18.7393 0.253596C18.7173 0.201927 18.6851 0.155233 18.6447 0.116317C18.6042 0.0774005 18.5563 0.047066 18.5038 0.0271349C18.4514 0.0072039 18.3954 -0.00191242 18.3393 0.000333481H13.2407C13.1483 -0.000593456 13.0581 0.0280123 12.9832 0.081978C12.9082 0.135944 12.8525 0.212446 12.8241 0.300326C12.6741 0.916976 12.1409 2.85026 10.4414 9.03343Z" fill="#1774E5"/>
<path d="M21.255 16.0163C21.2532 16.0957 21.2743 16.1741 21.3156 16.242C21.357 16.3099 21.4169 16.3646 21.4883 16.3996C22.768 17.0153 24.1883 17.2799 25.6038 17.1662C27.0266 17.0482 28.3938 16.5598 29.5694 15.7496V9.0831C29.5772 9.05022 29.5772 9.01598 29.5694 8.9831L27.1701 0.299992C27.1426 0.214793 27.0894 0.140207 27.0178 0.0864879C26.9461 0.0327691 26.8597 0.00255528 26.7702 0L21.6715 0C21.5611 0 21.4551 0.0438976 21.377 0.122036C21.2989 0.200174 21.255 0.306152 21.255 0.416656V16.0163Z" fill="#1774E5"/>
<path d="M40 8.44978L37.0674 1.66662C36.8986 1.19469 36.5927 0.783927 36.189 0.486996C35.7853 0.190064 35.3021 0.0204876 34.8014 0L30.2193 0C30.1572 0.00128696 30.0962 0.0170176 30.0413 0.0459456C29.9863 0.0748737 29.9389 0.116204 29.9027 0.166662C29.861 0.216969 29.8318 0.276365 29.8173 0.340056C29.8028 0.403747 29.8035 0.469949 29.8194 0.533319L32.0354 8.58311C32.0529 8.69353 32.0529 8.80601 32.0354 8.91643V14.8663C32.0365 14.9495 32.0625 15.0305 32.11 15.0988C32.1575 15.1671 32.2244 15.2196 32.302 15.2496C32.9005 15.495 33.5383 15.6305 34.1849 15.6496V36.2491C34.1849 36.3596 34.141 36.4655 34.0629 36.5437C33.9847 36.6218 33.8788 36.6657 33.7683 36.6657H6.17562C6.06514 36.6657 5.95919 36.6218 5.88107 36.5437C5.80295 36.4655 5.75907 36.3596 5.75907 36.2491V15.6496C6.41102 15.6307 7.05433 15.4952 7.65856 15.2496C7.73619 15.2196 7.80308 15.1671 7.85059 15.0988C7.89811 15.0305 7.92408 14.9495 7.92516 14.8663V8.91643C7.91611 8.80551 7.91611 8.69403 7.92516 8.58311L10.1746 0.533319C10.2038 0.476631 10.219 0.413773 10.219 0.349991C10.219 0.286208 10.2038 0.223351 10.1746 0.166662C10.1349 0.115836 10.0844 0.0744998 10.0268 0.0456677C9.96912 0.0168356 9.90576 0.00123391 9.84132 0H5.20921C4.70851 0.0204876 4.22533 0.190064 3.8216 0.486996C3.41787 0.783927 3.11198 1.19469 2.94315 1.66662L0.0105883 8.44978C-0.00352944 8.56044 -0.00352944 8.67245 0.0105883 8.7831L0.0105883 10.2997C0.0234058 11.1336 0.232184 11.9528 0.62005 12.6911C1.00792 13.4294 1.56399 14.066 2.24333 14.5496C2.29915 14.5856 2.34513 14.6349 2.37713 14.6931C2.40912 14.7513 2.42613 14.8165 2.42662 14.8829V36.6657C2.42648 37.1105 2.51535 37.5509 2.68801 37.9608C2.86067 38.3708 3.11361 38.742 3.43194 39.0526C3.75026 39.3633 4.12753 39.607 4.5415 39.7696C4.95548 39.9321 5.39779 40.0101 5.84238 39.999H34.1682C34.6128 40.0101 35.0551 39.9321 35.4691 39.7696C35.8831 39.607 36.2603 39.3633 36.5787 39.0526C36.897 38.742 37.1499 38.3708 37.3226 37.9608C37.4952 37.5509 37.5841 37.1105 37.584 36.6657V14.8829C37.5852 14.8185 37.6008 14.7551 37.6296 14.6975C37.6585 14.6398 37.6998 14.5893 37.7506 14.5496C38.4292 14.0641 38.9857 13.4274 39.3761 12.6899C39.7665 11.9523 39.9801 11.134 40 10.2997V8.44978Z" fill="#1774E5"/>
</svg>
