<svg width="16" height="16" viewBox="0 0 18 17" fill="none" xmlns="http://www.w3.org/2000/svg">
<g id="Frame" clip-path="url(#clip0_8157_5198)">
<g id="Dev-Hub-Provisioning">
<g id="BW-App-Deploy-task-wizard-Option-1-Copy-6">
<g id="Foundations/system-icon/pl-icon-new-tab-window">
<path id="&#240;&#159;&#142;&#168;-Color" fill-rule="evenodd" clip-rule="evenodd" d="M16.2225 16.6667H1.42485C0.914335 16.6667 0.5 16.2582 0.5 15.7548V1.16521C0.5 0.661873 0.914335 0.253364 1.42485 0.253364H7.54739C8.05791 0.253364 8.47224 0.661873 8.47224 1.16521C8.47224 1.66856 8.05791 2.07706 7.54739 2.07706H2.34971V14.843H15.2977V9.49132C15.2977 8.98798 15.712 8.57947 16.2225 8.57947C16.733 8.57947 17.1474 8.98798 17.1474 9.49132V15.7548C17.1474 16.2582 16.733 16.6667 16.2225 16.6667ZM10.4745 8.08707L14.9444 3.67918L14.863 5.62963C14.851 5.91504 14.9573 6.2041 15.1802 6.42385C15.5955 6.83419 16.2651 6.84239 16.672 6.44027C16.8616 6.25425 16.9606 6.01079 16.9716 5.76367L17.1659 1.10777C17.177 0.82327 17.0725 0.533302 16.8496 0.313546C16.6276 0.0937902 16.3326 -0.0101607 16.044 0.000781487L11.3226 0.193182C11.0711 0.203212 10.8241 0.302604 10.6355 0.488621C10.2285 0.889835 10.235 1.54819 10.6521 1.95944C10.8759 2.1801 11.1682 2.28405 11.4567 2.2722L13.435 2.19105L8.96519 6.59893C8.55825 7.00014 8.56565 7.65941 8.98276 8.06974C9.39987 8.48099 10.0676 8.48828 10.4745 8.08707Z" fill="#1774E5"/>
</g>
</g>
</g>
</g>
<defs>
<clipPath id="clip0_8157_5198">
<rect width="16.6667" height="16.6667" fill="white" transform="translate(0.5)"/>
</clipPath>
</defs>
</svg>
