<svg width="42" height="42" viewBox="0 0 42 42" fill="none" xmlns="http://www.w3.org/2000/svg">
<path d="M40.067 3.04991C40.067 2.06017 39.2647 1.25781 38.2749 1.25781H29.1114C28.1217 1.25781 27.3193 2.06017 27.3193 3.04991V12.2134C27.3193 13.2031 28.1217 14.0055 29.1114 14.0055H38.2749C39.2647 14.0055 40.067 13.2031 40.067 12.2134V3.04991Z" stroke="#1774E5" stroke-width="2.5" stroke-linecap="round" stroke-linejoin="round"/>
<path d="M13.9977 29.4689C13.9977 28.4791 13.1953 27.6768 12.2056 27.6768H3.04209C2.05236 27.6768 1.25 28.4791 1.25 29.4689V38.6324C1.25 39.6221 2.05236 40.4245 3.04209 40.4245H12.2056C13.1953 40.4245 13.9977 39.6221 13.9977 38.6324V29.4689Z" stroke="#1774E5" stroke-width="2.5" stroke-linecap="round" stroke-linejoin="round"/>
<path d="M34.9463 14.0127C34.9463 13.3223 34.3866 12.7627 33.6963 12.7627C33.0059 12.7627 32.4463 13.3223 32.4463 14.0127H33.6963H34.9463ZM27.0296 34.0512C27.0296 37.7331 30.0144 40.7179 33.6963 40.7179C37.3782 40.7179 40.363 37.7331 40.363 34.0512C40.363 30.3693 37.3782 27.3846 33.6963 27.3846C30.0144 27.3846 27.0296 30.3693 27.0296 34.0512ZM33.6963 14.0127H32.4463V34.0512H33.6963H34.9463V14.0127H33.6963Z" fill="#1774E5"/>
<path d="M27.3191 14.0127L13.8213 27.5106" stroke="#1774E5" stroke-width="2.5" stroke-linecap="round" stroke-linejoin="round"/>
<path d="M2.81494 4.7496C2.81494 6.00928 3.31534 7.21736 4.20607 8.10808C5.09679 8.99881 6.30487 9.49921 7.56455 9.49921C8.82422 9.49921 10.0323 8.99881 10.923 8.10808C11.8137 7.21736 12.3142 6.00928 12.3142 4.7496C12.3142 3.48993 11.8137 2.28185 10.923 1.39113C10.0323 0.500404 8.82422 0 7.56455 0C6.30487 0 5.09679 0.500404 4.20607 1.39113C3.31534 2.28185 2.81494 3.48993 2.81494 4.7496Z" fill="#1774E5"/>
<path d="M7.56627 10.499C5.57731 10.499 3.66982 11.2891 2.26341 12.6955C0.857005 14.1019 0.0668945 16.0094 0.0668945 17.9984C0.0668945 18.131 0.119569 18.2582 0.213329 18.3519C0.307089 18.4457 0.434256 18.4984 0.566853 18.4984H14.5657C14.6983 18.4984 14.8255 18.4457 14.9192 18.3519C15.013 18.2582 15.0656 18.131 15.0656 17.9984C15.0656 16.0094 14.2755 14.1019 12.8691 12.6955C11.4627 11.2891 9.55523 10.499 7.56627 10.499Z" fill="#1774E5"/>
</svg>
