<svg width="33" height="32" viewBox="0 0 33 32" fill="none" xmlns="http://www.w3.org/2000/svg">
<path fill-rule="evenodd" clip-rule="evenodd" d="M5.9148 12.4697C2.75405 12.1584 0.28475 9.49259 0.28475 6.25002C0.28475 2.79823 3.08297 0 6.53475 0C9.84213 0 12.5495 2.56901 12.7702 5.82041H20.4342L17.3296 2.71583C17.0693 2.45548 17.0693 2.03337 17.3296 1.77302C17.59 1.51267 18.0121 1.51267 18.2724 1.77302L22.4569 5.95756V1.33333C22.4569 0.596953 23.0539 0 23.7903 0H30.9514C31.6878 0 32.2847 0.596954 32.2847 1.33333V13.24C32.2847 13.9764 31.6878 14.5733 30.9514 14.5733H28.1713C28.1929 14.6388 28.2045 14.7088 28.2045 14.7816V20.5H31.2847C31.837 20.5 32.2847 20.9478 32.2847 21.5001V31.0001C32.2847 31.5524 31.837 32.0001 31.2847 32.0001H20.2847C19.7325 32.0001 19.2847 31.5524 19.2847 31.0001V29.6015H9.24813C7.40718 29.6015 5.9148 28.1091 5.9148 26.2682V25.1121H1.618C0.881621 25.1121 0.284668 24.5151 0.284668 23.7787L0.284668 16.6176C0.284668 15.8812 0.881623 15.2843 1.618 15.2843H5.9148V12.4697ZM7.24813 15.2843H13.5247C14.261 15.2843 14.858 15.8812 14.858 16.6176V23.7787C14.858 24.5151 14.261 25.1121 13.5247 25.1121H7.24813V26.2682C7.24813 27.3727 8.14356 28.2682 9.24813 28.2682H19.2847V21.5001C19.2847 20.9478 19.7325 20.5 20.2847 20.5H26.8712V14.7816C26.8712 14.7088 26.8828 14.6388 26.9043 14.5733H23.7903C23.0539 14.5733 22.4569 13.9764 22.4569 13.24V7.01659L18.2724 11.2011C18.0121 11.4615 17.59 11.4615 17.3296 11.2011C17.0693 10.9408 17.0693 10.5187 17.3296 10.2583L20.4342 7.15374H12.7199C12.3156 9.94536 10.0661 12.1396 7.24813 12.4598V15.2843ZM30.9514 1.33333H23.7903V13.24H30.9514V1.33333ZM13.5247 16.6176V23.7787H1.618L1.618 16.6176H13.5247Z" fill="#1774E5"/>
</svg>
