<svg width="33" height="33" viewBox="0 0 33 33" fill="none" xmlns="http://www.w3.org/2000/svg">
<g id="icon_Templates">
<path id="Vector" d="M1.12106 32.732C1.37824 32.732 1.62489 32.6214 1.80674 32.4247C1.9886 32.2279 2.09076 31.9611 2.09076 31.6828V21.191C2.09076 20.9127 2.19293 20.6459 2.37478 20.4491C2.55663 20.2524 2.80328 20.1418 3.06046 20.1418H11.7877C12.0449 20.1418 12.2916 20.2524 12.4734 20.4491C12.6553 20.6459 12.7574 20.9127 12.7574 21.191V31.6828C12.7574 31.9611 12.8596 32.2279 13.0414 32.4247C13.2233 32.6214 13.4699 32.732 13.7271 32.732C13.9843 32.732 14.231 32.6214 14.4128 32.4247C14.5947 32.2279 14.6968 31.9611 14.6968 31.6828V21.191C14.6968 20.3562 14.3903 19.5556 13.8448 18.9653C13.2992 18.3751 12.5593 18.0435 11.7877 18.0435H3.06046C2.28892 18.0435 1.54898 18.3751 1.00342 18.9653C0.45786 19.5556 0.151367 20.3562 0.151367 21.191V31.6828C0.151367 31.9611 0.253531 32.2279 0.435385 32.4247C0.617238 32.6214 0.863885 32.732 1.12106 32.732Z" fill="#1774E5"/>
<path id="Vector_2" d="M9.84833 25.9121H4.99985C4.74267 25.9121 4.49602 26.0226 4.31417 26.2194C4.13232 26.4162 4.03015 26.683 4.03015 26.9613C4.03015 27.2395 4.13232 27.5064 4.31417 27.7032C4.49602 27.8999 4.74267 28.0105 4.99985 28.0105H9.84833C10.1055 28.0105 10.3522 27.8999 10.534 27.7032C10.7159 27.5064 10.818 27.2395 10.818 26.9613C10.818 26.683 10.7159 26.4162 10.534 26.2194C10.3522 26.0226 10.1055 25.9121 9.84833 25.9121Z" fill="#1774E5"/>
<path id="Vector_3" d="M9.84833 29.5845H4.99985C4.74267 29.5845 4.49602 29.695 4.31417 29.8918C4.13232 30.0885 4.03015 30.3554 4.03015 30.6337C4.03015 30.9119 4.13232 31.1788 4.31417 31.3755C4.49602 31.5723 4.74267 31.6828 4.99985 31.6828H9.84833C10.1055 31.6828 10.3522 31.5723 10.534 31.3755C10.7159 31.1788 10.818 30.9119 10.818 30.6337C10.818 30.3554 10.7159 30.0885 10.534 29.8918C10.3522 29.695 10.1055 29.5845 9.84833 29.5845Z" fill="#1774E5"/>
<path id="Vector_4" d="M9.84833 22.2402H4.99985C4.74267 22.2402 4.49602 22.3508 4.31417 22.5475C4.13232 22.7443 4.03015 23.0112 4.03015 23.2894C4.03015 23.5677 4.13232 23.8345 4.31417 24.0313C4.49602 24.2281 4.74267 24.3386 4.99985 24.3386H9.84833C10.1055 24.3386 10.3522 24.2281 10.534 24.0313C10.7159 23.8345 10.818 23.5677 10.818 23.2894C10.818 23.0112 10.7159 22.7443 10.534 22.5475C10.3522 22.3508 10.1055 22.2402 9.84833 22.2402Z" fill="#1774E5"/>
<path id="Vector_5" d="M17.6059 31.6828C17.6059 31.9611 17.7081 32.2279 17.8899 32.4247C18.0718 32.6214 18.3184 32.732 18.5756 32.732C18.8328 32.732 19.0794 32.6214 19.2613 32.4247C19.4431 32.2279 19.5453 31.9611 19.5453 31.6828V21.191C19.5453 20.9127 19.6475 20.6459 19.8293 20.4491C20.0112 20.2524 20.2578 20.1418 20.515 20.1418H29.2423C29.4994 20.1418 29.7461 20.2524 29.9279 20.4491C30.1098 20.6459 30.212 20.9127 30.212 21.191V31.6828C30.212 31.9611 30.3141 32.2279 30.496 32.4247C30.6778 32.6214 30.9245 32.732 31.1817 32.732C31.4388 32.732 31.6855 32.6214 31.8673 32.4247C32.0492 32.2279 32.1514 31.9611 32.1514 31.6828V21.191C32.1514 20.3562 31.8449 19.5556 31.2993 18.9653C30.7537 18.3751 30.0138 18.0435 29.2423 18.0435H20.515C19.7434 18.0435 19.0035 18.3751 18.4579 18.9653C17.9124 19.5556 17.6059 20.3562 17.6059 21.191V31.6828Z" fill="#1774E5"/>
<path id="Vector_6" d="M27.3029 25.9121H22.4544C22.1972 25.9121 21.9506 26.0226 21.7687 26.2194C21.5868 26.4162 21.4847 26.683 21.4847 26.9613C21.4847 27.2395 21.5868 27.5064 21.7687 27.7032C21.9506 27.8999 22.1972 28.0105 22.4544 28.0105H27.3029C27.56 28.0105 27.8067 27.8999 27.9885 27.7032C28.1704 27.5064 28.2726 27.2395 28.2726 26.9613C28.2726 26.683 28.1704 26.4162 27.9885 26.2194C27.8067 26.0226 27.56 25.9121 27.3029 25.9121Z" fill="#1774E5"/>
<path id="Vector_7" d="M27.3029 29.5845H22.4544C22.1972 29.5845 21.9506 29.695 21.7687 29.8918C21.5868 30.0885 21.4847 30.3554 21.4847 30.6337C21.4847 30.9119 21.5868 31.1788 21.7687 31.3755C21.9506 31.5723 22.1972 31.6828 22.4544 31.6828H27.3029C27.56 31.6828 27.8067 31.5723 27.9885 31.3755C28.1704 31.1788 28.2726 30.9119 28.2726 30.6337C28.2726 30.3554 28.1704 30.0885 27.9885 29.8918C27.8067 29.695 27.56 29.5845 27.3029 29.5845Z" fill="#1774E5"/>
<path id="Vector_8" d="M27.3029 22.2402H22.4544C22.1972 22.2402 21.9506 22.3508 21.7687 22.5475C21.5868 22.7443 21.4847 23.0112 21.4847 23.2894C21.4847 23.5677 21.5868 23.8345 21.7687 24.0313C21.9506 24.2281 22.1972 24.3386 22.4544 24.3386H27.3029C27.56 24.3386 27.8067 24.2281 27.9885 24.0313C28.1704 23.8345 28.2726 23.5677 28.2726 23.2894C28.2726 23.0112 28.1704 22.7443 27.9885 22.5475C27.8067 22.3508 27.56 22.2402 27.3029 22.2402Z" fill="#1774E5"/>
<path id="Vector_9" d="M3.06046 15.4205H11.7877C12.5593 15.4205 13.2992 15.0888 13.8448 14.4986C14.3903 13.9083 14.6968 13.1077 14.6968 12.2729V1.78111C14.6968 1.50285 14.5947 1.23599 14.4128 1.03923C14.231 0.842472 13.9843 0.731934 13.7271 0.731934C13.4699 0.731934 13.2233 0.842472 13.0414 1.03923C12.8596 1.23599 12.7574 1.50285 12.7574 1.78111V12.2729C12.7574 12.5512 12.6553 12.818 12.4734 13.0148C12.2916 13.2116 12.0449 13.3221 11.7877 13.3221H3.06046C2.80328 13.3221 2.55663 13.2116 2.37478 13.0148C2.19293 12.818 2.09076 12.5512 2.09076 12.2729V1.78111C2.09076 1.50285 1.9886 1.23599 1.80674 1.03923C1.62489 0.842472 1.37824 0.731934 1.12106 0.731934C0.863885 0.731934 0.617238 0.842472 0.435385 1.03923C0.253531 1.23599 0.151367 1.50285 0.151367 1.78111V12.2729C0.151367 13.1077 0.45786 13.9083 1.00342 14.4986C1.54898 15.0888 2.28892 15.4205 3.06046 15.4205Z" fill="#1774E5"/>
<path id="Vector_10" d="M4.99985 7.55149H9.84833C10.1055 7.55149 10.3522 7.44095 10.534 7.24419C10.7159 7.04743 10.818 6.78057 10.818 6.50231C10.818 6.22405 10.7159 5.95718 10.534 5.76042C10.3522 5.56366 10.1055 5.45312 9.84833 5.45312H4.99985C4.74267 5.45312 4.49602 5.56366 4.31417 5.76042C4.13232 5.95718 4.03015 6.22405 4.03015 6.50231C4.03015 6.78057 4.13232 7.04743 4.31417 7.24419C4.49602 7.44095 4.74267 7.55149 4.99985 7.55149Z" fill="#1774E5"/>
<path id="Vector_11" d="M4.99985 3.87961H9.84833C10.1055 3.87961 10.3522 3.76907 10.534 3.57231C10.7159 3.37555 10.818 3.10869 10.818 2.83043C10.818 2.55217 10.7159 2.28531 10.534 2.08855C10.3522 1.89179 10.1055 1.78125 9.84833 1.78125H4.99985C4.74267 1.78125 4.49602 1.89179 4.31417 2.08855C4.13232 2.28531 4.03015 2.55217 4.03015 2.83043C4.03015 3.10869 4.13232 3.37555 4.31417 3.57231C4.49602 3.76907 4.74267 3.87961 4.99985 3.87961Z" fill="#1774E5"/>
<path id="Vector_12" d="M4.99985 11.2238H9.84833C10.1055 11.2238 10.3522 11.1133 10.534 10.9166C10.7159 10.7198 10.818 10.4529 10.818 10.1747C10.818 9.89641 10.7159 9.62955 10.534 9.43279C10.3522 9.23603 10.1055 9.12549 9.84833 9.12549H4.99985C4.74267 9.12549 4.49602 9.23603 4.31417 9.43279C4.13232 9.62955 4.03015 9.89641 4.03015 10.1747C4.03015 10.4529 4.13232 10.7198 4.31417 10.9166C4.49602 11.1133 4.74267 11.2238 4.99985 11.2238Z" fill="#1774E5"/>
<path id="Vector_13" d="M18.5756 0.731934C18.3184 0.731934 18.0718 0.842472 17.8899 1.03923C17.7081 1.23599 17.6059 1.50285 17.6059 1.78111V12.2729C17.6059 13.1077 17.9124 13.9083 18.4579 14.4986C19.0035 15.0888 19.7434 15.4205 20.515 15.4205H29.2423C30.0138 15.4205 30.7537 15.0888 31.2993 14.4986C31.8449 13.9083 32.1514 13.1077 32.1514 12.2729V1.78111C32.1514 1.50285 32.0492 1.23599 31.8673 1.03923C31.6855 0.842472 31.4388 0.731934 31.1817 0.731934C30.9245 0.731934 30.6778 0.842472 30.496 1.03923C30.3141 1.23599 30.212 1.50285 30.212 1.78111V12.2729C30.212 12.5512 30.1098 12.818 29.9279 13.0148C29.7461 13.2116 29.4994 13.3221 29.2423 13.3221H20.515C20.2578 13.3221 20.0112 13.2116 19.8293 13.0148C19.6475 12.818 19.5453 12.5512 19.5453 12.2729V1.78111C19.5453 1.50285 19.4431 1.23599 19.2613 1.03923C19.0794 0.842472 18.8328 0.731934 18.5756 0.731934Z" fill="#1774E5"/>
<path id="Vector_14" d="M22.4544 7.55149H27.3029C27.56 7.55149 27.8067 7.44095 27.9885 7.24419C28.1704 7.04743 28.2726 6.78057 28.2726 6.50231C28.2726 6.22405 28.1704 5.95718 27.9885 5.76042C27.8067 5.56366 27.56 5.45312 27.3029 5.45312H22.4544C22.1972 5.45312 21.9506 5.56366 21.7687 5.76042C21.5868 5.95718 21.4847 6.22405 21.4847 6.50231C21.4847 6.78057 21.5868 7.04743 21.7687 7.24419C21.9506 7.44095 22.1972 7.55149 22.4544 7.55149Z" fill="#1774E5"/>
<path id="Vector_15" d="M22.4544 3.87961H27.3029C27.56 3.87961 27.8067 3.76907 27.9885 3.57231C28.1704 3.37555 28.2726 3.10869 28.2726 2.83043C28.2726 2.55217 28.1704 2.28531 27.9885 2.08855C27.8067 1.89179 27.56 1.78125 27.3029 1.78125H22.4544C22.1972 1.78125 21.9506 1.89179 21.7687 2.08855C21.5868 2.28531 21.4847 2.55217 21.4847 2.83043C21.4847 3.10869 21.5868 3.37555 21.7687 3.57231C21.9506 3.76907 22.1972 3.87961 22.4544 3.87961Z" fill="#1774E5"/>
<path id="Vector_16" d="M22.4544 11.2238H27.3029C27.56 11.2238 27.8067 11.1133 27.9885 10.9166C28.1704 10.7198 28.2726 10.4529 28.2726 10.1747C28.2726 9.89641 28.1704 9.62955 27.9885 9.43279C27.8067 9.23603 27.56 9.12549 27.3029 9.12549H22.4544C22.1972 9.12549 21.9506 9.23603 21.7687 9.43279C21.5868 9.62955 21.4847 9.89641 21.4847 10.1747C21.4847 10.4529 21.5868 10.7198 21.7687 10.9166C21.9506 11.1133 22.1972 11.2238 22.4544 11.2238Z" fill="#1774E5"/>
</g>
</svg>
