<svg width="43" height="43" viewBox="0 0 43 43" fill="none" xmlns="http://www.w3.org/2000/svg">
<path d="M24.0769 37.7912C24.1054 36.5556 24.6891 35.8 25.4291 35.7481C29.7041 35.4485 35.6141 35.4485 39.8892 35.7481C40.6291 35.8 41.2128 36.5556 41.2413 37.7912C41.2455 37.9735 41.2479 38.1716 41.2479 38.3865C41.2479 38.6015 41.2455 38.7995 41.2413 38.9818C41.2128 40.2174 40.6291 40.973 39.8892 41.0248C35.6141 41.3244 29.7041 41.3244 25.4291 41.0248C24.6891 40.973 24.1054 40.2174 24.0769 38.9818C24.0727 38.7995 24.0703 38.6015 24.0703 38.3865C24.0703 38.1716 24.0727 37.9735 24.0769 37.7912Z" stroke="#1774E5" stroke-width="2.5" stroke-linejoin="round"/>
<path d="M24.0769 26.7122C24.1054 25.4766 24.6891 24.7209 25.4291 24.6691C29.7041 24.3694 35.6141 24.3695 39.8892 24.6691C40.6291 24.7209 41.2128 25.4766 41.2413 26.7122C41.2455 26.8944 41.2479 27.0924 41.2479 27.3074C41.2479 27.5223 41.2455 27.7204 41.2413 27.9026C41.2128 29.1383 40.6291 29.8938 39.8892 29.9457C35.6141 30.2454 29.7041 30.2454 25.4291 29.9457C24.6891 29.8938 24.1054 29.1383 24.0769 27.9026C24.0727 27.7204 24.0703 27.5223 24.0703 27.3074C24.0703 27.0924 24.0727 26.8944 24.0769 26.7122Z" fill="#1774E5" stroke="#1774E5" stroke-width="2.5" stroke-linejoin="round"/>
<path d="M40.9901 5.09864C40.7377 2.97853 38.863 1.56854 36.6183 1.48593C33.5742 1.37391 28.5558 1.25 21.25 1.25C13.9442 1.25 8.92584 1.37391 5.88168 1.48593C3.63699 1.56854 1.76226 2.97852 1.50983 5.09863C1.36233 6.33752 1.25 7.9324 1.25 9.91667C1.25 11.901 1.36233 13.4958 1.50983 14.7347C1.76226 16.8548 3.637 18.2648 5.88168 18.3475C8.92584 18.4594 13.9442 18.5833 21.25 18.5833C28.5558 18.5833 33.5742 18.4594 36.6183 18.3475C38.863 18.2648 40.7377 16.8549 40.9901 14.7347C41.1377 13.4958 41.25 11.901 41.25 9.91667C41.25 7.9324 41.1377 6.33753 40.9901 5.09864Z" stroke="#1774E5" stroke-width="2.5" stroke-linejoin="round"/>
<path d="M1.37854 37.5277C1.48944 39.5102 3.03729 41.0174 5.0731 41.1254C6.39629 41.1956 8.13033 41.2506 10.316 41.2506C12.5016 41.2506 14.2356 41.1956 15.5588 41.1254C17.5946 41.0174 19.1425 39.5102 19.2534 37.5277C19.3255 36.2392 19.382 34.5505 19.382 32.4222C19.382 30.2938 19.3255 28.6052 19.2534 27.3166C19.1425 25.3342 17.5946 23.8269 15.5588 23.7189C14.2356 23.6488 12.5016 23.5938 10.316 23.5938C8.13033 23.5938 6.39629 23.6488 5.07311 23.7189C3.0373 23.8269 1.48945 25.3342 1.37855 27.3166C1.30646 28.6052 1.25 30.2938 1.25 32.4222C1.25 34.5505 1.30646 36.2391 1.37854 37.5277Z" stroke="#1774E5" stroke-width="2.5" stroke-linejoin="round"/>
</svg>
