<svg width="40" height="40" viewBox="0 0 40 40" fill="none" xmlns="http://www.w3.org/2000/svg">
<path fill-rule="evenodd" clip-rule="evenodd" d="M28.5957 7.86914C29.0788 8.9053 29.7983 9.80907 30.6848 10.5111L23.3925 18.25H28.1048C27.9815 18.7815 27.9163 19.3351 27.9163 19.9041C27.9163 20.482 27.9835 21.0441 28.1107 21.5833H23.3932L30.7757 29.4178C29.8808 30.1038 29.1497 30.9924 28.6507 32.0153C28.6177 31.9854 28.5855 31.9539 28.5543 31.9209L19.0054 21.7873C19.1112 21.1796 19.1664 20.5545 19.1664 19.9166C19.1664 19.2785 19.1112 18.6531 19.0054 18.0453L28.5543 7.91151C28.568 7.89709 28.5818 7.88297 28.5957 7.86914Z" fill="#1774E5"/>
<path d="M35.2085 31.417C37.3023 31.4172 38.9994 33.1142 38.9995 35.208C38.9995 37.3019 37.3024 38.9998 35.2085 39C33.1145 39 31.4165 37.302 31.4165 35.208C31.4166 33.1141 33.1145 31.417 35.2085 31.417ZM35.2085 1C37.3024 1.00019 38.9995 2.69804 38.9995 4.79199C38.9993 6.88579 37.3023 8.58282 35.2085 8.58301C33.1146 8.58301 31.4167 6.8859 31.4165 4.79199C31.4165 2.69792 33.1145 1 35.2085 1Z" stroke="#1774E5" stroke-width="2"/>
<path d="M39.9998 19.904C39.9998 22.5503 37.8545 24.6957 35.2082 24.6957C32.5618 24.6957 30.4165 22.5503 30.4165 19.904C30.4165 17.2575 32.5618 15.1123 35.2082 15.1123C37.8545 15.1123 39.9998 17.2575 39.9998 19.904Z" fill="#1774E5"/>
<path d="M16.6666 19.9173C16.6666 24.5197 12.9357 28.2506 8.3333 28.2506C3.73095 28.2506 0 24.5197 0 19.9173C0 15.3149 3.73095 11.584 8.3333 11.584C12.9357 11.584 16.6666 15.3149 16.6666 19.9173Z" fill="#1774E5"/>
</svg>
