<svg width="33" height="33" viewBox="0 0 33 33" fill="none" xmlns="http://www.w3.org/2000/svg">
<g id="icon_Walkthrough">
<path id="Union" fill-rule="evenodd" clip-rule="evenodd" d="M11.1088 0.790323C9.84762 0.472984 8.63799 1.48927 8.63799 2.86623V11.6828L2.90445 13.0644C2.3667 13.194 1.90663 13.5404 1.63359 14.0215L0.412008 16.1738C0.0510697 16.8097 0.0659415 17.5919 0.450791 18.2136L1.25354 19.5105C1.71086 20.2493 2.59289 20.6083 3.43618 20.3989L8.63799 19.107V32.7315H10.6461V17.2768L27.6979 20.5947C28.4388 20.7388 29.179 20.3394 29.5064 19.6188L31.9822 14.1698C32.1923 13.7074 32.2039 13.1711 32.0142 12.6989L29.3731 6.12747C29.1645 5.60859 28.7365 5.22568 28.2197 5.09565L11.1088 0.790323ZM27.8089 18.4474L10.6461 15.1079V2.86623L27.5926 7.13021L30.1077 13.388L27.8089 18.4474Z" fill="#1774E5"/>
<path id="Fill-11" fill-rule="evenodd" clip-rule="evenodd" d="M26.5268 11.1171C26.4915 11.1171 26.4553 11.1133 26.4192 11.1052L19.1865 9.43051C18.9158 9.36737 18.744 9.08321 18.803 8.79563C18.862 8.50849 19.1279 8.32587 19.4006 8.38817L26.6336 10.0624C26.9039 10.1256 27.0758 10.4097 27.0172 10.6977C26.9658 10.9469 26.7577 11.1171 26.5268 11.1171Z" fill="#1774E5"/>
<path id="Fill-13" fill-rule="evenodd" clip-rule="evenodd" d="M23.93 13.6072C23.8947 13.6072 23.8585 13.6033 23.8224 13.5952L19.1862 12.5217C18.9159 12.459 18.744 12.1749 18.8026 11.8869C18.862 11.5993 19.1279 11.4158 19.4006 11.4794L24.0368 12.5525C24.3071 12.6156 24.479 12.8998 24.4204 13.1878C24.369 13.4369 24.1609 13.6072 23.93 13.6072Z" fill="#1774E5"/>
<path id="Fill-9" fill-rule="evenodd" clip-rule="evenodd" d="M14.9722 10.4639C14.1902 10.3073 13.5822 9.51926 13.5814 8.70262C13.5806 7.88556 14.1842 7.35734 14.9638 7.52758C15.7433 7.6974 16.3975 8.49526 16.3999 9.29782C16.4027 10.1 15.7541 10.6205 14.9722 10.4639ZM14.9597 6.17676C13.5011 5.8542 12.3284 7.06849 12.4256 8.62796C12.5874 11.2336 14.9822 13.94 14.9822 13.94C14.9822 13.94 17.5433 12.197 17.6694 9.74454C17.7449 8.27425 16.4188 6.49932 14.9597 6.17676Z" fill="#1774E5"/>
</g>
</svg>
