<svg width="196" height="82" viewBox="0 0 196 82" fill="none" xmlns="http://www.w3.org/2000/svg">
<path fill-rule="evenodd" clip-rule="evenodd" d="M110.94 4.5206C115.581 4.5206 120.548 5.8286 123.882 7.9216L122.117 12.9536C118.522 10.6006 115.188 9.4896 110.94 9.4896C102.05 9.4896 96.1012 15.6346 96.1012 25.7666C96.1012 35.8966 102.115 42.3686 111.071 42.3686C115.45 42.3686 119.765 40.6036 122.64 38.3816L123.554 43.9376C120.222 46.0296 115.515 47.3366 110.94 47.3366C98.9772 47.3366 90.4792 39.0356 90.4792 26.0266C90.4792 13.0186 99.0432 4.5206 110.94 4.5206ZM158.003 7.6909C163.437 11.2519 166.786 17.5239 166.786 25.6119C166.786 37.8169 158.304 47.1509 146.293 47.1509C141.652 47.1509 137.528 45.8849 134.215 43.5849C144.023 34.1529 151.701 23.1859 158.003 7.6909ZM35.121 5.5021V10.7321H20.805V46.3561H15.315V10.7321H1V5.5021H35.121ZM47.147 5.5025V46.3565H41.656V5.5025H47.147ZM70.3364 5.5027C80.2084 5.5027 84.5864 9.9467 84.5864 16.3527C84.5864 20.5367 82.1684 23.6087 77.5924 25.3087C83.0184 26.6807 85.8934 30.2117 85.8934 34.7877C85.8934 41.7157 81.2534 46.3557 70.7294 46.3557H56.8054V5.5027H70.3364ZM70.4024 28.4457H62.3624V41.2587H71.2524C77.3314 41.2587 80.3384 39.0997 80.3384 34.8517C80.3384 30.1447 76.1554 28.4457 70.4024 28.4457ZM155.652 6.3838C156.306 6.6898 156.936 7.0308 157.542 7.4038C151.815 19.9408 141.593 32.6348 130.554 40.2248C129.447 38.8928 128.511 37.3908 127.771 35.7298C140.608 28.8008 150.312 16.6228 155.652 6.3838ZM146.293 4.3995C149.537 4.3995 152.527 5.0165 155.167 6.1655C149.632 15.6375 138.717 26.6765 126.431 31.6835C126.019 29.8725 125.8 27.9325 125.8 25.8735C125.8 13.6685 134.284 4.3995 146.293 4.3995ZM70.7944 10.6007H62.3624V23.4127H69.9444C75.8274 23.4127 79.0304 20.7987 79.0304 16.8107C79.0304 12.8887 76.1554 10.6007 70.7944 10.6007ZM172.062 1C174.958 1 177.221 3.2777 177.333 6.06186L177.337 6.306C177.337 9.187 175.003 11.613 172.062 11.613C169.165 11.613 166.902 9.3353 166.79 6.55206L166.786 6.306C166.786 3.426 169.12 1 172.062 1ZM172.062 1.577C169.496 1.577 167.505 3.61205 167.397 6.09235L167.392 6.337C167.392 8.914 169.394 11.037 172.062 11.037C174.627 11.037 176.618 9.00195 176.726 6.51981L176.731 6.277C176.731 3.699 174.73 1.577 172.062 1.577ZM172.425 3.517C173.608 3.517 174.487 4.093 174.487 5.214C174.487 6.094 173.972 6.64 173.243 6.853L174.669 8.884H173.427L172.153 7.035H171.03V8.884H169.999V3.517H172.425ZM172.335 4.427H171.03V6.185H172.335C173.032 6.185 173.427 5.822 173.427 5.306C173.427 4.73 173.032 4.427 172.335 4.427Z" fill="#FAFAFA"/>
<path d="M2.34003 74V55.8H9.12603C14.846 55.8 18.798 59.726 18.798 64.848V64.9C18.798 70.022 14.846 74 9.12603 74H2.34003ZM9.12603 58.712H5.53803V71.088H9.12603C12.948 71.088 15.444 68.514 15.444 64.952V64.9C15.444 61.338 12.948 58.712 9.12603 58.712Z" fill="#FAFAFA"/>
<path d="M28.6059 74.312C24.6279 74.312 21.5599 71.426 21.5599 67.188V67.136C21.5599 63.21 24.3419 59.986 28.2679 59.986C32.6359 59.986 34.8459 63.418 34.8459 67.37C34.8459 67.656 34.8199 67.942 34.7939 68.254H24.7059C25.0439 70.49 26.6299 71.738 28.6579 71.738C30.1919 71.738 31.2839 71.166 32.3759 70.1L34.2219 71.738C32.9219 73.298 31.1279 74.312 28.6059 74.312ZM24.6799 66.174H31.7259C31.5179 64.146 30.3219 62.56 28.2419 62.56C26.3179 62.56 24.9659 64.042 24.6799 66.174Z" fill="#FAFAFA"/>
<path d="M41.6872 74.104L36.0452 60.272H39.4252L43.1172 70.36L46.8352 60.272H50.1372L44.5212 74.104H41.6872Z" fill="#FAFAFA"/>
<path d="M58.313 74.312C54.3349 74.312 51.2669 71.426 51.2669 67.188V67.136C51.2669 63.21 54.049 59.986 57.9749 59.986C62.3429 59.986 64.553 63.418 64.553 67.37C64.553 67.656 64.527 67.942 64.5009 68.254H54.4129C54.7509 70.49 56.3369 71.738 58.3649 71.738C59.8989 71.738 60.991 71.166 62.083 70.1L63.929 71.738C62.629 73.298 60.8349 74.312 58.313 74.312ZM54.3869 66.174H61.4329C61.2249 64.146 60.0289 62.56 57.9489 62.56C56.0249 62.56 54.6729 64.042 54.3869 66.174Z" fill="#FAFAFA"/>
<path d="M67.8943 74V55.02H71.0404V74H67.8943Z" fill="#FAFAFA"/>
<path d="M81.6778 74.312C77.4918 74.312 74.3978 71.114 74.3978 67.214V67.162C74.3978 63.236 77.5178 59.986 81.7298 59.986C85.9418 59.986 89.0358 63.184 89.0358 67.11V67.162C89.0358 71.062 85.9158 74.312 81.6778 74.312ZM81.7298 71.556C84.2778 71.556 85.8898 69.58 85.8898 67.214V67.162C85.8898 64.744 84.1478 62.742 81.6778 62.742C79.1558 62.742 77.5438 64.718 77.5438 67.11V67.162C77.5438 69.554 79.2858 71.556 81.7298 71.556Z" fill="#FAFAFA"/>
<path d="M92.2397 78.16V60.272H95.3857V62.56C96.3997 61.13 97.8297 59.986 100.066 59.986C103.29 59.986 106.436 62.534 106.436 67.11V67.162C106.436 71.712 103.316 74.286 100.066 74.286C97.7777 74.286 96.3477 73.142 95.3857 71.868V78.16H92.2397ZM99.3117 71.556C101.47 71.556 103.238 69.866 103.238 67.162V67.11C103.238 64.458 101.444 62.716 99.3117 62.716C97.1797 62.716 95.3077 64.484 95.3077 67.11V67.162C95.3077 69.788 97.1797 71.556 99.3117 71.556Z" fill="#FAFAFA"/>
<path d="M115.975 74.312C111.997 74.312 108.929 71.426 108.929 67.188V67.136C108.929 63.21 111.711 59.986 115.637 59.986C120.005 59.986 122.215 63.418 122.215 67.37C122.215 67.656 122.189 67.942 122.163 68.254H112.075C112.413 70.49 113.999 71.738 116.027 71.738C117.561 71.738 118.653 71.166 119.745 70.1L121.591 71.738C120.291 73.298 118.497 74.312 115.975 74.312ZM112.049 66.174H119.095C118.887 64.146 117.691 62.56 115.611 62.56C113.687 62.56 112.335 64.042 112.049 66.174Z" fill="#FAFAFA"/>
<path d="M125.374 74V60.272H128.52V63.366C129.378 61.312 130.964 59.908 133.382 60.012V63.34H133.2C130.444 63.34 128.52 65.134 128.52 68.774V74H125.374Z" fill="#FAFAFA"/>
<path d="M144.274 74V55.8H147.472V63.366H156.156V55.8H159.354V74H156.156V66.33H147.472V74H144.274Z" fill="#FAFAFA"/>
<path d="M168.396 74.286C165.302 74.286 163.508 72.206 163.508 69.008V60.272H166.654V68.072C166.654 70.204 167.72 71.4 169.592 71.4C171.412 71.4 172.686 70.152 172.686 68.02V60.272H175.858V74H172.686V71.868C171.802 73.168 170.528 74.286 168.396 74.286Z" fill="#FAFAFA"/>
<path d="M187.613 74.286C185.325 74.286 183.895 73.142 182.933 71.868V74H179.787V55.02H182.933V62.56C183.947 61.13 185.377 59.986 187.613 59.986C190.837 59.986 193.983 62.534 193.983 67.11V67.162C193.983 71.712 190.863 74.286 187.613 74.286ZM186.859 71.556C189.017 71.556 190.785 69.866 190.785 67.162V67.11C190.785 64.458 188.991 62.716 186.859 62.716C184.727 62.716 182.855 64.484 182.855 67.11V67.162C182.855 69.788 184.727 71.556 186.859 71.556Z" fill="#FAFAFA"/>
</svg>
