<svg width="104" height="44" fill="none" xmlns="http://www.w3.org/2000/svg"><path fill-rule="evenodd" clip-rule="evenodd" d="M96.721 3.1v-.018C96.721 1.41 98.073 0 99.786 0a3.058 3.058 0 013.064 3.064v.018c0 1.671-1.352 3.082-3.064 3.082a3.058 3.058 0 01-3.065-3.065zm5.769-.018v-.018c0-1.497-1.161-2.727-2.71-2.727-1.532 0-2.71 1.247-2.71 2.745v.017c0 1.498 1.16 2.728 2.71 2.728 1.532 0 2.71-1.254 2.71-2.745zm-3.906-1.62h1.41c.685 0 1.196.337 1.196.987 0 .51-.302.83-.72.952l.83 1.178h-.719l-.737-1.074h-.65V4.58h-.61V1.463zm1.358 1.544c.407 0 .633-.209.633-.51 0-.337-.226-.511-.633-.511h-.754v1.021h.754zm-9.965-.005c-1.532-.668-3.267-1.028-5.148-1.028-6.97 0-11.892 5.38-11.892 12.461 0 1.196.128 2.322.366 3.372 7.127-2.902 13.459-9.31 16.674-14.805zM70.796 6.936c-2.084-1.364-4.022-2.009-6.489-2.009-5.16 0-8.613 3.564-8.613 9.449 0 5.88 3.488 9.634 8.688 9.634 2.542 0 5.044-1.021 6.715-2.315l.529 3.227c-1.933 1.212-4.667 1.973-7.319 1.973-6.941 0-11.875-4.817-11.875-12.368 0-7.55 4.968-12.484 11.875-12.484 2.693 0 5.577.76 7.51 1.973l-1.021 2.92zM11.997 5.647V26.32H8.811V5.647H.5V2.612h19.803v3.035h-8.306zM24.098 26.32V2.612h3.187V26.32h-3.187zm16.872.006c6.105 0 8.798-2.693 8.798-6.715 0-2.658-1.665-4.707-4.81-5.502 2.651-.987 4.056-2.774 4.056-5.2 0-3.72-2.542-6.297-8.27-6.297H32.89v23.714h8.079zM36.112 5.572h4.893c3.116 0 4.782 1.329 4.782 3.604 0 2.316-1.863 3.83-5.276 3.83h-4.399V5.572zm0 10.36h4.666c3.343 0 5.77.98 5.77 3.714 0 2.466-1.748 3.72-5.276 3.72h-5.16v-7.435zm54.144-12.81c.377.18.743.378 1.097.592-3.32 7.278-9.257 14.643-15.665 19.054a11.454 11.454 0 01-1.613-2.611c7.452-4.023 13.081-11.092 16.18-17.035zm-12.444 21.59C83.506 19.24 87.963 12.88 91.62 3.883c3.157 2.067 5.101 5.706 5.095 10.401 0 7.087-4.921 12.502-11.892 12.502-2.693 0-5.09-.738-7.01-2.073zM40.641 32.5h1.6v9.468h-1.6V32.5zM8 32.89h3.372c2.854 0 4.799 1.945 4.799 4.495v.044c0 2.55-1.989 4.539-4.799 4.539H8v-9.079zm1.6 1.426v6.182h1.772c1.902 0 3.156-1.297 3.156-3.07v-.043c0-1.772-1.254-3.07-3.156-3.07H9.6zm7.955 4.237c0-1.99 1.383-3.589 3.329-3.589 2.161 0 3.285 1.73 3.285 3.675 0 .13 0 .303-.043.432h-5.015c.173 1.125.951 1.73 1.989 1.73.778 0 1.297-.303 1.859-.822l.908.822c-.649.778-1.557 1.297-2.81 1.297-1.946 0-3.502-1.427-3.502-3.545zm5.058-.52c-.087-.994-.692-1.815-1.73-1.815-.95 0-1.642.735-1.772 1.816h3.502zm3.848-2.939h-1.686l2.81 6.917h1.426l2.81-6.917H30.18l-1.86 5.058-1.858-5.058zm5.922 3.459c0-1.99 1.384-3.589 3.33-3.589 2.161 0 3.285 1.73 3.285 3.675 0 .13 0 .303-.043.432H33.94c.173 1.125.951 1.73 1.989 1.73.778 0 1.297-.303 1.859-.822l.908.822c-.649.778-1.557 1.297-2.81 1.297-1.99 0-3.503-1.427-3.503-3.545zm5.059-.52c-.087-.994-.692-1.815-1.73-1.815-.95 0-1.642.735-1.772 1.816h3.502zm6.485.52c0-1.99 1.556-3.589 3.675-3.589 2.118 0 3.631 1.6 3.631 3.545v.044c0 1.945-1.556 3.545-3.675 3.545-2.118 0-3.631-1.6-3.631-3.545zm5.706 0c0-1.21-.864-2.248-2.118-2.248s-2.075.994-2.075 2.161v.043c0 1.21.864 2.205 2.075 2.205 1.34 0 2.118-.95 2.118-2.161zm4.756-3.459h-1.6V44h1.6v-3.156c.476.648 1.21 1.21 2.335 1.21 1.6 0 3.156-1.297 3.156-3.545v-.043c0-2.291-1.557-3.545-3.156-3.545-1.124 0-1.816.605-2.335 1.297v-1.124zm1.946 1.254c1.037 0 1.945.864 1.945 2.205 0 1.34-.864 2.161-1.945 2.248-1.038 0-1.99-.908-1.99-2.205v-.043c0-1.34.909-2.205 1.99-2.205zm4.798 2.205c0-1.99 1.384-3.589 3.33-3.589 2.161 0 3.285 1.73 3.285 3.675 0 .13 0 .303-.043.432H62.69c.173 1.125.951 1.73 1.989 1.73.778 0 1.297-.303 1.859-.822l.908.822c-.649.778-1.557 1.297-2.81 1.297-1.99 0-3.502-1.427-3.502-3.545zm5.059-.52c-.087-.994-.692-1.815-1.73-1.815-.95 0-1.642.735-1.772 1.816h3.502zm4.712-2.939h-1.6v6.83h1.6v-2.593c0-1.816.951-2.724 2.335-2.724h.086v-1.643c-1.21-.043-1.989.649-2.42 1.686v-1.556zm7.825-2.205h1.6v3.761h4.323v-3.76h1.6v9.078h-1.6V38.12H80.33v3.848h-1.6v-9.079zm9.598 2.205v4.367c0 1.6.865 2.637 2.464 2.593 1.038 0 1.686-.562 2.119-1.21v1.08h1.6v-6.83h-1.6v3.848c0 1.08-.649 1.686-1.557 1.686-.95 0-1.47-.562-1.47-1.643v-3.891h-1.556zm9.684 5.793v1.081h-1.6V32.5h1.6v3.761c.52-.691 1.21-1.297 2.335-1.297 1.6 0 3.156 1.254 3.156 3.545v.044c0 2.248-1.556 3.545-3.156 3.545-1.167 0-1.86-.562-2.335-1.21zm3.891-2.334c0-1.34-.908-2.205-1.945-2.205-1.081 0-1.989.864-1.989 2.205v.043c0 1.297.951 2.205 1.989 2.205 1.081-.087 1.945-.908 1.945-2.248z" fill="#fff"/></svg>