<svg width="25" height="25" viewBox="0 0 25 25" fill="none" xmlns="http://www.w3.org/2000/svg">
<path d="M13.4111 10.6318C15.7307 10.6318 17.6113 12.5124 17.6113 14.832V21.6318H7.61133V14.832C7.61133 12.5124 9.49193 10.6318 11.8115 10.6318H13.4111ZM6.61133 12.6318C6.80852 12.6364 7.00408 12.6697 7.19141 12.7314C6.8145 13.3673 6.61419 14.0929 6.61133 14.832V18.6318H2.61133V14.6318C2.61133 13.5273 3.50676 12.6318 4.61133 12.6318H6.61133ZM20.6113 12.6318C21.7159 12.6318 22.6113 13.5273 22.6113 14.6318V18.6318H18.6113V14.832C18.6085 14.0929 18.4082 13.3673 18.0312 12.7314C18.2186 12.6697 18.4141 12.6364 18.6113 12.6318H20.6113ZM5.61133 7.63184C6.7159 7.63184 7.61133 8.52727 7.61133 9.63184C7.61133 10.7364 6.7159 11.6318 5.61133 11.6318C4.50676 11.6318 3.61133 10.7364 3.61133 9.63184C3.61133 8.52727 4.50676 7.63184 5.61133 7.63184ZM19.6113 7.63184C20.7159 7.63184 21.6113 8.52727 21.6113 9.63184C21.6113 10.7364 20.7159 11.6318 19.6113 11.6318C18.5068 11.6318 17.6113 10.7364 17.6113 9.63184C17.6113 8.52727 18.5068 7.63184 19.6113 7.63184ZM12.6113 3.63184C14.2682 3.63184 15.6113 4.97498 15.6113 6.63184C15.6113 8.28869 14.2682 9.63184 12.6113 9.63184C10.9545 9.63184 9.61133 8.28869 9.61133 6.63184C9.61133 4.97498 10.9545 3.63184 12.6113 3.63184Z" fill="#727272"/>
</svg>
