<svg width="24" height="24" viewBox="0 0 100 100" fill="none" xmlns="http://www.w3.org/2000/svg">
<path fill-rule="evenodd" clip-rule="evenodd" d="M2.89606 4.78262C3.77516 5.54904 4.48349 6.00899 4.99651 6.29004C4.58114 6.03465 4.06835 5.70252 3.57986 5.24257C2.77388 4.52698 0.893268 2.30422 1.35723 0.336847C1.52824 -0.327416 1.7969 0.23469 1.87025 0.336847C1.94337 0.439003 2.55405 1.74211 3.26237 3.01956C3.60415 3.63275 3.94617 4.19485 4.28819 4.68046C4.09265 4.27159 3.995 3.96488 3.94617 3.78623C3.72634 2.94307 3.70204 2.12532 3.84852 1.69103C3.995 1.28216 4.19053 1.20542 4.26365 1.20542C4.36131 1.23108 4.23936 2.20206 4.70332 4.0927C4.87433 4.8337 5.24064 5.67686 5.485 6.2133C5.53383 5.93225 5.63148 5.67686 5.80249 5.47255C5.87561 5.34473 5.97326 5.24257 6.09544 5.14041C6.3641 4.91044 6.68159 4.73154 7.07243 4.68046C6.8283 4.55265 6.60847 4.42483 6.58394 4.42483C6.58394 4.42483 6.51058 4.39941 6.53511 4.32267C6.55964 4.24593 6.75494 4.27159 7.31679 4.60372C6.85259 4.29726 6.77947 4.24593 6.77947 4.24593L6.73041 4.22051C6.73041 4.22051 6.68159 4.19485 6.73041 4.16944C6.75494 4.14377 6.85259 4.14377 6.97478 4.19485C7.04813 4.24593 7.19461 4.32267 7.31679 4.39941C7.17008 4.27159 7.14578 4.27159 7.14578 4.27159L7.0236 4.16944C7.0236 4.16944 6.99907 4.14377 7.0236 4.11836C7.04813 4.0927 7.12125 4.0927 7.21891 4.16944C7.29226 4.24593 7.6831 4.62939 7.7074 4.70588C7.97606 4.73154 8.34237 4.91044 8.53791 5.19149C8.61103 5.14041 8.68438 5.11475 8.75774 5.14041H8.80657H8.85539C8.87969 5.14041 8.87969 5.14041 8.87969 5.16583L8.90422 5.19149L8.92875 5.21691L8.95304 5.24257C9.07522 5.37014 9.09952 5.54904 9.00187 5.67686C9.51489 5.54904 10.0522 5.49796 10.6138 5.49796C11.542 5.49796 12.4213 5.67686 13.2273 6.00899C12.6166 5.83009 11.9817 5.7536 11.3221 5.7536C10.5407 5.7536 9.78355 5.88117 9.07522 6.11115C9.00187 6.13681 8.90422 6.16222 8.83086 6.18789C8.53791 6.34112 8.26925 6.52002 8.00059 6.74999C7.97606 6.77541 7.97606 6.77541 7.95176 6.80107C7.78075 7.08212 7.58545 7.38884 7.31679 7.74639C6.95025 8.28308 6.46175 8.43631 5.85132 8.43631C5.485 8.43631 5.28947 8.35957 5.02081 8.20634C4.97198 8.25742 4.53231 8.53847 4.41013 8.61521C4.28819 8.6917 4.19053 8.66629 4.166 8.64063C4.14147 8.61521 4.166 8.58955 4.166 8.58955L4.33701 8.48739C4.33701 8.48739 4.36131 8.48739 4.55684 8.33416C4.38584 8.41065 4.166 8.51305 4.09265 8.53847C3.92188 8.61521 3.79969 8.58955 3.77516 8.53847C3.75087 8.51305 3.77516 8.48739 3.79969 8.46198C3.82399 8.46198 3.87281 8.43631 3.87281 8.43631C3.87281 8.43631 3.9707 8.38523 4.62996 8.10418C3.84852 8.43631 3.57986 8.41065 3.55533 8.33416C3.53103 8.25742 3.62868 8.232 3.65322 8.232C3.65322 8.232 4.14147 8.0531 4.53231 7.92528L4.50802 7.89987C4.53231 7.64423 4.55684 7.46533 4.72785 7.18428C4.09265 7.46533 3.18902 7.64423 2.23656 7.43992C1.52824 7.28644 1.21075 6.90323 1.28411 6.74999C1.38176 6.52002 3.14019 6.80107 4.31248 6.82673C3.36003 6.77541 1.9922 6.46894 1.08857 5.83009C0.478131 5.39581 0.355949 4.93586 0.478131 4.8337C0.673434 4.6548 2.50522 5.77902 3.55533 6.23897C3.9707 6.41786 4.45919 6.54568 4.80097 6.59676C4.53231 6.54568 4.21483 6.46894 3.84852 6.31571C2.89606 5.93225 0.47813 4.68046 0.258297 2.73851C0.209472 2.15099 0.624607 2.53419 0.722259 2.63635C1.1131 3.01956 1.87025 3.88838 2.89606 4.78262Z" fill="#0E2D65"/>
</svg>
