<svg width="17" height="16" viewBox="0 0 17 16" fill="none" xmlns="http://www.w3.org/2000/svg">
<circle cx="8.87793" cy="8" r="7.5" stroke="#0E2D65"/>
<path fill-rule="evenodd" clip-rule="evenodd" d="M6.11433 7.79239C6.99342 8.55881 7.70175 9.01876 8.21477 9.29981C7.7994 9.04442 7.28661 8.71229 6.79812 8.25234C5.99214 7.53675 4.11153 5.31399 4.57549 3.34661C4.7465 2.68235 5.01516 3.24446 5.08851 3.34661C5.16163 3.44877 5.77231 4.75188 6.48064 6.02933C6.82242 6.64251 7.16443 7.20462 7.50645 7.69023C7.31091 7.28136 7.21326 6.97464 7.16443 6.79599C6.9446 5.95283 6.9203 5.13509 7.06678 4.7008C7.21326 4.29193 7.4088 4.21519 7.48192 4.21519C7.57957 4.24085 7.45762 5.21183 7.92158 7.10246C8.09259 7.84346 8.4589 8.68662 8.70327 9.22307C8.75209 8.94202 8.84974 8.68662 9.02075 8.48231C9.09387 8.35449 9.19152 8.25234 9.3137 8.15018C9.58236 7.92021 9.89985 7.74131 10.2907 7.69023C10.0466 7.56241 9.82673 7.43459 9.8022 7.43459C9.8022 7.43459 9.72884 7.40918 9.75337 7.33244C9.7779 7.2557 9.97321 7.28136 10.5351 7.61349C10.0709 7.30702 9.99774 7.2557 9.99774 7.2557L9.94867 7.23028C9.94867 7.23028 9.89985 7.20462 9.94867 7.1792C9.97321 7.15354 10.0709 7.15354 10.193 7.20462C10.2664 7.2557 10.4129 7.33244 10.5351 7.40918C10.3883 7.28136 10.364 7.28136 10.364 7.28136L10.2419 7.1792C10.2419 7.1792 10.2173 7.15354 10.2419 7.12812C10.2664 7.10246 10.3395 7.10246 10.4372 7.1792C10.5105 7.2557 10.9014 7.63915 10.9257 7.71565C11.1943 7.74131 11.5606 7.92021 11.7562 8.20126C11.8293 8.15018 11.9026 8.12452 11.976 8.15018H12.0248H12.0737C12.0979 8.15018 12.0979 8.15018 12.0979 8.1756L12.1225 8.20126L12.147 8.22667L12.1713 8.25234C12.2935 8.37991 12.3178 8.55881 12.2201 8.68662C12.7332 8.55881 13.2705 8.50773 13.8321 8.50773C14.7602 8.50773 15.6396 8.68662 16.4456 9.01876C15.8349 8.83986 15.1999 8.76336 14.5404 8.76336C13.759 8.76336 13.0018 8.89094 12.2935 9.12091C12.2201 9.14657 12.1225 9.17199 12.0491 9.19765C11.7562 9.35089 11.4875 9.52978 11.2188 9.75976C11.1943 9.78517 11.1943 9.78517 11.17 9.81084C10.999 10.0919 10.8037 10.3986 10.5351 10.7562C10.1685 11.2928 9.68002 11.4461 9.06958 11.4461C8.70327 11.4461 8.50773 11.3693 8.23907 11.2161C8.19024 11.2672 7.75058 11.5482 7.62839 11.625C7.50645 11.7015 7.4088 11.6761 7.38426 11.6504C7.35973 11.625 7.38426 11.5993 7.38426 11.5993L7.55527 11.4972C7.55527 11.4972 7.57957 11.4972 7.77511 11.3439C7.6041 11.4204 7.38426 11.5228 7.31091 11.5482C7.14014 11.625 7.01795 11.5993 6.99342 11.5482C6.96913 11.5228 6.99342 11.4972 7.01795 11.4717C7.04225 11.4717 7.09107 11.4461 7.09107 11.4461C7.09107 11.4461 7.18896 11.395 7.84823 11.1139C7.06678 11.4461 6.79812 11.4204 6.77359 11.3439C6.7493 11.2672 6.84695 11.2418 6.87148 11.2418C6.87148 11.2418 7.35973 11.0629 7.75058 10.9351L7.72628 10.9096C7.75058 10.654 7.77511 10.4751 7.94611 10.194C7.31091 10.4751 6.40728 10.654 5.45483 10.4497C4.7465 10.2962 4.42901 9.91299 4.50237 9.75976C4.60002 9.52978 6.35845 9.81084 7.53074 9.8365C6.57829 9.78518 5.21046 9.47871 4.30683 8.83986C3.69639 8.40557 3.57421 7.94562 3.69639 7.84346C3.8917 7.66457 5.72348 8.78878 6.77359 9.24873C7.18896 9.42763 7.67745 9.55545 8.01923 9.60652C7.75058 9.55545 7.43309 9.47871 7.06678 9.32547C6.11433 8.94202 3.69639 7.69023 3.47656 5.74827C3.42773 5.16075 3.84287 5.54396 3.94052 5.64612C4.33136 6.02933 5.08851 6.89815 6.11433 7.79239Z" fill="#0E2D65"/>
<circle cx="13.8779" cy="13" r="3" fill="white"/>
<circle cx="13.8779" cy="13" r="2.25" fill="#FAB632"/>
<g clip-path="url(#clip0_9556_3106)">
<path fill-rule="evenodd" clip-rule="evenodd" d="M12.842 11.9825C12.7843 11.9444 12.7068 11.9603 12.6688 12.0179C12.6308 12.0756 12.6467 12.1532 12.7043 12.1913L12.8757 12.3045C12.8176 12.3907 12.7736 12.4837 12.7448 12.5817C12.7002 12.7333 12.6927 12.894 12.7237 13.0557C13.0242 13.0196 13.3615 12.9032 13.7067 12.7039C14.0519 12.5046 14.3214 12.2707 14.5028 12.0285C14.3784 11.9208 14.2354 11.8469 14.0818 11.8098C13.9826 11.7858 13.88 11.7773 13.7764 11.7845L13.764 11.5795C13.7598 11.5105 13.7006 11.4579 13.6316 11.462C13.5627 11.4661 13.5102 11.5254 13.5144 11.5943L13.5287 11.8311C13.441 11.858 13.3539 11.8961 13.2687 11.9453C13.1835 11.9944 13.107 12.0508 13.0398 12.1133L12.842 11.9825ZM12.6096 13.5091C12.5416 13.5209 12.4768 13.4753 12.465 13.4072C12.4531 13.3391 12.4986 13.2744 12.5667 13.2626L12.9245 13.2005C12.9416 13.1975 12.9585 13.1982 12.9744 13.2019C13.2145 13.1468 13.4661 13.0496 13.7187 12.9123L14.5311 14.3193C14.2893 14.4371 14.0358 14.4676 13.8008 14.4108C13.6289 14.3692 13.4702 14.2816 13.3359 14.1519L13.1847 14.3331C13.1405 14.3861 13.0616 14.3931 13.0086 14.3488C12.9556 14.3045 12.9485 14.2256 12.9927 14.1726L13.1734 13.9561C13.164 13.9421 13.1549 13.9278 13.146 13.9132C13.1276 13.883 13.1086 13.8517 13.0892 13.8191L12.8715 13.9447C12.8117 13.9793 12.7352 13.9587 12.7006 13.8989C12.6661 13.839 12.6865 13.7625 12.7463 13.728L12.963 13.6029C12.9349 13.5538 12.9084 13.5067 12.8835 13.4616L12.6096 13.5091ZM14.9526 12.1564C14.9968 12.1034 14.9897 12.0245 14.9367 11.9802C14.8836 11.9359 14.8048 11.9429 14.7606 11.9959L14.5279 12.2748C14.5168 12.2881 14.5089 12.303 14.5042 12.3186C14.3364 12.499 14.1264 12.6683 13.8811 12.8185L14.6935 14.2256C14.9164 14.0751 15.0696 13.8708 15.1379 13.6388C15.1878 13.4691 15.1913 13.2879 15.1461 13.1068L15.3786 13.0664C15.4466 13.0546 15.4922 12.9899 15.4803 12.9218C15.4684 12.8537 15.4037 12.8081 15.3356 12.8199L15.0577 12.8681C15.0503 12.853 15.0425 12.838 15.0343 12.823C15.0174 12.7919 14.9997 12.7598 14.9812 12.7267L15.1989 12.601C15.2587 12.5665 15.2792 12.49 15.2446 12.4301C15.2101 12.3703 15.1336 12.3497 15.0738 12.3842L14.8571 12.5093C14.8286 12.4604 14.8011 12.414 14.7745 12.3698L14.9526 12.1564Z" fill="white"/>
</g>
<defs>
<clipPath id="clip0_9556_3106">
<rect width="3" height="3" fill="white" transform="translate(12.3779 11.5)"/>
</clipPath>
</defs>
</svg>
