<svg width="25" height="25" viewBox="0 0 25 25" fill="none" xmlns="http://www.w3.org/2000/svg">
<path fill-rule="evenodd" clip-rule="evenodd" d="M14.3256 0.988281C12.9054 0.988281 11.7542 2.13954 11.7542 3.55971V11.274C11.7542 12.6942 12.9054 13.8454 14.3256 13.8454H22.0399C23.46 13.8454 24.6113 12.6942 24.6113 11.274V3.55971C24.6113 2.13954 23.46 0.988281 22.0399 0.988281H14.3256ZM3.39704 6.98828C3.042 6.98828 2.75419 7.27609 2.75419 7.63114V11.0597C2.75419 11.4148 3.042 11.7026 3.39704 11.7026H6.82561C7.18066 11.7026 7.46847 11.4148 7.46847 11.0597V7.63114C7.46847 7.27609 7.18066 6.98828 6.82561 6.98828H3.39704ZM0.611328 7.63114C0.611328 6.09264 1.85853 4.84542 3.39704 4.84542H6.82561C8.36412 4.84542 9.61133 6.09264 9.61133 7.63114V11.0597C9.61133 12.5982 8.36412 13.8454 6.82561 13.8454H3.39704C1.85853 13.8454 0.611328 12.5982 0.611328 11.0597V7.63114ZM2.75419 17.9169C2.75419 17.5618 3.042 17.274 3.39704 17.274H6.82561C7.18066 17.274 7.46847 17.5618 7.46847 17.9169V21.3454C7.46847 21.7005 7.18066 21.9883 6.82561 21.9883H3.39704C3.042 21.9883 2.75419 21.7005 2.75419 21.3454V17.9169ZM3.39704 15.1311C1.85853 15.1311 0.611328 16.3784 0.611328 17.9169V21.3454C0.611328 22.884 1.85853 24.1311 3.39704 24.1311H6.82561C8.36412 24.1311 9.61133 22.884 9.61133 21.3454V17.9169C9.61133 16.3784 8.36412 15.1311 6.82561 15.1311H3.39704ZM14.5399 17.274C14.1849 17.274 13.897 17.5618 13.897 17.9169V21.3454C13.897 21.7005 14.1849 21.9883 14.5399 21.9883H17.9685C18.3235 21.9883 18.6113 21.7005 18.6113 21.3454V17.9169C18.6113 17.5618 18.3235 17.274 17.9685 17.274H14.5399ZM11.7542 17.9169C11.7542 16.3784 13.0014 15.1311 14.5399 15.1311H17.9685C19.507 15.1311 20.7542 16.3784 20.7542 17.9169V21.3454C20.7542 22.884 19.507 24.1311 17.9685 24.1311H14.5399C13.0014 24.1311 11.7542 22.884 11.7542 21.3454V17.9169Z" fill="#727272"/>
</svg>
