<svg width="7" height="6" viewBox="0 0 7 6" fill="none" xmlns="http://www.w3.org/2000/svg">
<circle cx="3.65967" cy="3" r="3" fill="white"/>
<circle cx="3.65967" cy="3" r="2.25" fill="#FAB632"/>
<g clip-path="url(#clip0_10723_13617)">
<path fill-rule="evenodd" clip-rule="evenodd" d="M2.62373 1.98253C2.56609 1.94443 2.48854 1.96028 2.45051 2.01792C2.41249 2.07556 2.4284 2.15317 2.48605 2.19127L2.65739 2.30451C2.59937 2.39067 2.55536 2.48373 2.52652 2.58172C2.48192 2.73327 2.47439 2.894 2.50546 3.05567C2.80591 3.01962 3.14321 2.90319 3.48842 2.70388C3.83364 2.50457 4.10312 2.27067 4.28456 2.02851C4.16009 1.92077 4.01713 1.84692 3.86358 1.80977C3.76432 1.78576 3.66173 1.77734 3.55812 1.7845L3.54572 1.57946C3.54155 1.51049 3.48229 1.45791 3.41337 1.46202C3.34443 1.46612 3.29194 1.52536 3.29611 1.59433L3.31042 1.83106C3.22273 1.85802 3.13561 1.89609 3.05043 1.94526C2.96528 1.99443 2.88875 2.05084 2.82157 2.11329L2.62373 1.98253ZM2.39136 3.5091C2.32333 3.5209 2.25857 3.47528 2.24671 3.4072C2.23485 3.33913 2.28038 3.27437 2.3484 3.26257L2.70621 3.20049C2.72331 3.19752 2.7402 3.19818 2.75609 3.20191C2.99619 3.1468 3.2478 3.04959 3.50049 2.91227L4.31286 4.31934C4.07108 4.43709 3.8175 4.46764 3.58254 4.41079C3.4106 4.36919 3.25193 4.28157 3.11763 4.15188L2.96645 4.33306C2.92221 4.38607 2.84337 4.39312 2.79034 4.34881C2.73732 4.3045 2.73019 4.2256 2.77443 4.17259L2.95511 3.95605C2.94579 3.94206 2.93667 3.92778 2.92777 3.91322C2.90932 3.88302 2.89036 3.85165 2.87089 3.81906L2.65321 3.94474C2.59342 3.97926 2.51694 3.95873 2.48238 3.89887C2.44783 3.83902 2.46828 3.76251 2.52807 3.728L2.7447 3.60292C2.71662 3.55376 2.69015 3.50667 2.6652 3.46159L2.39136 3.5091ZM4.73432 2.15639C4.77856 2.10337 4.77143 2.02448 4.7184 1.98017C4.66538 1.93586 4.58653 1.94291 4.5423 1.99592L4.30963 2.27475C4.29852 2.28807 4.29065 2.30301 4.28593 2.31864C4.11815 2.49903 3.90814 2.66835 3.66287 2.81852L4.47523 4.22559C4.6981 4.07509 4.85134 3.87075 4.91959 3.63884C4.96954 3.46913 4.97299 3.28791 4.92782 3.10676L5.16035 3.06641C5.22837 3.05461 5.2739 2.98985 5.26204 2.92178C5.25018 2.8537 5.18542 2.80807 5.11739 2.81988L4.83949 2.86809C4.83203 2.85303 4.82423 2.838 4.81606 2.82301C4.79914 2.79193 4.78145 2.75983 4.76297 2.72667L4.98068 2.60098C5.04046 2.56646 5.06092 2.48996 5.02636 2.4301C4.99181 2.37026 4.91533 2.34971 4.85554 2.38423L4.63888 2.50932C4.61034 2.46042 4.5828 2.41396 4.55623 2.36982L4.73432 2.15639Z" fill="white"/>
</g>
<defs>
<clipPath id="clip0_10723_13617">
<rect width="3" height="3" fill="white" transform="translate(2.15967 1.5)"/>
</clipPath>
</defs>
</svg>
