<svg width="7" height="7" viewBox="0 0 7 7" fill="none" xmlns="http://www.w3.org/2000/svg">
<path d="M4.84285 6.77637H1.72754C1.08751 6.77629 0.568522 6.25719 0.568359 5.61718V5.25811L2.14775 3.273L4.84285 6.77637ZM6.73513 5.79785C6.64816 6.35189 6.17021 6.77622 5.59179 6.77637H5.32147C5.31524 6.7618 5.30755 6.7474 5.29747 6.73426L4.25058 5.37312L5.44916 4.30314L6.73513 5.79785ZM5.59179 0.59375C6.2318 0.593913 6.7509 1.1129 6.75098 1.75293V5.22324L5.61353 3.90195C5.54307 3.82012 5.41928 3.81201 5.33867 3.88384L4.01422 5.06567L2.30351 2.84148C2.22695 2.7421 2.07735 2.74102 1.99923 2.83922L0.568359 4.63731V1.75293C0.568441 1.11285 1.08746 0.593832 1.72754 0.59375H5.59179ZM4.17541 1.56004C3.74866 1.56004 3.40256 1.9058 3.40247 2.33253C3.40256 2.75926 3.74866 3.10547 4.17541 3.10547C4.60208 3.10537 4.94827 2.7592 4.94835 2.33253C4.94827 1.90585 4.60208 1.56013 4.17541 1.56004ZM4.17541 1.94628C4.38873 1.94638 4.56166 2.11919 4.56166 2.33253C4.56166 2.54587 4.38873 2.71867 4.17541 2.71877C3.96201 2.71877 3.78872 2.54593 3.78872 2.33253C3.78872 2.11913 3.96201 1.94628 4.17541 1.94628Z" fill="#0E2D65"/>
</svg>
