<svg width="17" height="16" viewBox="0 0 17 16" fill="none" xmlns="http://www.w3.org/2000/svg">
<circle cx="8.66345" cy="8" r="7.5" stroke="#0E2D65" stroke-width="0.5" fill="none"/>
<path fill-rule="evenodd" clip-rule="evenodd" d="M5.89985 7.79239C6.77895 8.55881 7.48727 9.01876 8.0003 9.29981C7.58492 9.04442 7.07214 8.71229 6.58364 8.25234C5.77767 7.53675 3.89705 5.31399 4.36101 3.34661C4.53202 2.68235 4.80068 3.24446 4.87404 3.34661C4.94716 3.44877 5.55783 4.75188 6.26616 6.02933C6.60794 6.64251 6.94995 7.20462 7.29197 7.69023C7.09643 7.28136 6.99878 6.97464 6.94995 6.79599C6.73012 5.95283 6.70582 5.13509 6.8523 4.7008C6.99878 4.29193 7.19432 4.21519 7.26744 4.21519C7.36509 4.24085 7.24314 5.21183 7.70711 7.10246C7.87811 7.84346 8.24442 8.68662 8.48879 9.22307C8.53761 8.94202 8.63527 8.68662 8.80627 8.48231C8.87939 8.35449 8.97705 8.25234 9.09923 8.15018C9.36789 7.92021 9.68537 7.74131 10.0762 7.69023C9.83208 7.56241 9.61225 7.43459 9.58772 7.43459C9.58772 7.43459 9.51436 7.40918 9.53889 7.33244C9.56343 7.2557 9.75873 7.28136 10.3206 7.61349C9.85638 7.30702 9.78326 7.2557 9.78326 7.2557L9.7342 7.23028C9.7342 7.23028 9.68537 7.20462 9.7342 7.1792C9.75873 7.15354 9.85638 7.15354 9.97856 7.20462C10.0519 7.2557 10.1984 7.33244 10.3206 7.40918C10.1739 7.28136 10.1496 7.28136 10.1496 7.28136L10.0274 7.1792C10.0274 7.1792 10.0029 7.15354 10.0274 7.12812C10.0519 7.10246 10.125 7.10246 10.2227 7.1792C10.296 7.2557 10.6869 7.63915 10.7112 7.71565C10.9798 7.74131 11.3462 7.92021 11.5417 8.20126C11.6148 8.15018 11.6882 8.12452 11.7615 8.15018H11.8103H11.8592C11.8835 8.15018 11.8835 8.15018 11.8835 8.1756L11.908 8.20126L11.9325 8.22667L11.9568 8.25234C12.079 8.37991 12.1033 8.55881 12.0057 8.68662C12.5187 8.55881 13.056 8.50773 13.6176 8.50773C14.5458 8.50773 15.4251 8.68662 16.2311 9.01876C15.6204 8.83986 14.9854 8.76336 14.3259 8.76336C13.5445 8.76336 12.7873 8.89094 12.079 9.12091C12.0057 9.14657 11.908 9.17199 11.8346 9.19765C11.5417 9.35089 11.273 9.52978 11.0044 9.75976C10.9798 9.78517 10.9798 9.78517 10.9555 9.81084C10.7845 10.0919 10.5892 10.3986 10.3206 10.7562C9.95403 11.2928 9.46554 11.4461 8.8551 11.4461C8.48879 11.4461 8.29325 11.3693 8.02459 11.2161C7.97577 11.2672 7.5361 11.5482 7.41392 11.625C7.29197 11.7015 7.19432 11.6761 7.16979 11.6504C7.14526 11.625 7.16979 11.5993 7.16979 11.5993L7.34079 11.4972C7.34079 11.4972 7.36509 11.4972 7.56063 11.3439C7.38962 11.4204 7.16979 11.5228 7.09643 11.5482C6.92566 11.625 6.80348 11.5993 6.77895 11.5482C6.75465 11.5228 6.77895 11.4972 6.80348 11.4717C6.82777 11.4717 6.8766 11.4461 6.8766 11.4461C6.8766 11.4461 6.97448 11.395 7.63375 11.1139C6.8523 11.4461 6.58364 11.4204 6.55911 11.3439C6.53482 11.2672 6.63247 11.2418 6.657 11.2418C6.657 11.2418 7.14526 11.0629 7.5361 10.9351L7.5118 10.9096C7.5361 10.654 7.56063 10.4751 7.73164 10.194C7.09643 10.4751 6.1928 10.654 5.24035 10.4497C4.53202 10.2962 4.21454 9.91299 4.28789 9.75976C4.38554 9.52978 6.14398 9.81084 7.31626 9.8365C6.36381 9.78518 4.99598 9.47871 4.09235 8.83986C3.48192 8.40557 3.35973 7.94562 3.48192 7.84346C3.67722 7.66457 5.50901 8.78878 6.55911 9.24873C6.97448 9.42763 7.46298 9.55545 7.80476 9.60652C7.5361 9.55545 7.21861 9.47871 6.8523 9.32547C5.89985 8.94202 3.48191 7.69023 3.26208 5.74827C3.21326 5.16075 3.62839 5.54396 3.72604 5.64612C4.11688 6.02933 4.87404 6.89815 5.89985 7.79239Z" fill="#0E2D65"/>
<circle cx="13.6635" cy="13" r="3" fill="white"/>
<path d="M13.6635 10.5C15.0442 10.5 16.1635 11.6193 16.1635 13C16.1635 14.3807 15.0442 15.5 13.6635 15.5C12.2827 15.5 11.1635 14.3807 11.1635 13C11.1635 11.6193 12.2827 10.5 13.6635 10.5ZM13.2758 11.5547C13.1345 11.431 12.9138 11.5314 12.9135 11.7188V14.2549C12.9135 14.4426 13.1344 14.5432 13.2758 14.4199L14.9135 12.9873L13.2758 11.5547Z" fill="#039145"/>
</svg>
