<svg width="21" height="19" viewBox="0 0 21 19" fill="none" xmlns="http://www.w3.org/2000/svg">
<path fill-rule="evenodd" clip-rule="evenodd" d="M9.38711 0.674559C9.10626 0.939803 8.94221 1.3057 8.931 1.69184C8.9198 2.07799 9.06236 2.45278 9.32736 2.73386L12.1314 5.70987H2.31873C1.9322 5.70987 1.56151 5.86342 1.28819 6.13673C1.01488 6.41005 0.861328 6.78075 0.861328 7.16727C0.861328 7.5538 1.01488 7.92449 1.28819 8.19781C1.56151 8.47112 1.9322 8.62467 2.31873 8.62467H15.5082C15.7928 8.62479 16.0713 8.54154 16.3092 8.38522C16.547 8.22889 16.7339 8.00633 16.8468 7.74501C16.9596 7.48368 16.9934 7.19503 16.9441 6.9147C16.8948 6.63436 16.7644 6.3746 16.5692 6.1675L11.4479 0.735769C11.3165 0.596488 11.159 0.484454 10.9843 0.406068C10.8097 0.327682 10.6213 0.284482 10.4299 0.278933C10.2385 0.273384 10.0479 0.305595 9.86899 0.373728C9.69007 0.441861 9.52632 0.543123 9.38711 0.674559ZM11.8953 16.327C12.155 16.6092 12.293 16.9823 12.2794 17.3655C12.2658 17.7488 12.1017 18.1112 11.8227 18.3742C11.5437 18.6373 11.1723 18.7798 10.789 18.7709C10.4056 18.762 10.0412 18.6023 9.77478 18.3266L4.65348 12.8949C4.4583 12.6878 4.32798 12.4282 4.2786 12.148C4.22922 11.8678 4.26294 11.5793 4.3756 11.318C4.48826 11.0567 4.67493 10.8342 4.91258 10.6777C5.15024 10.5213 5.42849 10.4378 5.71301 10.4377H18.9039C19.2905 10.4377 19.6612 10.5912 19.9345 10.8645C20.2078 11.1379 20.3613 11.5085 20.3613 11.8951C20.3613 12.2816 20.2078 12.6523 19.9345 12.9256C19.6612 13.1989 19.2905 13.3525 18.9039 13.3525H9.0898L11.8953 16.327Z" fill="#727272"/>
</svg>
