<svg width="25" height="25" viewBox="0 0 25 25" fill="none" xmlns="http://www.w3.org/2000/svg">
<path d="M12.7246 0.694148C12.8685 0.611271 13.046 0.611187 13.1904 0.693171L18.8174 3.89141C18.9614 3.97345 19.0498 4.12493 19.0488 4.28887L19.0137 9.96563C19.0371 10.0211 19.0493 10.0813 19.0488 10.1434L19.0479 10.2859L23.8799 13.033C24.0239 13.1152 24.1125 13.2674 24.1113 13.4315L24.0713 19.9061C24.0701 20.0672 23.9829 20.2163 23.8418 20.2977L18.166 23.5691C18.0221 23.652 17.8446 23.6521 17.7002 23.5701L12.4678 20.5955L7.43653 23.4969C7.29255 23.5799 7.11426 23.58 6.96973 23.4979L1.34278 20.2996C1.199 20.2178 1.11059 20.0661 1.11133 19.9022L1.15137 13.4266C1.15253 13.2654 1.23974 13.1167 1.38086 13.035L6.78418 9.91973L6.81934 4.35723C6.82049 4.19609 6.90771 4.04696 7.04883 3.96563L12.7246 0.694148ZM19.0098 16.618C19.0086 16.779 18.9212 16.9278 18.7803 17.0096L14.0449 19.7381L17.9287 21.9461L22.5371 19.2899L22.5693 14.0418L19.0371 12.034L19.0098 16.618ZM2.68555 14.0428L2.65332 19.2908L7.19825 21.8738L11.2891 19.5154L7.01172 17.0848C6.8674 17.0029 6.77827 16.8498 6.7793 16.6854L6.8086 11.6649L2.68555 14.0428ZM13.415 14.2469L13.3897 18.3563L17.4756 16.0018L17.5 11.8934L13.415 14.2469ZM8.32129 16.075L11.8135 18.0604L11.8379 13.9734L8.34571 11.9881L8.32129 16.075ZM8.87012 10.5281L12.7539 12.7361L16.8447 10.3777L12.9619 8.17071L8.87012 10.5281ZM8.35352 4.97344L8.32813 9.08184L12.7246 6.54864C12.8685 6.4657 13.046 6.46479 13.1904 6.54669L17.4824 8.98614L17.5068 4.9002L12.9619 2.31719L8.35352 4.97344Z" fill="#727272"/>
</svg>
