<svg width="23" height="18" viewBox="0 0 23 18" fill="none" xmlns="http://www.w3.org/2000/svg">
<path fill-rule="evenodd" clip-rule="evenodd" d="M13.1828 2.17729C13.1828 2.89526 12.6849 3.49888 12.0103 3.67251C12.1066 3.72917 12.193 3.80815 12.2617 3.90945L15.6752 8.94513C15.9869 9.40493 16.6643 9.40493 16.976 8.94513L19.1957 5.67065C19.6595 4.98635 20.7297 5.39048 20.6255 6.21058L19.5557 14.627C19.5059 15.0195 19.1719 15.3137 18.7763 15.3137H4.44636C4.05072 15.3137 3.7168 15.0195 3.66691 14.627L2.59718 6.21058C2.49294 5.39048 3.56313 4.98635 4.02699 5.67065L6.24667 8.94513C6.55835 9.40493 7.23573 9.40493 7.54741 8.94513L10.961 3.90945C11.0296 3.80815 11.116 3.72917 11.2124 3.67251C10.5377 3.49888 10.0399 2.89526 10.0399 2.17729C10.0399 1.32376 10.7435 0.631836 11.6113 0.631836C12.4792 0.631836 13.1828 1.32376 13.1828 2.17729ZM2.18276 4.49547C3.05063 4.49547 3.75419 3.80355 3.75419 2.95002C3.75419 2.09649 3.05063 1.40456 2.18276 1.40456C1.31488 1.40456 0.611328 2.09649 0.611328 2.95002C0.611328 3.80355 1.31488 4.49547 2.18276 4.49547ZM21.0399 4.49547C21.9078 4.49547 22.6113 3.80355 22.6113 2.95002C22.6113 2.09649 21.9078 1.40456 21.0399 1.40456C20.172 1.40456 19.4685 2.09649 19.4685 2.95002C19.4685 3.80355 20.172 4.49547 21.0399 4.49547ZM3.75419 16.8591C3.75419 16.4323 4.10015 16.0864 4.52691 16.0864H18.6957C19.1225 16.0864 19.4685 16.4323 19.4685 16.8591C19.4685 17.2859 19.1225 17.6318 18.6957 17.6318H4.52691C4.10015 17.6318 3.75419 17.2859 3.75419 16.8591ZM6.89704 13.7682C7.33098 13.7682 7.68276 13.4222 7.68276 12.9955C7.68276 12.5687 7.33098 12.2227 6.89704 12.2227C6.4631 12.2227 6.11133 12.5687 6.11133 12.9955C6.11133 13.4222 6.4631 13.7682 6.89704 13.7682ZM17.1113 12.9955C17.1113 13.4222 16.7596 13.7682 16.3256 13.7682C15.8917 13.7682 15.5399 13.4222 15.5399 12.9955C15.5399 12.5687 15.8917 12.2227 16.3256 12.2227C16.7596 12.2227 17.1113 12.5687 17.1113 12.9955ZM11.6113 13.7682C12.0453 13.7682 12.397 13.4222 12.397 12.9955C12.397 12.5687 12.0453 12.2227 11.6113 12.2227C11.1774 12.2227 10.8256 12.5687 10.8256 12.9955C10.8256 13.4222 11.1774 13.7682 11.6113 13.7682Z" fill="#727272"/>
</svg>
