<svg width="17" height="17" viewBox="0 0 17 17" fill="currentColor" xmlns="http://www.w3.org/2000/svg">
<path fill-rule="evenodd" clip-rule="evenodd" d="M14.5711 15.3011H2.73293C2.32451 15.3011 1.99304 14.9743 1.99304 14.5716V2.89994C1.99304 2.49727 2.32451 2.17046 2.73293 2.17046H7.63095C8.03937 2.17046 8.37084 2.49727 8.37084 2.89994C8.37084 3.30262 8.03937 3.62942 7.63095 3.62942H3.47281V13.8421H13.8312V9.56083C13.8312 9.15815 14.1626 8.83135 14.5711 8.83135C14.9795 8.83135 15.3109 9.15815 15.3109 9.56083V14.5716C15.3109 14.9743 14.9795 15.3011 14.5711 15.3011ZM9.97268 8.43743L13.5485 4.91112L13.4834 6.47148C13.4738 6.69981 13.5589 6.93105 13.7372 7.10686C14.0694 7.43512 14.6051 7.44169 14.9306 7.11999C15.0823 6.97117 15.1615 6.7764 15.1704 6.57871L15.3257 2.85399C15.3346 2.62639 15.251 2.39441 15.0727 2.21861C14.8951 2.04281 14.6591 1.95964 14.4283 1.9684L10.6512 2.12232C10.4499 2.13034 10.2524 2.20986 10.1014 2.35867C9.77587 2.67964 9.78105 3.20633 10.1147 3.53532C10.2938 3.71186 10.5276 3.79502 10.7584 3.78553L12.341 3.72061L8.76519 7.24692C8.43964 7.56789 8.44556 8.0953 8.77925 8.42357C9.11294 8.75256 9.64713 8.7584 9.97268 8.43743Z" fill="currentColor"/>
</svg>
