<svg width="24" height="24" viewBox="0 0 24 24" fill="none" xmlns="http://www.w3.org/2000/svg">
<path d="M6.89014 0.526587C6.97354 0.478473 7.07691 0.478091 7.16065 0.52561L10.4214 2.37913C10.505 2.42671 10.5568 2.51541 10.5562 2.61057L10.5347 5.90549C10.547 5.93638 10.5564 5.96886 10.5562 6.00315L10.5552 6.08713L13.356 7.67893C13.4393 7.72646 13.4903 7.81449 13.4897 7.9094L13.4673 11.6623C13.4666 11.7557 13.4162 11.8427 13.3345 11.8899L10.0444 13.7854C9.96099 13.8335 9.85769 13.8339 9.77393 13.7864L6.73877 12.0608L3.82569 13.7424C3.7423 13.7905 3.63892 13.7909 3.55518 13.7434L0.294437 11.8899C0.210859 11.8424 0.159154 11.7537 0.159672 11.6584L0.183109 7.90549C0.183841 7.81217 0.234181 7.72626 0.315922 7.67893L3.44776 5.87229L3.46729 2.64963C3.46796 2.55624 3.51929 2.47021 3.60108 2.42307L6.89014 0.526587ZM10.5327 9.75608C10.5319 9.84934 10.4816 9.93534 10.3999 9.98264L7.65381 11.5647L9.90674 12.8449L12.5776 11.3049L12.5962 8.26389L10.5483 7.09885L10.5327 9.75608ZM1.07178 8.26389L1.05323 11.3049L3.68702 12.803L6.05909 11.4348L3.57959 10.0256C3.49607 9.97822 3.44438 9.89031 3.44483 9.79514L3.46143 6.88596L1.07178 8.26389ZM7.29053 8.3801L7.27491 10.7619L9.64405 9.39768L9.65772 7.01682L7.29053 8.3801ZM4.33838 9.44065L6.3628 10.591L6.37647 8.22288L4.35205 7.07249L4.33838 9.44065ZM4.65577 6.22581L6.90772 7.50608L9.27979 6.13889L7.02784 4.85959L4.65577 6.22581ZM4.35694 3.00706L4.34229 5.38792L6.89014 3.91917C6.97354 3.87105 7.07691 3.87067 7.16065 3.91819L9.64795 5.33127L9.6626 2.96506L7.02784 1.46799L4.35694 3.00706Z" fill="currentColor"/>
</svg>
