<svg width="24" height="24" viewBox="0 0 24 24" fill="currentColor" xmlns="http://www.w3.org/2000/svg">
<path d="M6.32638 2.65723C6.53319 2.65769 6.73708 2.70605 6.92207 2.7985C7.10707 2.891 7.26829 3.02527 7.39278 3.19043L8.49304 4.65723H13.993C14.3466 4.65723 14.6857 4.7978 14.9358 5.04785C15.1858 5.2979 15.3264 5.63694 15.3264 5.99056V12.6572C15.3264 13.0108 15.1858 13.3499 14.9358 13.6C14.6857 13.85 14.3466 13.9906 13.993 13.9906H3.32638C2.97276 13.9906 2.63372 13.85 2.38367 13.6C2.13362 13.3499 1.99304 13.0108 1.99304 12.6572V3.99056C1.99304 3.63694 2.13362 3.2979 2.38367 3.04785C2.63372 2.7978 2.97276 2.65723 3.32638 2.65723H6.32638ZM3.32638 12.6572H13.993V5.99056H8.49304C8.28611 5.9902 8.08178 5.94183 7.89671 5.84929C7.71178 5.75679 7.55098 5.62251 7.42664 5.45736L6.32638 3.99056H3.32638V12.6572ZM7.79771 7.79523L6.26908 9.32389L7.79771 10.8526L6.85502 11.7952L4.85502 9.79523C4.73005 9.67023 4.65971 9.50069 4.65971 9.32389C4.65971 9.14709 4.73005 8.97756 4.85502 8.85256L6.85502 6.85256L7.79771 7.79523ZM12.4644 8.85256C12.5894 8.97756 12.6597 9.14709 12.6597 9.32389C12.6597 9.50069 12.5894 9.67023 12.4644 9.79523L10.4644 11.7952L9.52171 10.8526L11.0503 9.32389L9.52171 7.79523L10.4644 6.85256L12.4644 8.85256Z" fill="currentColor" stroke="#F4F4F4" stroke-width="0.5" stroke-linejoin="round"/>
</svg>
