<svg width="27" height="26" viewBox="0 0 27 26" fill="none" xmlns="http://www.w3.org/2000/svg">
<path fill-rule="evenodd" clip-rule="evenodd" d="M23.5813 5.78919L16.2308 13.1398L23.5813 20.4903C23.9174 20.8264 24.1253 21.2905 24.1253 21.8028C24.1253 22.8275 23.2935 23.6592 22.2689 23.6592C21.7573 23.6592 21.2924 23.4513 20.9564 23.1145L13.6066 15.7647L6.25604 23.1145C5.92002 23.4513 5.45591 23.6592 4.94358 23.6592C3.91891 23.6592 3.08716 22.8275 3.08716 21.8028C3.08716 21.2905 3.2951 20.8264 3.63112 20.4903L10.9817 13.1398L3.63112 5.78919C3.2951 5.45317 3.08716 4.98985 3.08716 4.47752C3.08716 3.45206 3.91891 2.62109 4.94358 2.62109C5.45591 2.62109 5.92002 2.82903 6.25604 3.16505L13.6066 10.5148L20.9564 3.16505C21.2924 2.82903 21.7573 2.62109 22.2689 2.62109C23.2935 2.62109 24.1253 3.45206 24.1253 4.47752C24.1253 4.98985 23.9174 5.45317 23.5813 5.78919Z" fill="currentColor"/>
</svg>
