<svg width="17" height="17" viewBox="0 0 17 17" fill="none" xmlns="http://www.w3.org/2000/svg">
<path fill-rule="evenodd" clip-rule="evenodd" d="M11.2176 4.48893C11.6783 4.48893 12.0516 4.8876 12.0516 5.37893V14.2669C12.0516 14.7583 11.6783 15.1556 11.2176 15.1556H2.8843C2.42497 15.1556 2.05164 14.7583 2.05164 14.2669V5.37893C2.05164 4.8876 2.4243 4.48893 2.88497 4.48893H11.2176ZM3.38497 13.8223H10.7183V5.82227H3.38497V13.8223ZM14.5516 1.82227C15.0116 1.82227 15.385 2.22027 15.385 2.7116V11.5996C15.385 12.0909 15.0116 12.4889 14.5516 12.4889H13.2343V11.1729H14.1503V3.13827H6.6183V3.8096H5.38497V2.7116C5.38497 2.22027 5.7583 1.82227 6.21897 1.82227H14.5523H14.5516Z" fill="currentColor"/>
</svg>
