<svg width="24" height="24" viewBox="0 0 24 24" fill="currentColor" xmlns="http://www.w3.org/2000/svg">
<path d="M10.5255 8.34872C10.2938 8.34941 10.0627 8.32413 9.83655 8.27334C9.96836 8.559 10.0691 8.85805 10.1372 9.16534C10.2624 9.16534 10.3919 9.16534 10.5255 9.16534C10.9513 9.16467 11.3742 9.09538 11.7781 8.96014L11.3898 8.20215C11.1097 8.29051 10.8189 8.33983 10.5255 8.34872Z" fill="currentColor"/>
<path d="M8.36687 7.53751L8.21656 7.37837C7.89057 7.0587 7.63915 6.67064 7.48033 6.24201C7.32152 5.81339 7.25925 5.35482 7.29798 4.89921C7.34062 4.28894 7.56459 3.70549 7.94099 3.2241L7.90759 3.82295C7.90716 3.92779 7.94596 4.02897 8.01631 4.1065C8.08666 4.18404 8.18344 4.23229 8.28754 4.24173H8.32512C8.42965 4.24215 8.53053 4.20324 8.60783 4.13268C8.68514 4.06213 8.73325 3.96505 8.74266 3.86064L8.88462 2.14784C8.88962 2.08718 8.88138 2.02616 8.86046 1.96903C8.83955 1.91189 8.80647 1.86001 8.76353 1.81701C8.71783 1.77987 8.66482 1.75284 8.60798 1.73769C8.55113 1.72253 8.49174 1.71959 8.43368 1.72906L6.72596 1.87564C6.61522 1.88508 6.51276 1.93825 6.44111 2.02346C6.36946 2.10868 6.3345 2.21894 6.34391 2.33001C6.35333 2.44108 6.40634 2.54384 6.4913 2.6157C6.57626 2.68756 6.6862 2.72263 6.79694 2.71319L7.33556 2.66713C6.82837 3.30367 6.52944 4.08172 6.47961 4.89502C6.43647 5.4524 6.51373 6.01255 6.70612 6.53724C6.89852 7.06193 7.20151 7.53882 7.59443 7.93534L7.72387 8.09029C8.25742 8.64332 8.5644 9.37718 8.58399 10.1465C8.60625 10.495 8.56954 10.8447 8.47543 11.1809L9.227 11.562C9.38868 11.0899 9.45261 10.5897 9.41489 10.092C9.38925 9.14054 9.01634 8.23156 8.36687 7.53751Z" fill="currentColor"/>
<path d="M14.2291 7.55341L13.7239 7.5911C14.1849 6.99265 14.4692 6.27647 14.5445 5.52399C14.6199 4.7715 14.4832 4.01292 14.1499 3.3345C13.8167 2.65608 13.3004 2.08505 12.6597 1.68634C12.019 1.28764 11.2796 1.07725 10.5256 1.07911C10.0996 1.07838 9.67649 1.1477 9.27295 1.28431L9.65291 2.03811C10.1296 1.90271 10.6311 1.88008 11.1179 1.972C11.6048 2.06391 12.0638 2.26786 12.4588 2.56781C12.8537 2.86776 13.1739 3.25553 13.3942 3.70062C13.6144 4.14571 13.7287 4.63599 13.7281 5.13288C13.7279 5.85094 13.4851 6.54775 13.0391 7.10951L13.0809 6.46459C13.0844 6.4096 13.0772 6.35444 13.0595 6.30226C13.0418 6.25008 13.014 6.20191 12.9778 6.1605C12.9415 6.11908 12.8975 6.08524 12.8482 6.06089C12.7989 6.03654 12.7453 6.02217 12.6905 6.01859C12.6356 6.01502 12.5806 6.02231 12.5286 6.04005C12.4766 6.0578 12.4286 6.08564 12.3873 6.122C12.346 6.15836 12.3122 6.20252 12.288 6.25196C12.2637 6.3014 12.2494 6.35515 12.2458 6.41015L12.1289 8.11876C12.1256 8.17936 12.1354 8.23996 12.1578 8.29636C12.1801 8.35277 12.2144 8.40362 12.2583 8.44541C12.2959 8.4836 12.3408 8.51371 12.3903 8.53387C12.4399 8.55403 12.493 8.56383 12.5464 8.56266H12.5882L14.2917 8.38678C14.3467 8.38155 14.4 8.36545 14.4487 8.3394C14.4974 8.31336 14.5405 8.2779 14.5754 8.23506C14.6104 8.19223 14.6365 8.14287 14.6523 8.08984C14.6681 8.03681 14.6733 7.98117 14.6675 7.92612C14.6559 7.81951 14.604 7.72142 14.5224 7.65208C14.4408 7.58273 14.3359 7.54742 14.2291 7.55341Z" fill="currentColor"/>
<path d="M2.4002 8.61348H2.4336L4.14132 8.46691C4.19615 8.46224 4.24953 8.44677 4.2984 8.42141C4.34728 8.39605 4.39069 8.36128 4.42617 8.31908C4.46164 8.27689 4.48849 8.2281 4.50517 8.17551C4.52184 8.12291 4.52803 8.06753 4.52337 8.01254C4.51871 7.95754 4.50329 7.90401 4.478 7.85499C4.45271 7.80597 4.41805 7.76242 4.37598 7.72684C4.33391 7.69126 4.28527 7.66434 4.23283 7.64761C4.18038 7.63088 4.12517 7.62468 4.07034 7.62936L3.48997 7.67961C4.03663 7.27512 4.6979 7.05649 5.37723 7.05563C5.60608 7.05701 5.83417 7.08227 6.05781 7.13101C5.92666 6.84549 5.82725 6.54635 5.76136 6.23901C5.6361 6.23901 5.50666 6.23901 5.37723 6.23901C4.48639 6.23768 3.62017 6.53219 2.91377 7.07657L2.96387 6.52797C2.96844 6.47294 2.96211 6.41755 2.94524 6.36498C2.92838 6.31241 2.90132 6.26371 2.86562 6.22168C2.82992 6.17964 2.78628 6.1451 2.73722 6.12005C2.68815 6.09499 2.63463 6.07992 2.57974 6.07569C2.46959 6.06641 2.36026 6.10131 2.27573 6.17275C2.1912 6.24418 2.13836 6.34633 2.1288 6.45678L1.98266 8.16539C1.97804 8.22314 1.98542 8.28121 2.00432 8.33596C2.02322 8.3907 2.05325 8.44091 2.09249 8.48342C2.13173 8.52592 2.17934 8.5598 2.2323 8.58291C2.28527 8.60602 2.34244 8.61786 2.4002 8.61767V8.61348Z" fill="currentColor"/>
<path d="M8.3919 11.8752L6.68418 11.9882C6.57344 11.9955 6.4701 12.0465 6.39689 12.1301C6.32367 12.2138 6.28659 12.3232 6.29378 12.4342C6.30098 12.5453 6.35187 12.6489 6.43527 12.7224C6.51866 12.7958 6.62772 12.833 6.73846 12.8258L7.38146 12.7797C6.90859 13.1609 6.33796 13.4003 5.73532 13.4704C5.13268 13.5404 4.52258 13.4382 3.97533 13.1756C3.42808 12.913 2.96595 12.5006 2.64222 11.986C2.31849 11.4714 2.14632 10.8755 2.14557 10.2671C2.14857 9.98371 2.1893 9.70204 2.26665 9.4295L1.53596 9.04004C1.40661 9.43903 1.3404 9.85588 1.33972 10.2754C1.34462 11.0338 1.56112 11.7757 1.9647 12.4171C2.36828 13.0585 2.94283 13.5738 3.6233 13.9045C4.30377 14.2353 5.06298 14.3684 5.81498 14.2888C6.56698 14.2092 7.28174 13.92 7.87833 13.454L7.82823 13.9481C7.82244 14.0028 7.82746 14.0582 7.84301 14.1109C7.85856 14.1637 7.88433 14.2129 7.91884 14.2557C7.95335 14.2985 7.99593 14.334 8.04415 14.3603C8.09236 14.3865 8.14526 14.403 8.19983 14.4088H8.24576C8.34963 14.4093 8.44997 14.371 8.52717 14.3013C8.60438 14.2316 8.65291 14.1355 8.6633 14.0319L8.83866 12.3316C8.84486 12.271 8.83782 12.2098 8.81801 12.1523C8.7982 12.0947 8.76611 12.0421 8.72397 11.9983C8.68183 11.9544 8.63066 11.9203 8.57403 11.8983C8.5174 11.8763 8.45667 11.867 8.39608 11.871L8.3919 11.8752Z" fill="currentColor"/>
</svg>
