<svg width="24" height="24" viewBox="0 0 24 24" fill="currentColor" xmlns="http://www.w3.org/2000/svg">
<path fill-rule="evenodd" clip-rule="evenodd" d="M10.3264 1.32324H3.65971C2.73923 1.32324 1.99304 2.02554 1.99304 2.89187V13.0879C1.99304 13.9543 2.73923 14.6566 3.65971 14.6566H13.6597C14.5802 14.6566 15.3264 13.9543 15.3264 13.0879V6.02912L10.3264 1.32324ZM4.07638 6.76442H7.40971C7.63983 6.76442 7.82638 6.93999 7.82638 7.15658C7.82638 7.37316 7.63983 7.54873 7.40971 7.54873H4.07638C3.84626 7.54873 3.65971 7.37316 3.65971 7.15658C3.65971 6.93999 3.84626 6.76442 4.07638 6.76442ZM11.5764 12.2546H4.07638C3.84626 12.2546 3.65971 12.079 3.65971 11.8625C3.65971 11.6459 3.84626 11.4703 4.07638 11.4703H11.5764C11.8065 11.4703 11.993 11.6459 11.993 11.8625C11.993 12.079 11.8065 12.2546 11.5764 12.2546ZM11.5764 9.85265H4.07638C3.84626 9.85265 3.65971 9.67708 3.65971 9.4605C3.65971 9.24391 3.84626 9.06834 4.07638 9.06834H11.5764C11.8065 9.06834 11.993 9.24391 11.993 9.4605C11.993 9.67708 11.8065 9.85265 11.5764 9.85265ZM10.3264 6.02912V2.10756L14.5597 6.02912H10.3264Z" fill="currentColor"/>
</svg>
