<svg width="24" height="24" viewBox="0 0 24 24" fill="currentColor" xmlns="http://www.w3.org/2000/svg">
<path d="M10.828 8.26953C12.8725 8.26956 14.6186 9.59368 15.326 11.4629C14.6186 13.332 12.8724 14.6572 10.828 14.6572C8.78365 14.657 7.03732 13.3321 6.32996 11.4629C7.03737 9.59381 8.78373 8.26972 10.828 8.26953ZM10.828 9.12793C9.3154 9.1281 7.94303 10.0365 7.27917 11.4629C7.94299 12.8894 9.31533 13.7987 10.828 13.7988C12.3407 13.7988 13.7129 12.8894 14.3768 11.4629C13.7129 10.0363 12.3408 9.12795 10.828 9.12793ZM12.4471 1.32324C13.0398 1.32324 13.5099 1.77735 13.5555 2.34961L13.5594 2.44141V6.43555H12.2743V2.60059H3.2782V11.5459L5.20496 11.543L5.20691 12.8203L3.11707 12.8232C3.02677 12.8232 2.93732 12.8131 2.85046 12.792C2.38188 12.678 2.03802 12.2779 1.99695 11.8018L1.99304 11.7061V2.44141C1.99304 1.8551 2.44751 1.37383 3.02527 1.32715L3.11707 1.32324H12.4471ZM10.9882 10.2656C11.6979 10.2656 12.2733 10.8375 12.2733 11.543C12.2732 12.2484 11.6979 12.8203 10.9882 12.8203C10.2789 12.8198 9.7031 12.2481 9.703 11.543C9.70301 10.8377 10.2788 10.2661 10.9882 10.2656ZM11.3094 11.543C11.1324 11.5434 10.9882 11.6862 10.9882 11.8623C10.9883 12.0383 11.1325 12.1812 11.3094 12.1816C11.4868 12.1816 11.6306 12.0386 11.6307 11.8623C11.6307 11.6859 11.4869 11.543 11.3094 11.543ZM10.6307 11.0742C10.5221 11.0745 10.4335 11.1612 10.4335 11.2686C10.4336 11.3758 10.5221 11.4626 10.6307 11.4629C10.7396 11.4629 10.8279 11.3759 10.828 11.2686C10.828 11.1611 10.7396 11.0742 10.6307 11.0742ZM8.09949 7.71094C8.27582 7.71099 8.41882 7.85393 8.41882 8.03027C8.41858 8.20641 8.27567 8.34955 8.09949 8.34961H5.52527C5.34904 8.34961 5.20617 8.20645 5.20593 8.03027C5.20593 7.85389 5.34889 7.71094 5.52527 7.71094H8.09949ZM9.38464 6.43262C9.56082 6.43268 9.70375 6.57581 9.70398 6.75195C9.70398 6.92829 9.56097 7.07122 9.38464 7.07129H5.52527C5.34889 7.07129 5.20593 6.92833 5.20593 6.75195C5.20617 6.57577 5.34903 6.43262 5.52527 6.43262H9.38464ZM10.6698 5.15527C10.846 5.15535 10.989 5.29843 10.9891 5.47461C10.9891 5.65094 10.8461 5.79387 10.6698 5.79395H5.52527C5.34889 5.79395 5.20593 5.65099 5.20593 5.47461C5.20611 5.29838 5.349 5.15527 5.52527 5.15527H10.6698Z" fill="currentColor"/>
</svg>