<svg width="24" height="24" viewBox="0 0 24 24" fill="none" xmlns="http://www.w3.org/2000/svg">
<g id="ic_BWCE_small">
<g id="BWCE">
<path d="M1.95874 14.0001V9.33342H4.05207C4.58541 9.33342 5.00541 9.48008 5.27207 9.74675C5.47874 9.95342 5.58541 10.2068 5.58541 10.5201V10.5334C5.58541 11.0934 5.26541 11.3934 4.91874 11.5734C5.46541 11.7601 5.84541 12.0734 5.84541 12.7068V12.7201C5.84541 13.5534 5.15874 14.0001 4.11874 14.0001H1.95874ZM4.76541 10.6668V10.6534C4.76541 10.2868 4.47207 10.0601 3.94541 10.0601H2.76541V11.3001H3.88541C4.41207 11.3001 4.76541 11.0934 4.76541 10.6668ZM5.02541 12.6201C5.02541 12.2268 4.71207 11.9934 4.06541 11.9934H2.76541V13.2734H4.12541C4.68541 13.2734 5.02541 13.0534 5.02541 12.6334V12.6201Z" fill="#8493A8"/>
<path d="M7.93895 14.0334L6.31228 9.33342H7.19895L8.31228 12.7934L9.45895 9.32008H10.1523L11.2989 12.7934L12.4123 9.33342H13.2723L11.6523 14.0334H10.9389L9.79228 10.6801L8.64561 14.0334H7.93895Z" fill="#8493A8"/>
<path d="M16.0199 14.0801C14.6599 14.0801 13.6466 13.0201 13.6466 11.6801V11.6668C13.6466 10.3401 14.6399 9.25342 16.0533 9.25342C16.9133 9.25342 17.4333 9.55342 17.8799 9.98008L17.3533 10.5868C16.9799 10.2401 16.5799 10.0068 16.0466 10.0068C15.1599 10.0068 14.5066 10.7401 14.5066 11.6534V11.6668C14.5066 12.5801 15.1533 13.3201 16.0466 13.3201C16.6199 13.3201 16.9866 13.0934 17.3866 12.7201L17.9133 13.2534C17.4266 13.7601 16.8933 14.0801 16.0199 14.0801Z" fill="#8493A8"/>
<path d="M18.7751 14.0001V9.33342H22.2351V10.0668H19.5951V11.2801H21.9351V12.0134H19.5951V13.2668H22.2685V14.0001H18.7751Z" fill="#8493A8"/>
</g>
</g>
</svg>
