<svg width="30" height="30" viewBox="0 0 30 30" fill="none" xmlns="http://www.w3.org/2000/svg">
<g id="Group 3073">
<g id="Group 3075">
<path id="Rectangle 1222" d="M0 6.66667C0 2.98477 2.98477 0 6.66667 0H23.3333C27.0152 0 30 2.98477 30 6.66667V23.3333C30 27.0152 27.0152 30 23.3333 30H6.66667C2.98477 30 0 27.0152 0 23.3333V6.66667Z" fill="#318DDE"/>
<g id="DP">
<path d="M4.83337 20V8.33337H9.18337C12.85 8.33337 15.3834 10.85 15.3834 14.1334V14.1667C15.3834 17.45 12.85 20 9.18337 20H4.83337ZM9.18337 10.2H6.88337V18.1334H9.18337C11.6334 18.1334 13.2334 16.4834 13.2334 14.2V14.1667C13.2334 11.8834 11.6334 10.2 9.18337 10.2Z" fill="#F4F4F4"/>
<path d="M17.0371 20V8.33337H21.6371C24.3705 8.33337 26.0705 9.88337 26.0705 12.2334V12.2667C26.0705 14.8834 23.9705 16.25 21.4038 16.25H19.0872V20H17.0371ZM19.0872 14.4H21.4705C23.0205 14.4 23.9872 13.5334 23.9872 12.3167V12.2834C23.9872 10.9167 23.0038 10.2 21.4705 10.2H19.0872V14.4Z" fill="#F4F4F4"/>
</g>
</g>
</g>
</svg>
