<svg width="24" height="24" viewBox="0 0 24 24" fill="none" xmlns="http://www.w3.org/2000/svg">
<g id="ic_flogo">
<path id="flogo" fill-rule="evenodd" clip-rule="evenodd" d="M5.51209 12.7436C6.99557 14.037 8.19087 14.8131 9.0566 15.2874C8.35566 14.8564 7.49033 14.296 6.666 13.5198C5.30591 12.3123 2.13237 8.56134 2.91531 5.2414C3.20389 4.12046 3.65725 5.06901 3.78104 5.2414C3.90443 5.41379 4.93494 7.61279 6.13024 9.76848C6.707 10.8032 7.28415 11.7518 7.8613 12.5713C7.53133 11.8813 7.36654 11.3637 7.28415 11.0622C6.91318 9.6394 6.87218 8.25945 7.11936 7.52659C7.36654 6.83662 7.69651 6.70712 7.8199 6.70712C7.98469 6.75043 7.7789 8.38895 8.56184 11.5794C8.85042 12.8298 9.46856 14.2527 9.88093 15.1579C9.96332 14.6836 10.1281 14.2527 10.4167 13.9079C10.5401 13.6922 10.7049 13.5198 10.911 13.3474C11.3644 12.9593 11.9002 12.6575 12.5597 12.5713C12.1477 12.3556 11.7768 12.1399 11.7354 12.1399C11.7354 12.1399 11.6116 12.097 11.653 11.9675C11.6944 11.838 12.024 11.8813 12.9721 12.4418C12.1887 11.9246 12.0653 11.838 12.0653 11.838L11.9826 11.7951C11.9826 11.7951 11.9002 11.7518 11.9826 11.7089C12.024 11.6656 12.1887 11.6656 12.3949 11.7518C12.5187 11.838 12.7659 11.9675 12.9721 12.097C12.7245 11.8813 12.6835 11.8813 12.6835 11.8813L12.4773 11.7089C12.4773 11.7089 12.4359 11.6656 12.4773 11.6227C12.5187 11.5794 12.6421 11.5794 12.8069 11.7089C12.9307 11.838 13.5902 12.4851 13.6312 12.6141C14.0846 12.6575 14.7027 12.9593 15.0327 13.4336C15.1561 13.3474 15.2799 13.3041 15.4037 13.3474H15.4861H15.5685C15.6095 13.3474 15.6095 13.3474 15.6095 13.3903L15.6509 13.4336L15.6922 13.4765L15.7332 13.5198C15.9394 13.7351 15.9804 14.037 15.8156 14.2527C16.6814 14.037 17.5881 13.9508 18.5358 13.9508C20.1021 13.9508 21.586 14.2527 22.946 14.8131C21.9155 14.5113 20.844 14.3822 19.7311 14.3822C18.4124 14.3822 17.1347 14.5974 15.9394 14.9855C15.8156 15.0288 15.6509 15.0717 15.5271 15.115C15.0327 15.3736 14.5793 15.6755 14.126 16.0636C14.0846 16.1065 14.0846 16.1065 14.0436 16.1498C13.755 16.6241 13.4254 17.1416 12.9721 17.745C12.3535 18.6507 11.5292 18.9093 10.4991 18.9093C9.88093 18.9093 9.55096 18.7798 9.0976 18.5212C9.0152 18.6074 8.27326 19.0816 8.06708 19.2111C7.8613 19.3402 7.69651 19.2973 7.65512 19.254C7.61372 19.2111 7.65512 19.1678 7.65512 19.1678L7.94369 18.9954C7.94369 18.9954 7.98469 18.9954 8.31466 18.7369C8.02608 18.8659 7.65512 19.0387 7.53133 19.0816C7.24315 19.2111 7.03697 19.1678 6.99557 19.0816C6.95457 19.0387 6.99557 18.9954 7.03697 18.9526C7.07796 18.9526 7.16036 18.9093 7.16036 18.9093C7.16036 18.9093 7.32554 18.8231 8.43805 18.3488C7.11936 18.9093 6.666 18.8659 6.6246 18.7369C6.5836 18.6074 6.74839 18.5645 6.78979 18.5645C6.78979 18.5645 7.61372 18.2626 8.27326 18.0469L8.23227 18.004C8.27326 17.5726 8.31466 17.2707 8.60324 16.7964C7.53133 17.2707 6.00645 17.5726 4.39919 17.2278C3.20389 16.9688 2.66813 16.3222 2.79192 16.0636C2.95671 15.6755 5.92406 16.1498 7.9023 16.1931C6.29503 16.1065 3.98682 15.5893 2.46195 14.5113C1.43183 13.7784 1.22565 13.0022 1.43183 12.8298C1.76141 12.528 4.85255 14.4251 6.6246 15.2012C7.32554 15.5031 8.14987 15.7188 8.72663 15.805C8.27326 15.7188 7.73751 15.5893 7.11936 15.3307C5.51209 14.6836 1.43183 12.5713 1.06086 9.2942C0.978468 8.30276 1.67901 8.94943 1.8438 9.12182C2.50334 9.76848 3.78104 11.2346 5.51209 12.7436Z" fill="#8493A8"/>
</g>
</svg>
