<svg width="496" height="112" viewBox="0 0 496 112" fill="none" xmlns="http://www.w3.org/2000/svg">
<rect width="496" height="112" rx="6" fill="#BFDCFF"/>
<path d="M93.1715 30.0027C95.5417 27.6325 95.9874 23.1738 96.9756 23.1738C97.9638 23.1738 98.4096 27.6325 100.78 30.0027C103.15 32.3729 107.579 32.6239 107.579 33.7775C107.579 34.9311 103.15 35.1822 100.78 37.5523C98.4096 39.9226 97.9638 44.3812 96.9756 44.3812C95.9874 44.3812 95.5417 39.9226 93.1715 37.5523C90.8013 35.1822 86.3721 34.9311 86.3721 33.7775C86.3721 32.6239 90.8013 32.3729 93.1715 30.0027Z" fill="#FF610A" stroke="#0E4F9E" stroke-width="2" stroke-linecap="round" stroke-linejoin="round"/>
<path d="M192.811 40.0391C192.636 40.0391 192.461 40.1069 192.327 40.2423L170.239 63.1667C169.983 63.4375 169.983 63.8708 170.252 64.128C170.522 64.3853 170.939 64.3853 171.208 64.1145L192.838 41.664L216.649 64.128C216.891 64.3582 217.254 64.3718 217.524 64.1687L246.018 41.9484C246.314 41.7182 246.368 41.2984 246.139 41.0005C245.91 40.7026 245.493 40.6485 245.197 40.8787L217.16 62.7469L193.282 40.2152C193.134 40.0933 192.973 40.0391 192.811 40.0391Z" fill="#0E4F9E"/>
<path d="M176.767 63.6399C176.767 60.2818 174.061 57.5601 170.723 57.5601C167.385 57.5601 164.68 60.2818 164.68 63.6399C164.68 66.998 167.385 69.7197 170.723 69.7197C174.061 69.7332 176.767 66.998 176.767 63.6399Z" fill="white"/>
<path d="M170.711 56.8839C167.009 56.8839 163.994 59.917 163.994 63.6407C163.994 67.3643 167.009 70.3975 170.711 70.3975C174.412 70.3975 177.427 67.3643 177.427 63.6407C177.427 59.917 174.426 56.8839 170.711 56.8839ZM170.711 69.0569C167.749 69.0569 165.34 66.6332 165.34 63.6542C165.34 60.6752 167.749 58.2515 170.711 58.2515C173.672 58.2515 176.081 60.6752 176.081 63.6542C176.095 66.6196 173.685 69.0569 170.711 69.0569Z" fill="#0E4F9E"/>
<path d="M198.855 41.4192C198.855 38.0612 196.149 35.3395 192.811 35.3395C189.473 35.3395 186.768 38.0612 186.768 41.4192C186.768 44.7773 189.473 47.499 192.811 47.499C196.149 47.499 198.855 44.7773 198.855 41.4192Z" fill="#0E4F9E"/>
<path d="M192.81 34.6495C189.109 34.6495 186.094 37.6826 186.094 41.4063C186.094 45.13 189.109 48.1631 192.81 48.1631C196.512 48.1631 199.54 45.13 199.54 41.4063C199.54 37.6826 196.512 34.6495 192.81 34.6495ZM192.81 46.8226C189.849 46.8226 187.44 44.3988 187.44 41.4198C187.44 38.4409 189.849 36.0171 192.81 36.0171C195.771 36.0171 198.194 38.4409 198.194 41.4198C198.181 44.3988 195.771 46.8226 192.81 46.8226Z" fill="#0E4F9E"/>
<path d="M289.283 76.123C289.108 76.123 288.933 76.0553 288.798 75.9198L266.711 52.9955C266.455 52.7246 266.455 52.2913 266.724 52.0341C266.993 51.7768 267.411 51.7768 267.68 52.0476L289.31 74.4981L313.12 52.0341C313.363 51.8039 313.726 51.7903 313.995 51.9934L331.757 65.3588C332.053 65.589 332.107 66.0088 331.878 66.3067C331.65 66.6045 331.232 66.6587 330.936 66.4285L313.632 53.4152L289.754 75.9469C289.606 76.0688 289.444 76.123 289.283 76.123Z" fill="#0E4F9E"/>
<path d="M319.621 52.5222C319.621 55.8803 316.916 58.602 313.578 58.602C310.24 58.602 307.534 55.8803 307.534 52.5222C307.534 49.1641 310.24 46.4424 313.578 46.4424C316.916 46.4289 319.621 49.1641 319.621 52.5222Z" fill="white"/>
<path d="M313.565 59.2783C309.863 59.2783 306.835 56.2451 306.835 52.5215C306.835 48.7978 309.85 45.7646 313.565 45.7646C317.28 45.7646 320.281 48.7978 320.281 52.5215C320.281 56.2451 317.28 59.2783 313.565 59.2783ZM313.565 47.1052C310.604 47.1052 308.181 49.529 308.181 52.5079C308.181 55.4869 310.59 57.9107 313.565 57.9107C316.526 57.9107 318.935 55.4869 318.935 52.5079C318.949 49.5425 316.54 47.1052 313.565 47.1052Z" fill="#0E4F9E"/>
<path d="M295.326 74.7429C295.326 78.101 292.621 80.8226 289.283 80.8226C285.945 80.8226 283.239 78.101 283.239 74.7429C283.239 71.3848 285.945 68.6631 289.283 68.6631C292.621 68.6631 295.326 71.3848 295.326 74.7429Z" fill="#FF610A"/>
<path d="M289.282 81.5126C285.58 81.5126 282.565 78.4795 282.565 74.7558C282.565 71.0321 285.58 67.999 289.282 67.999C292.983 67.999 296.012 71.0321 296.012 74.7558C296.012 78.4795 292.983 81.5126 289.282 81.5126ZM289.282 69.3395C286.321 69.3395 283.911 71.7633 283.911 74.7423C283.911 77.7212 286.321 80.145 289.282 80.145C292.243 80.145 294.666 77.7212 294.666 74.7423C294.652 71.7633 292.243 69.3395 289.282 69.3395Z" fill="#0E4F9E"/>
<path d="M363.164 69.2279L364.384 68.3613C363.905 67.3399 363.666 66.2493 363.652 65.1605L362.179 64.9116C361.43 64.7877 360.927 64.0751 361.057 63.3254C361.181 62.576 361.894 62.0737 362.644 62.2039L364.117 62.4529C364.484 61.4289 365.072 60.4776 365.866 59.6701L364.999 58.4496C364.559 57.8302 364.703 56.9772 365.323 56.537C365.942 56.0968 366.795 56.2413 367.236 56.8608L368.102 58.0812C369.124 57.6023 370.214 57.3635 371.303 57.3492L371.552 55.876C371.676 55.1266 372.388 54.6242 373.138 54.7544C373.887 54.8783 374.39 55.5909 374.26 56.3406L374.011 57.8138C375.035 58.1807 375.986 58.769 376.793 59.5629L378.014 58.6962C378.633 58.256 379.486 58.4005 379.926 59.02C380.367 59.6395 380.222 60.4924 379.603 60.9326L378.382 61.7992C378.861 62.8206 379.1 63.9112 379.114 65L380.587 65.2489C381.337 65.3728 381.839 66.0854 381.709 66.8351C381.585 67.5845 380.873 68.0869 380.123 67.9566L378.65 67.7077C378.283 68.7316 377.695 69.6829 376.901 70.4905L377.767 71.7109C378.207 72.3304 378.063 73.1833 377.444 73.6235C376.824 74.0637 375.971 73.9192 375.531 73.2997L374.664 72.0793C373.643 72.5582 372.552 72.797 371.463 72.8113L371.215 74.2845C371.091 75.0339 370.378 75.5363 369.628 75.4061C368.879 75.2822 368.377 74.5696 368.507 73.8199L368.756 72.3467C367.732 71.9798 366.781 71.3916 365.973 70.5976L364.753 71.4643C364.133 71.9045 363.28 71.76 362.84 71.1405C362.4 70.5275 362.544 69.6681 363.164 69.2279ZM374.617 69.6464C377.138 67.8579 377.731 64.3685 375.943 61.8535C374.155 59.332 370.665 58.7387 368.15 60.5269C365.629 62.3154 365.036 65.8048 366.824 68.3198C368.606 70.8416 372.095 71.4349 374.617 69.6464Z" fill="#0E4F9E"/>
<path d="M369.933 75.7171C370.694 75.6802 371.359 75.116 371.487 74.3344L371.696 73.0938C372.687 73.0521 373.645 72.8391 374.555 72.4425L375.284 73.4709C375.814 74.2206 376.854 74.3944 377.597 73.8649C377.957 73.6104 378.201 73.2269 378.276 72.7875C378.35 72.3481 378.252 71.9106 377.991 71.5516L377.262 70.5232C377.938 69.7983 378.462 68.9654 378.821 68.038L380.061 68.247C380.959 68.402 381.821 67.7899 381.975 66.8852C382.13 65.9805 381.518 65.1259 380.614 64.9711L379.373 64.7621C379.338 63.7705 379.118 62.8135 378.722 61.9035L379.75 61.1743C380.5 60.6445 380.674 59.6043 380.144 58.861C379.89 58.5017 379.506 58.2575 379.067 58.1827C378.627 58.1079 378.19 58.206 377.831 58.467L376.802 59.1962C376.077 58.52 375.245 57.9965 374.317 57.6377L374.526 56.3972C374.681 55.4925 374.069 54.6378 373.164 54.483C372.266 54.3279 371.405 54.9401 371.25 55.8447L371.041 57.0853C370.056 57.1203 369.093 57.3401 368.183 57.7367L367.454 56.7082C367.199 56.3489 366.815 56.1048 366.376 56.0299C365.937 55.9551 365.499 56.0533 365.14 56.3142C364.781 56.5687 364.537 56.9523 364.462 57.3917C364.387 57.8311 364.485 58.2685 364.746 58.6275L365.475 59.656C364.799 60.3809 364.276 61.2137 363.917 62.1411L362.676 61.9322C361.772 61.7774 360.917 62.3892 360.762 63.2939C360.607 64.1986 361.219 65.0533 362.124 65.208L363.365 65.417C363.4 66.4086 363.619 67.3656 364.016 68.2756L362.987 69.0048C362.238 69.5346 362.064 70.5748 362.593 71.3181C362.848 71.6775 363.231 71.9216 363.671 71.9964C364.11 72.0712 364.548 71.9731 364.907 71.7122L365.935 70.983C366.66 71.6591 367.499 72.1824 368.42 72.5414L368.211 73.782C368.057 74.6867 368.668 75.5413 369.573 75.6961C369.696 75.7158 369.818 75.7227 369.933 75.7171ZM371.214 72.5277L370.925 74.2399C370.825 74.8279 370.262 75.2269 369.674 75.1273C369.086 75.0277 368.687 74.4638 368.786 73.8758L369.075 72.1636L368.847 72.085C367.836 71.7239 366.937 71.1523 366.17 70.4012L366.001 70.23L364.582 71.2344C364.347 71.3997 364.062 71.4648 363.771 71.4212C363.487 71.3709 363.236 71.2165 363.071 70.981C362.905 70.7455 362.84 70.4539 362.884 70.1698C362.934 69.8853 363.088 69.6343 363.324 69.4691L364.743 68.4646L364.642 68.2452C364.185 67.2741 363.949 66.2346 363.942 65.1647L363.936 64.9214L362.224 64.6328C361.636 64.5332 361.237 63.9694 361.337 63.3814C361.436 62.7934 362 62.3943 362.588 62.494L364.301 62.7826L364.379 62.5545C364.747 61.5433 365.312 60.6444 366.063 59.8774L366.234 59.7089L365.23 58.2901C365.064 58.0546 364.999 57.7629 365.043 57.4788C365.093 57.1944 365.248 56.9434 365.483 56.7782C365.719 56.613 366.01 56.5475 366.294 56.5914C366.579 56.6417 366.83 56.7962 366.995 57.0317L367.999 58.4505L368.219 58.3501C369.19 57.8929 370.223 57.6569 371.299 57.6495L371.543 57.6441L371.831 55.9319C371.931 55.3439 372.495 54.9449 373.083 55.0445C373.671 55.1442 374.07 55.708 373.97 56.296L373.682 58.0082L373.91 58.0869C374.921 58.4543 375.82 59.0195 376.587 59.7706L376.762 59.9415L378.18 58.937C378.416 58.7718 378.708 58.7064 378.992 58.7503C379.276 58.8006 379.527 58.955 379.692 59.1905C380.036 59.6801 379.922 60.3585 379.432 60.7027L378.014 61.7072L378.114 61.9266C378.571 62.8977 378.808 63.9372 378.815 65.0071L378.82 65.2504L380.532 65.539C381.12 65.6386 381.519 66.2024 381.42 66.7904C381.32 67.3784 380.756 67.7775 380.168 67.6778L378.456 67.3892L378.377 67.6173C378.01 68.6285 377.445 69.5274 376.694 70.2944L376.523 70.4693L377.527 71.8881C377.692 72.1236 377.758 72.4153 377.714 72.6994C377.664 72.9838 377.509 73.2348 377.274 73.4C376.784 73.7442 376.106 73.6297 375.761 73.1401L374.757 71.7213L374.538 71.8217C373.566 72.2789 372.533 72.5149 371.457 72.5223L371.214 72.5277ZM371.676 70.9608C372.782 70.9071 373.854 70.5411 374.783 69.8808C376.065 68.9727 376.916 67.6177 377.174 66.0736C377.439 64.5227 377.082 62.97 376.173 61.6875C375.265 60.405 373.91 59.5543 372.366 59.2896C370.815 59.0252 369.262 59.3825 367.98 60.2906C365.335 62.1685 364.712 65.8451 366.583 68.4907C367.491 69.7732 368.846 70.6239 370.391 70.8822C370.823 70.9509 371.254 70.9813 371.676 70.9608ZM371.115 59.7861C372.866 59.7011 374.622 60.4811 375.709 62.0113C377.401 64.3964 376.837 67.7113 374.452 69.4034C372.067 71.0956 368.752 70.5323 367.06 68.1471C365.368 65.762 365.931 62.4471 368.316 60.7549C369.165 60.1498 370.137 59.8336 371.115 59.7861Z" fill="#0E4F9E"/>
<g clip-path="url(#clip0_11563_20369)">
<path d="M249.911 33.815C248.712 33.7914 247.505 33.7793 246.291 33.7793C239.407 33.7793 232.676 34.1441 226.233 34.8209C222.419 35.2214 219.321 38.0864 218.773 41.8819C218.08 46.6809 217.72 51.6934 217.72 56.7875C217.72 61.7079 218.079 66.4879 218.727 71.1373C219.292 75.2006 222.725 78.1884 226.81 78.5683C227.139 78.5989 227.469 78.63 227.799 78.6607C228.829 78.7567 229.865 78.8536 230.907 78.9478V90.9221C237.332 88.0362 241.008 85.3103 245.803 79.7948C245.966 79.7953 246.128 79.7958 246.291 79.7958C253.091 79.7958 259.675 79.3848 266.062 78.7361C270.015 78.3343 273.215 75.3318 273.77 71.3976C274.357 67.2476 274.755 62.9885 274.844 58.6219" fill="white"/>
<path d="M249.911 33.815C248.712 33.7914 247.505 33.7793 246.291 33.7793C239.407 33.7793 232.676 34.1441 226.233 34.8209C222.419 35.2214 219.321 38.0864 218.773 41.8819C218.08 46.6809 217.72 51.6934 217.72 56.7875C217.72 61.7079 218.079 66.4879 218.727 71.1373C219.292 75.2005 222.725 78.1884 226.81 78.5683C227.139 78.599 227.469 78.63 227.799 78.6607C228.829 78.7567 229.865 78.8536 230.907 78.9478V90.9222C237.332 88.0362 241.008 85.3103 245.803 79.7948C245.966 79.7953 246.128 79.7958 246.291 79.7958C253.091 79.7958 259.675 79.3848 266.062 78.7361C270.015 78.3343 273.215 75.3318 273.77 71.3976C274.357 67.2476 274.755 62.9885 274.844 58.6219" stroke="#0E4F9E" stroke-width="3" stroke-linecap="round" stroke-linejoin="round"/>
<path d="M262.862 29.9932C263.646 29.9932 264.177 30.4451 264.46 30.7666C264.747 31.0929 264.963 31.4874 265.129 31.834C265.459 32.5242 265.796 33.4769 266.131 34.3672C266.853 36.2855 267.709 38.2929 269.049 39.6328C270.376 40.9598 272.352 41.7503 274.271 42.4385C275.159 42.7566 276.121 43.0828 276.829 43.4316C277.187 43.6079 277.595 43.8433 277.93 44.168C278.282 44.5095 278.648 45.0494 278.648 45.7793C278.648 46.5089 278.282 47.0482 277.93 47.3896C277.595 47.7143 277.187 47.9498 276.829 48.126C276.121 48.4748 275.159 48.801 274.271 49.1191C272.352 49.8073 270.376 50.5979 269.049 51.9248C267.709 53.2647 266.853 55.2722 266.131 57.1904C265.796 58.0808 265.459 59.0334 265.129 59.7236C264.963 60.0702 264.747 60.4647 264.46 60.791C264.177 61.1125 263.646 61.5645 262.862 61.5645C262.079 61.5643 261.549 61.1125 261.266 60.791C260.978 60.4647 260.763 60.0702 260.597 59.7236C260.266 59.0334 259.93 58.0808 259.595 57.1904C258.872 55.2721 258.017 53.2647 256.677 51.9248C255.35 50.5979 253.373 49.8073 251.454 49.1191C250.567 48.801 249.605 48.4748 248.896 48.126C248.539 47.9498 248.131 47.7143 247.796 47.3896C247.466 47.0694 247.122 46.5752 247.081 45.9131L247.077 45.7793L247.081 45.6445C247.123 44.9825 247.466 44.4882 247.796 44.168C248.131 43.8433 248.539 43.6078 248.896 43.4316C249.605 43.0828 250.567 42.7566 251.454 42.4385C253.373 41.7503 255.35 40.9598 256.677 39.6328C258.017 38.2929 258.872 36.2855 259.595 34.3672C259.93 33.4769 260.266 32.5242 260.597 31.834C260.763 31.4874 260.978 31.0929 261.266 30.7666C261.549 30.4451 262.079 29.9933 262.862 29.9932Z" fill="#FF610A" stroke="#AECFF6" stroke-width="3" stroke-linecap="round" stroke-linejoin="round"/>
</g>
<path d="M274.92 29.1309C275.684 28.3669 275.828 26.9297 276.146 26.9297C276.465 26.9297 276.609 28.3669 277.373 29.1309C278.137 29.8949 279.564 29.9758 279.564 30.3477C279.564 30.7195 278.137 30.8004 277.373 31.5644C276.609 32.3284 276.465 33.7656 276.146 33.7656C275.828 33.7656 275.684 32.3284 274.92 31.5644C274.156 30.8004 272.729 30.7195 272.729 30.3477C272.729 29.9758 274.156 29.8949 274.92 29.1309Z" fill="#0E4F9E" stroke="#0E4F9E" stroke-linecap="round" stroke-linejoin="round"/>
<path d="M330.833 81.9504L332.989 80.6663C332.323 78.8931 332.069 77.0403 332.202 75.2222L329.771 74.603C328.539 74.2921 327.799 73.0391 328.11 71.8076C328.421 70.5761 329.674 69.8359 330.905 70.1468L333.337 70.7659C334.094 69.1072 335.198 67.6025 336.629 66.3607L335.345 64.2051C334.698 63.1113 335.056 61.7047 336.145 61.0547C337.239 60.4073 338.645 60.7661 339.295 61.8545L340.579 64.0102C342.353 63.3444 344.205 63.0902 346.024 63.2234L346.643 60.7922C346.954 59.5607 348.207 58.8205 349.438 59.1314C350.67 59.4423 351.41 60.6954 351.099 61.9269L350.48 64.358C352.139 65.115 353.643 66.2196 354.885 67.6506L357.041 66.3666C358.134 65.7192 359.541 66.078 360.191 67.1664C360.838 68.2602 360.48 69.6668 359.391 70.3168L357.236 71.6009C357.901 73.3741 358.156 75.2269 358.022 77.0451L360.454 77.6642C361.685 77.9751 362.425 79.2281 362.114 80.4597C361.803 81.6912 360.55 82.4313 359.319 82.1204L356.888 81.5013C356.131 83.16 355.026 84.6647 353.595 85.9065L354.879 88.0621C355.527 89.1559 355.168 90.5626 354.079 91.2126C352.986 91.8599 351.579 91.5012 350.929 90.4127L349.645 88.2571C347.872 88.9228 346.019 89.1771 344.201 89.0438L343.582 91.475C343.271 92.7065 342.018 93.4467 340.786 93.1358C339.555 92.8249 338.814 91.5718 339.125 90.3403L339.744 87.9092C338.086 87.1522 336.581 86.0476 335.339 84.6166L333.184 85.9007C332.09 86.548 330.683 86.1893 330.033 85.1008C329.383 84.0124 329.745 82.6004 330.833 81.9504Z" fill="white"/>
<path d="M351.337 72.4343C353.376 75.8694 352.251 80.3104 348.814 82.3537C345.377 84.3971 340.938 83.268 338.894 79.8309C336.855 76.3958 337.98 71.9548 341.417 69.9115C344.852 67.8723 349.293 68.9972 351.337 72.4343Z" fill="#AECFF6"/>
<path d="M330.833 81.9504L332.989 80.6663C332.323 78.8931 332.069 77.0403 332.202 75.2222L329.771 74.603C328.539 74.2921 327.799 73.0391 328.11 71.8076C328.421 70.5761 329.674 69.8359 330.905 70.1468L333.337 70.7659C334.094 69.1072 335.198 67.6025 336.629 66.3607L335.345 64.2051C334.698 63.1113 335.056 61.7047 336.145 61.0547C337.239 60.4073 338.645 60.7661 339.295 61.8545L340.579 64.0102C342.353 63.3444 344.205 63.0902 346.024 63.2234L346.643 60.7922C346.954 59.5607 348.207 58.8205 349.438 59.1314C350.67 59.4423 351.41 60.6954 351.099 61.9269L350.48 64.358C352.139 65.115 353.643 66.2196 354.885 67.6506L357.041 66.3666C358.134 65.7192 359.541 66.078 360.191 67.1664C360.838 68.2602 360.48 69.6668 359.391 70.3168L357.236 71.6009C357.901 73.3741 358.156 75.2269 358.022 77.0451L360.454 77.6642C361.685 77.9751 362.425 79.2281 362.114 80.4597C361.803 81.6912 360.55 82.4313 359.319 82.1204L356.888 81.5013C356.131 83.16 355.026 84.6647 353.595 85.9065L354.879 88.0621C355.527 89.1559 355.168 90.5626 354.079 91.2126C352.986 91.8599 351.579 91.5012 350.929 90.4127L349.645 88.2571C347.872 88.9228 346.019 89.1771 344.201 89.0438L343.582 91.475C343.271 92.7065 342.018 93.4467 340.786 93.1358C339.555 92.8249 338.814 91.5718 339.125 90.3403L339.744 87.9092C338.086 87.1522 336.581 86.0476 335.339 84.6166L333.184 85.9007C332.09 86.548 330.683 86.1893 330.033 85.1008C329.383 84.0124 329.745 82.6004 330.833 81.9504Z" stroke="#0E4F9E" stroke-width="2"/>
<path d="M351.337 72.4343C353.376 75.8694 352.251 80.3104 348.814 82.3537C345.377 84.3971 340.938 83.268 338.894 79.8309C336.855 76.3958 337.98 71.9548 341.417 69.9115C344.852 67.8723 349.293 68.9972 351.337 72.4343Z" stroke="#0E4F9E" stroke-width="2"/>
<path d="M133.906 66.0411C133.571 66.0411 133.309 65.7772 133.309 65.4413V58.8069C133.309 58.471 133.571 58.207 133.906 58.207C134.24 58.207 134.503 58.471 134.503 58.8069V65.4413C134.515 65.7772 134.24 66.0411 133.906 66.0411Z" fill="#0E4F9E"/>
<path d="M133.906 83.0782C133.571 83.0782 133.309 82.8143 133.309 82.4784V75.844C133.309 75.5081 133.571 75.2441 133.906 75.2441C134.24 75.2441 134.503 75.5081 134.503 75.844V82.4784C134.515 82.8143 134.24 83.0782 133.906 83.0782Z" fill="#0E4F9E"/>
<path d="M145.689 71.2505H139.085C138.751 71.2505 138.488 70.9866 138.488 70.6506C138.488 70.3147 138.751 70.0508 139.085 70.0508H145.689C146.023 70.0508 146.286 70.3147 146.286 70.6506C146.286 70.9746 146.023 71.2505 145.689 71.2505Z" fill="#0E4F9E"/>
<path d="M128.734 71.2505H122.13C121.796 71.2505 121.533 70.9866 121.533 70.6506C121.533 70.3147 121.796 70.0508 122.13 70.0508H128.734C129.068 70.0508 129.331 70.3147 129.331 70.6506C129.331 70.9746 129.068 71.2505 128.734 71.2505Z" fill="#0E4F9E"/>
<path d="M125.581 79.6076C125.426 79.6076 125.271 79.5476 125.163 79.4277C124.925 79.1877 124.925 78.8158 125.163 78.5759L129.832 73.885C130.071 73.6451 130.441 73.6451 130.68 73.885C130.919 74.125 130.919 74.4969 130.68 74.7368L126.011 79.4277C125.892 79.5476 125.737 79.6076 125.581 79.6076Z" fill="#0E4F9E"/>
<path d="M137.572 67.5627C137.416 67.5627 137.261 67.5027 137.154 67.3827C136.915 67.1428 136.915 66.7709 137.154 66.531L141.823 61.8401C142.061 61.6002 142.432 61.6002 142.67 61.8401C142.909 62.0801 142.909 62.452 142.67 62.6919L137.99 67.3827C137.882 67.5027 137.727 67.5627 137.572 67.5627Z" fill="#0E4F9E"/>
<path d="M130.25 67.5627C130.095 67.5627 129.94 67.5027 129.832 67.3827L125.163 62.6919C124.925 62.452 124.925 62.0801 125.163 61.8401C125.402 61.6002 125.772 61.6002 126.011 61.8401L130.68 66.531C130.919 66.7709 130.919 67.1428 130.68 67.3827C130.561 67.5027 130.405 67.5627 130.25 67.5627Z" fill="#0E4F9E"/>
<path d="M142.241 79.6076C142.085 79.6076 141.93 79.5476 141.823 79.4277L137.154 74.7368C136.915 74.4969 136.915 74.125 137.154 73.885C137.393 73.6451 137.763 73.6451 138.002 73.885L142.67 78.5759C142.909 78.8158 142.909 79.1877 142.67 79.4277C142.551 79.5476 142.396 79.6076 142.241 79.6076Z" fill="#0E4F9E"/>
<defs>
<clipPath id="clip0_11563_20369">
<rect width="64" height="64" fill="white" transform="translate(215.434 29.207)"/>
</clipPath>
</defs>
</svg>
