<svg width="64" height="64" viewBox="0 0 64 64" fill="none" xmlns="http://www.w3.org/2000/svg">
<g clip-path="url(#clip0_11563_20279)">
<path d="M54.8486 48.5521C54.7586 48.5021 54.6686 48.4621 54.4986 48.3721L54.1486 48.2121C53.8186 48.0721 53.4286 47.9221 52.9986 47.7621L52.7886 47.6821L52.7286 47.6521C52.2086 47.4621 51.2186 47.1421 50.5786 46.8821C49.8486 46.5921 48.9686 46.1621 48.2786 45.4521C47.5886 44.7421 47.1686 43.8621 46.8786 43.1121C46.6086 42.4421 46.3086 41.4721 46.1086 40.9321L45.9786 40.5521C45.7786 39.9921 45.5986 39.5021 45.4386 39.1621C45.2686 38.8021 45.0686 38.4321 44.8686 38.1221C44.6386 38.4721 44.4286 38.8521 44.2886 39.1421C44.1186 39.4821 43.9386 39.9621 43.7186 40.5221C43.6686 40.6521 43.6186 40.7821 43.5686 40.9021C43.3286 41.5121 43.0286 42.3721 42.7086 43.0921C42.3786 43.8321 41.9286 44.6921 41.2386 45.3621C40.5386 46.0521 39.6786 46.4521 38.9486 46.7321C38.2886 46.9921 37.3586 47.2621 36.7986 47.4521L36.5386 47.5421L35.6886 47.8421C35.4386 47.9321 35.2186 48.0221 35.0486 48.1021L34.6486 48.2621C34.5586 48.2921 34.5086 48.3121 34.4686 48.3321C34.3086 48.4721 34.1186 48.6221 34.0186 48.6921C34.1386 48.7721 34.3186 48.9121 34.4786 49.0621L34.5886 49.1521C34.6586 49.2021 34.7486 49.2421 35.0386 49.3921C35.4086 49.5821 35.9186 49.7721 36.5086 49.9821L36.7786 50.0821C37.3886 50.3121 38.2386 50.5921 38.9386 50.8921C39.6686 51.2021 40.4986 51.6421 41.1686 52.3221L41.4086 52.5821C41.9386 53.2121 42.3086 53.9421 42.5786 54.5821L42.7986 55.1421C43.0186 55.7121 43.2186 56.3121 43.3886 56.7821C43.4286 56.8821 43.4586 56.9921 43.4986 57.1021L43.5186 57.1621L43.8086 57.9421C43.8986 58.1821 43.9886 58.3921 44.0586 58.5621L44.2386 58.9621L44.3086 59.0721L44.3586 59.1421L44.5286 59.3821V59.4021L44.5586 59.4221C44.5786 59.4521 44.5986 59.4921 44.6186 59.5221C44.6986 59.3921 44.8286 59.2221 44.9486 59.0921C44.9586 59.0721 44.9786 59.0521 45.0186 58.9821C45.0386 58.9421 45.0686 58.8921 45.0986 58.8221C45.1286 58.7621 45.1686 58.6721 45.2086 58.5821L45.4786 57.9721C45.5686 57.7421 45.6686 57.4821 45.7786 57.2021L45.7986 57.1521C45.8386 57.0521 45.8886 56.9221 45.9186 56.8221C46.1386 56.2521 46.4486 55.3521 46.7386 54.6721C47.0486 53.9421 47.4886 53.0921 48.1886 52.4021C48.8886 51.7221 49.7486 51.3021 50.4986 51.0121L51.0586 50.8021C51.6386 50.6021 52.2486 50.4121 52.6986 50.2521L52.9686 50.1621L53.7986 49.8721C54.0486 49.7821 54.2686 49.6921 54.4586 49.6021L54.8486 49.4121C54.9186 49.3721 54.9486 49.3521 54.9686 49.3321C55.1186 49.1921 55.2986 49.0621 55.4286 48.9621C55.2986 48.8621 55.1186 48.7321 54.9786 48.5821C54.9586 48.5621 54.9286 48.5421 54.8586 48.5021L54.8486 48.5521Z" fill="white"/>
<path d="M47.0088 34.7114C47.0088 34.7114 47.0188 34.7014 47.0288 34.6914C47.0288 34.6914 47.0188 34.7014 47.0088 34.7114Z" fill="#CCCCCC"/>
<path d="M46.6691 25.0221L46.7891 25.0621L47.7691 25.4321H47.7891C48.1391 25.5921 48.5691 25.8121 48.9191 26.1721C49.2691 26.5321 49.4891 26.9621 49.6391 27.3221L50.0191 28.3421L50.0791 28.5221C50.1491 28.7121 50.2091 28.8721 50.2691 29.0021C50.3291 28.8721 50.3891 28.7121 50.4691 28.5221L50.5391 28.3521C50.6291 28.1221 50.7891 27.6721 50.9191 27.3521C51.0691 27.0021 51.2891 26.5621 51.6591 26.2021C52.0291 25.8421 52.4791 25.6321 52.8291 25.4921C53.1591 25.3621 53.5891 25.2321 53.8491 25.1421L53.9691 25.1021C54.2191 25.0121 54.4191 24.9421 54.5691 24.8821C54.4391 24.8221 54.2591 24.7521 54.0291 24.6621L53.9691 24.6421L53.8591 24.6021L52.8791 24.2521H52.8591C52.5091 24.1021 52.0491 23.8921 51.6791 23.5121C51.3091 23.1421 51.0991 22.6821 50.9591 22.3221V22.3021L50.6091 21.3121L50.5491 21.1521L50.3591 20.6621C50.3091 20.7921 50.2391 20.9521 50.1591 21.1421V21.1721H50.1491L50.0991 21.3121C49.9991 21.5721 49.8491 21.9921 49.6991 22.3321C49.5391 22.6821 49.3191 23.1221 48.9491 23.4821H48.9391L48.9191 23.5121L48.6791 23.7121L48.6491 23.7321C48.4991 23.8421 48.3491 23.9321 48.1991 24.0021L47.7691 24.1921C47.4591 24.3121 46.9991 24.4521 46.7691 24.5221L46.6491 24.5621H46.6191C46.3891 24.6521 46.1991 24.7221 46.0391 24.7921C46.1791 24.8621 46.3791 24.9321 46.6391 25.0321L46.6691 25.0221Z" fill="white"/>
<path d="M54.2588 27.6216L54.2788 27.6016C54.2788 27.6016 54.2788 27.6016 54.2688 27.6116L54.2588 27.6216Z" fill="#CCCCCC"/>
<path d="M60.119 35.1114L59.619 34.9214L59.459 34.8614L58.829 34.6414C58.599 34.5614 58.339 34.4714 58.119 34.3814C57.709 34.2214 57.199 33.9814 56.759 33.5914L56.569 33.4114C56.089 32.9214 55.809 32.3214 55.619 31.8514C55.459 31.4414 55.249 30.8014 55.139 30.4914C55.109 30.4214 55.079 30.3214 55.059 30.2514C54.929 29.9014 54.829 29.6214 54.739 29.4214V29.4014C54.739 29.4014 54.739 29.4114 54.739 29.4214C54.649 29.6114 54.539 29.8914 54.399 30.2414C54.369 30.3114 54.339 30.4014 54.309 30.4714L54.059 31.1214C53.969 31.3514 53.869 31.6114 53.769 31.8414C53.559 32.3114 53.259 32.8914 52.779 33.3614C52.289 33.8414 51.709 34.1114 51.239 34.2914C50.879 34.4314 50.369 34.5914 50.039 34.6914L49.739 34.8014C49.359 34.9314 49.069 35.0314 48.869 35.1314C48.869 35.1314 48.789 35.1614 48.749 35.1814C48.779 35.1914 48.809 35.2114 48.859 35.2414C49.059 35.3414 49.359 35.4514 49.729 35.5914L49.889 35.6514L50.539 35.8814L51.249 36.1614C51.719 36.3614 52.279 36.6514 52.749 37.1314L52.769 37.1514L52.789 37.1714L53.049 37.4714L53.069 37.4914V37.5114C53.359 37.8914 53.559 38.2914 53.719 38.6514C53.819 38.8814 53.909 39.1314 53.999 39.3714L54.229 40.0214L54.299 40.2114L54.319 40.2614C54.449 40.6114 54.539 40.8914 54.629 41.0814V41.1014C54.629 41.1014 54.649 41.0914 54.649 41.0814C54.739 40.8914 54.849 40.6214 54.979 40.2814V40.2514C55.009 40.1814 55.039 40.1014 55.069 40.0314C55.189 39.7114 55.399 39.1114 55.579 38.6914C55.779 38.2214 56.069 37.6414 56.559 37.1714C57.039 36.7014 57.639 36.4214 58.109 36.2314L58.829 35.9714L59.479 35.7514L59.649 35.6914C60.019 35.5614 60.309 35.4614 60.519 35.3614C60.569 35.3414 60.599 35.3214 60.629 35.3114C60.599 35.3014 60.569 35.2814 60.519 35.2614C60.419 35.2114 60.299 35.1614 60.149 35.1014L60.119 35.1114Z" fill="white"/>
<path d="M57.7188 48.3816C57.5888 48.1916 57.4088 48.0216 57.2388 47.8816L56.7188 47.4916C56.6488 47.4416 56.5788 47.3916 56.5088 47.3416C56.4388 47.2916 56.3888 47.2516 56.3687 47.2216C56.0287 46.8816 55.6187 46.7116 55.3687 46.5816H55.3587L55.3488 46.5716L54.9988 46.4116H54.9688L54.3388 46.1416C54.1188 46.0616 53.8987 45.9716 53.6887 45.9016L53.4188 45.8016L53.2488 45.7416H53.2388C52.5788 45.5016 51.9288 45.3016 51.3188 45.0516C50.6588 44.7916 50.0987 44.4916 49.6987 44.0816C49.2887 43.6616 48.9888 43.0816 48.7288 42.4116C48.4587 41.7316 48.2388 41.0016 47.9788 40.2816L47.8488 39.9116C47.6588 39.3816 47.4488 38.8016 47.2388 38.3516C47.0288 37.8916 46.7688 37.4116 46.4788 36.9816C46.2087 36.5716 45.8588 36.1416 45.4788 35.8416L44.8888 35.3916L44.2888 35.8216C43.8388 36.1416 43.4587 36.6416 43.1788 37.0616C42.8888 37.5016 42.6388 37.9616 42.4688 38.3016C42.3588 38.5216 42.2487 38.7816 42.1388 39.0416L41.6788 40.2116C41.3988 40.9316 41.1488 41.6516 40.8588 42.3216C40.5588 42.9916 40.2388 43.5616 39.8188 43.9716C39.4088 44.3716 38.8588 44.6516 38.2088 44.9016C37.8788 45.0316 37.5388 45.1416 37.1888 45.2516L36.1188 45.6016L35.8488 45.6916L34.9987 45.9916H34.9887C34.7088 46.1016 34.4188 46.2216 34.1688 46.3416L33.9588 46.4216L33.7088 46.5116C33.5387 46.5816 33.3387 46.6816 33.1487 46.8516L32.7887 47.1316L32.2587 47.5516C32.0787 47.7116 31.8987 47.8916 31.7687 48.0816C31.6787 48.2116 31.6287 48.3216 31.5987 48.4116L31.4688 48.7716L31.6088 49.1316C31.6388 49.2116 31.6887 49.2916 31.7587 49.4016C31.8887 49.5916 32.0687 49.7616 32.2387 49.9016C32.4087 50.0516 32.5987 50.1816 32.7587 50.3016C32.8288 50.3516 32.8987 50.4016 32.9688 50.4516C33.0388 50.5016 33.0788 50.5416 33.1087 50.5716L33.1387 50.6016L33.1688 50.6216L33.3188 50.7516L33.3487 50.7816L33.3787 50.8016C33.6287 50.9816 33.9188 51.1216 34.1088 51.2216C34.5988 51.4716 35.2388 51.7016 35.7988 51.9116L36.0688 52.0116C36.7788 52.2716 37.4888 52.5116 38.1288 52.7816C38.7688 53.0616 39.3187 53.3616 39.7188 53.7716L39.8688 53.9316C40.2088 54.3316 40.4788 54.8416 40.7288 55.4216C41.0087 56.0816 41.2387 56.8016 41.5087 57.5216L41.6388 57.8916L41.6588 57.9516L41.9288 58.7016C42.0288 58.9716 42.1288 59.2316 42.2388 59.4616L42.4388 59.8816V59.9116C42.5188 60.0616 42.6188 60.2116 42.7388 60.3716L42.9088 60.6116C42.9488 60.6716 42.9788 60.7316 43.0188 60.7916L43.1888 61.0616C43.2488 61.1516 43.3188 61.2516 43.3888 61.3516C43.5288 61.5316 43.6988 61.7316 43.8988 61.8816C44.0487 61.9916 44.2288 62.0916 44.4388 62.1216L44.6188 62.1516L44.7987 62.1216C44.9887 62.0816 45.1488 62.0016 45.2888 61.9016C45.4888 61.7616 45.6588 61.5716 45.8088 61.3916L46.0188 61.1116C46.0788 61.0216 46.1388 60.9316 46.1988 60.8516C46.2488 60.7716 46.2887 60.7116 46.3387 60.6416C46.3888 60.5716 46.4187 60.5216 46.4388 60.5116C46.7288 60.1816 46.8988 59.7916 47.0087 59.5516C47.2188 59.1216 47.4288 58.5716 47.6287 58.0616L47.6488 58.0016C47.7087 57.8516 47.7388 57.7616 47.7887 57.6416C48.0688 56.9216 48.2987 56.2116 48.5888 55.5516C48.8688 54.9016 49.1788 54.3316 49.5988 53.9316C50.0088 53.5316 50.5788 53.2316 51.2388 52.9716C51.9088 52.7116 52.6287 52.4916 53.3587 52.2416L53.4688 52.2016L53.6287 52.1516C54.1887 51.9616 54.8288 51.7416 55.3288 51.5016L55.7588 51.2916H55.7787L55.7987 51.2716C55.9788 51.1716 56.1588 51.0516 56.3388 50.8816C56.3588 50.8616 56.4088 50.8216 56.4788 50.7716C56.5487 50.7216 56.6187 50.6716 56.6887 50.6216L57.2188 50.2416C57.3988 50.1016 57.5688 49.9316 57.7087 49.7516C57.7488 49.6916 57.8088 49.6016 57.8587 49.5016L58.0387 49.1016L57.8687 48.7016C57.8387 48.6316 57.7987 48.5416 57.7288 48.4416L57.7188 48.3816ZM54.9587 49.3716C54.9587 49.3716 54.9088 49.4116 54.8388 49.4516L54.4487 49.6416C54.2687 49.7316 54.0387 49.8216 53.7887 49.9116L52.9587 50.2016L52.6887 50.2916C52.2387 50.4416 51.6287 50.6416 51.0487 50.8416L50.4888 51.0516C49.7488 51.3416 48.8788 51.7616 48.1788 52.4416C47.4788 53.1216 47.0388 53.9716 46.7288 54.7116C46.4388 55.3916 46.1288 56.3016 45.9088 56.8616C45.8688 56.9516 45.8188 57.0916 45.7888 57.1816L45.7688 57.2416C45.6588 57.5216 45.5588 57.7816 45.4688 58.0116L45.1988 58.6216C45.1588 58.7116 45.1187 58.7916 45.0887 58.8616C45.0588 58.9316 45.0288 58.9816 45.0087 59.0216C44.9688 59.0916 44.9488 59.1216 44.9388 59.1316C44.8188 59.2616 44.6988 59.4416 44.6088 59.5616C44.5887 59.5316 44.5688 59.4916 44.5487 59.4616V59.4416L44.5188 59.4216L44.3488 59.1816L44.2987 59.1116L44.2288 59.0016L44.0487 58.6016C43.9688 58.4316 43.8888 58.2316 43.7987 57.9816L43.5087 57.2016L43.4888 57.1516C43.4488 57.0416 43.4087 56.9316 43.3787 56.8316C43.2087 56.3616 43.0088 55.7616 42.7888 55.1916L42.5688 54.6316C42.2987 53.9816 41.9288 53.2616 41.3988 52.6316L41.1588 52.3716C40.4888 51.6816 39.6488 51.2516 38.9288 50.9416C38.2288 50.6416 37.3888 50.3616 36.7688 50.1316L36.4988 50.0316C35.9088 49.8116 35.3888 49.6216 35.0287 49.4416C34.7487 49.3016 34.6587 49.2516 34.5787 49.2016L34.4688 49.1116C34.3087 48.9616 34.1287 48.8316 34.0087 48.7416C34.1087 48.6716 34.2987 48.5216 34.4588 48.3816C34.5087 48.3616 34.5488 48.3516 34.6388 48.3116L35.0387 48.1516C35.2088 48.0716 35.4288 47.9816 35.6788 47.8916L36.5288 47.5916L36.7888 47.5016C37.3488 47.3116 38.2788 47.0316 38.9388 46.7816C39.6688 46.5016 40.5288 46.1016 41.2288 45.4116C41.9187 44.7316 42.3688 43.8816 42.6988 43.1416C43.0188 42.4216 43.3188 41.5516 43.5588 40.9516C43.6088 40.8316 43.6587 40.7016 43.7087 40.5716C43.9187 40.0116 44.1088 39.5316 44.2788 39.1916C44.4188 38.9016 44.6288 38.5216 44.8588 38.1716C45.0588 38.4916 45.2587 38.8516 45.4288 39.2116C45.5887 39.5616 45.7688 40.0416 45.9688 40.6016L46.0988 40.9816C46.2987 41.5316 46.5988 42.4916 46.8688 43.1716C47.1588 43.9216 47.5788 44.8016 48.2688 45.5116C48.9588 46.2216 49.8388 46.6416 50.5688 46.9416C51.2087 47.2016 52.1987 47.5216 52.7188 47.7116L52.7787 47.7316L52.9888 47.8116C53.4188 47.9716 53.8088 48.1116 54.1388 48.2616L54.4888 48.4216C54.6688 48.5116 54.7588 48.5516 54.8388 48.6016C54.9088 48.6416 54.9387 48.6616 54.9587 48.6816C55.0987 48.8216 55.2788 48.9616 55.4088 49.0616C55.2788 49.1516 55.0987 49.2916 54.9487 49.4316L54.9587 49.3716Z" fill="#FF610A"/>
<path d="M61.9188 34.5722C61.9188 34.5722 61.8288 34.5122 61.7888 34.4722C61.7388 34.4322 61.7088 34.4022 61.6788 34.3822L61.5388 34.2622C61.5388 34.2622 61.4388 34.1922 61.3988 34.1722C61.2988 34.1122 61.2088 34.0722 61.1188 34.0222C60.8788 33.9022 60.5688 33.7822 60.2688 33.6722L60.1088 33.6122L59.9388 33.5522L59.2988 33.3222C59.0588 33.2422 58.8388 33.1622 58.6588 33.0922C58.2488 32.9222 57.8688 32.7322 57.5888 32.4422C57.3088 32.1522 57.1088 31.7622 56.9388 31.3422C56.8588 31.1322 56.7788 30.9122 56.7088 30.6822L56.4788 30.0222C56.4488 29.9422 56.4288 29.8822 56.3988 29.7922C56.2788 29.4622 56.1588 29.1122 56.0288 28.8522L55.9688 28.7122C55.9688 28.7122 55.9288 28.6222 55.9088 28.5722L55.7788 28.3322C55.7288 28.2522 55.6788 28.1822 55.6288 28.1122L55.3488 27.7322C55.3488 27.7322 55.3188 27.6922 55.3088 27.6822C55.3088 27.6822 55.3088 27.6822 55.2988 27.6822L54.7688 27.0322L54.2388 27.6822C54.2388 27.6822 54.2088 27.7122 54.1988 27.7222C54.0288 27.9422 53.7888 28.2322 53.6188 28.5522L53.4788 28.8322C53.3488 29.0922 53.2188 29.4422 53.0988 29.7622C53.0688 29.8422 53.0388 29.9122 53.0088 29.9922L52.7588 30.6522C52.6688 30.8822 52.5788 31.1022 52.4988 31.3022C52.3188 31.7222 52.0988 32.1022 51.8088 32.3822C51.5288 32.6622 51.1488 32.8522 50.7488 33.0022C50.3488 33.1522 49.8888 33.2822 49.4588 33.4322L48.8188 33.6522C48.8188 33.6522 48.7788 33.6722 48.7588 33.6822L48.2688 33.8822C48.2688 33.8822 48.1688 33.9222 48.1188 33.9422C48.0588 33.9622 48.0188 33.9822 47.9688 33.9922C47.9688 33.9922 47.8888 34.0222 47.8188 34.0622L47.7488 34.1022L47.6888 34.1522C47.6888 34.1522 47.6288 34.2122 47.5788 34.2422L47.4488 34.3422L47.1388 34.5922L47.0588 34.6722L46.5088 35.1822L47.0988 35.6922C47.0988 35.6922 47.1088 35.7022 47.1188 35.7122C47.2188 35.8022 47.3288 35.8722 47.4288 35.9422C47.4688 35.9722 47.5188 36.0022 47.5588 36.0422C47.6088 36.0822 47.6388 36.1122 47.6688 36.1322C47.7588 36.2222 47.8588 36.2822 47.9488 36.3422C48.0488 36.4022 48.1388 36.4422 48.2288 36.4922C48.5188 36.6422 48.8988 36.7822 49.2488 36.9022L49.4088 36.9622L50.0588 37.1922C50.2788 37.2722 50.4988 37.3522 50.6888 37.4422C51.0888 37.6122 51.4488 37.8122 51.7288 38.0922L51.9488 38.3522C52.1288 38.6022 52.2788 38.8922 52.4088 39.1922C52.5788 39.6022 52.7388 40.0622 52.8888 40.4922L52.9688 40.7222L52.9888 40.7722C53.0988 41.0922 53.2188 41.4222 53.3388 41.6722L53.3988 41.8022C53.3988 41.8022 53.4388 41.8922 53.4588 41.9422C53.4988 42.0322 53.5588 42.1322 53.6388 42.2222C53.6588 42.2522 53.6888 42.2922 53.7088 42.3222C53.7388 42.3622 53.7688 42.4222 53.7988 42.4622L54.0188 42.7922C54.0188 42.7922 54.0488 42.8322 54.0588 42.8422L54.5988 43.4822L55.1388 42.8322C55.1388 42.8322 55.1488 42.8122 55.1588 42.8022C55.2488 42.6922 55.3188 42.5722 55.3788 42.4822C55.4088 42.4422 55.4388 42.3922 55.4688 42.3522C55.4688 42.3522 55.5188 42.2822 55.5488 42.2522C55.6288 42.1622 55.6888 42.0722 55.7288 41.9822L55.7988 41.8422C55.7988 41.8422 55.8388 41.7522 55.8588 41.7122C55.9888 41.4522 56.1188 41.1022 56.2488 40.7722C56.2788 40.6922 56.3088 40.6222 56.3388 40.5422C56.4988 40.1222 56.6588 39.6522 56.8288 39.2522C57.0088 38.8422 57.2088 38.4622 57.4988 38.1822C57.7788 37.9022 58.1688 37.7122 58.5788 37.5422C58.9888 37.3822 59.4588 37.2422 59.8888 37.0922L60.0588 37.0422C60.4088 36.9222 60.7888 36.7922 61.0788 36.6522C61.1688 36.6122 61.2588 36.5622 61.3588 36.5122C61.4388 36.4622 61.5488 36.4022 61.6488 36.3022C61.6488 36.3022 61.7088 36.2522 61.7588 36.2122C61.8088 36.1722 61.8488 36.1422 61.8888 36.1222C61.9688 36.0622 62.0488 36.0022 62.1288 35.9422L63.2588 35.3422L62.1288 34.7422C62.0588 34.6822 61.9788 34.6222 61.8988 34.5622L61.9188 34.5722ZM47.0088 34.7122C47.0088 34.7122 47.0088 34.7122 47.0288 34.6922C47.0288 34.7022 47.0088 34.7122 47.0088 34.7122ZM54.2588 27.6222C54.2588 27.6222 54.2688 27.6222 54.2688 27.6122L54.2488 27.6322L54.2588 27.6222ZM60.4788 35.3822C60.2788 35.4822 59.9788 35.5822 59.6088 35.7122L59.4388 35.7722L58.7888 35.9922L58.0688 36.2522C57.5988 36.4422 57.0088 36.7122 56.5188 37.1922C56.0388 37.6622 55.7388 38.2522 55.5388 38.7122C55.3588 39.1322 55.1488 39.7322 55.0288 40.0522C54.9988 40.1222 54.9688 40.2022 54.9388 40.2722V40.2922H54.9288C54.7988 40.6322 54.6888 40.9022 54.5988 41.0922C54.5988 41.0922 54.5988 41.1022 54.5888 41.1122V41.0922C54.4888 40.9022 54.3888 40.6222 54.2688 40.2722L54.2488 40.2222L54.1788 40.0322L53.9488 39.3722C53.8588 39.1322 53.7688 38.8822 53.6688 38.6522C53.5188 38.2922 53.3188 37.8822 53.0388 37.5122V37.4922L53.0088 37.4722L52.7488 37.1722L52.7288 37.1522L52.7088 37.1322C52.2388 36.6522 51.6788 36.3622 51.2088 36.1622L50.4988 35.8822L49.8488 35.6522L49.6888 35.5922C49.3188 35.4522 49.0188 35.3422 48.8188 35.2422C48.7688 35.2122 48.7288 35.1922 48.7088 35.1822C48.7488 35.1722 48.7888 35.1522 48.8288 35.1422C49.0288 35.0422 49.3288 34.9422 49.6988 34.8122L49.9988 34.7022C50.3288 34.5922 50.8388 34.4322 51.1988 34.3022C51.6688 34.1222 52.2588 33.8522 52.7388 33.3722C53.2188 32.9022 53.5188 32.3222 53.7288 31.8522C53.8288 31.6122 53.9288 31.3622 54.0188 31.1322L54.2688 30.4822C54.2988 30.4022 54.3288 30.3122 54.3588 30.2522C54.4888 29.9022 54.5988 29.6222 54.6988 29.4322C54.6988 29.4322 54.6988 29.4222 54.6988 29.4122V29.4322C54.7888 29.6222 54.8888 29.9022 55.0188 30.2622C55.0388 30.3322 55.0788 30.4222 55.0988 30.5022C55.2088 30.8022 55.4188 31.4422 55.5788 31.8622C55.7688 32.3322 56.0488 32.9322 56.5288 33.4222L56.7188 33.6022C57.1688 33.9922 57.6788 34.2322 58.0788 34.3922C58.2988 34.4822 58.5588 34.5722 58.7888 34.6522L59.4188 34.8722L59.5788 34.9322L60.0788 35.1222C60.2188 35.1822 60.3488 35.2322 60.4488 35.2822C60.4988 35.3022 60.5288 35.3222 60.5588 35.3322C60.5288 35.3422 60.4988 35.3622 60.4488 35.3822H60.4788Z" fill="#FF610A"/>
<path d="M45.0684 25.3318C45.1484 25.4018 45.2484 25.4818 45.3684 25.5518C45.4384 25.5918 45.4884 25.6218 45.5684 25.6618C45.7784 25.7718 46.0584 25.8718 46.3084 25.9618L46.4284 26.0018L47.4084 26.3718C47.7084 26.5018 47.9884 26.6518 48.1984 26.8718C48.4184 27.1018 48.5784 27.3918 48.7084 27.7118C48.8384 28.0218 48.9584 28.3718 49.0684 28.6818L49.1284 28.8618C49.2184 29.1118 49.3084 29.3618 49.3984 29.5518C49.4184 29.5918 49.4184 29.6118 49.4384 29.6518C49.4384 29.6518 49.4884 29.7418 49.4884 29.7518C49.5184 29.8118 49.5584 29.8818 49.6084 29.9318C49.6084 29.9318 49.6484 29.9918 49.6684 30.0218C49.6684 30.0218 49.7084 30.0918 49.7284 30.1318C49.7584 30.1918 49.7984 30.2418 49.8184 30.2718L50.2184 30.8618L50.6384 30.2718C50.6384 30.2718 50.6984 30.1918 50.7384 30.1318C50.7384 30.1318 50.7884 30.0618 50.8084 30.0318C50.8084 30.0318 50.8484 29.9718 50.8684 29.9418C50.9184 29.8818 50.9584 29.8218 50.9884 29.7618C51.0084 29.7318 51.0284 29.6918 51.0384 29.6618C51.0584 29.6218 51.0484 29.6418 51.0884 29.5618L51.2484 29.2418H51.2384C51.2884 29.1118 51.3284 28.9918 51.3784 28.8718L51.4484 28.7018C51.5684 28.3918 51.6884 28.0418 51.8184 27.7418C51.9484 27.4318 52.1084 27.1318 52.3384 26.9118C52.5684 26.6918 52.8684 26.5418 53.1784 26.4218C53.4884 26.3018 53.8384 26.1918 54.1484 26.0818L54.2684 26.0418C54.5284 25.9518 54.8084 25.8518 55.0184 25.7518C55.0884 25.7118 55.1584 25.6918 55.2284 25.6518C55.2984 25.6118 55.3584 25.5718 55.4184 25.5218C55.4484 25.4918 55.4784 25.4718 55.5084 25.4518L55.6084 25.3818C55.6084 25.3818 55.7084 25.3118 55.7284 25.3018L56.2784 24.9018L55.7284 24.4918L55.5084 24.3318C55.5084 24.3318 55.4484 24.2818 55.4184 24.2618C55.3684 24.2118 55.2984 24.1618 55.2284 24.1218L55.0184 24.0118C54.8084 23.9018 54.5384 23.8018 54.2784 23.7118L54.2184 23.6918L54.1584 23.6718L53.1984 23.3218C52.8884 23.2018 52.5884 23.0418 52.3684 22.8218C52.1984 22.6518 52.0684 22.4318 51.9684 22.2018L51.8684 21.9618L51.5284 20.9818L51.4684 20.8018L51.2184 20.1418V20.1218L51.2084 20.1118C51.1884 20.0618 51.1884 20.0618 51.1584 20.0118C51.1584 20.0118 51.1284 19.9518 51.1084 19.9118C51.0484 19.7918 50.9784 19.6918 50.9184 19.6118C50.8484 19.5118 50.8084 19.4618 50.7684 19.4018L50.3684 18.8018L49.9484 19.3918C49.8984 19.4618 49.8584 19.5118 49.7884 19.6018C49.7284 19.6818 49.6584 19.7818 49.5984 19.8918L49.5484 19.9918C49.5484 19.9918 49.5184 20.0618 49.4984 20.0918C49.4084 20.2718 49.3184 20.5218 49.2284 20.7518V20.7818C49.1984 20.8418 49.1784 20.8918 49.1584 20.9418C49.0384 21.2518 48.9084 21.6118 48.7784 21.9218C48.6384 22.2318 48.4784 22.5318 48.2584 22.7518L48.0584 22.9118C47.8684 23.0518 47.6484 23.1618 47.4184 23.2418C47.1184 23.3618 46.7684 23.4518 46.4584 23.5618L46.3884 23.5918L46.3384 23.6118C45.8284 23.7918 45.3784 23.9618 45.0084 24.2318C44.9384 24.2818 44.8784 24.3418 44.8384 24.3718L44.3584 24.7718L44.8584 25.1518C44.9284 25.2018 44.9784 25.2518 45.0684 25.3318ZM46.6484 24.5618H46.6784L46.7984 24.5118C47.0184 24.4318 47.4884 24.2918 47.7984 24.1818L48.2284 23.9918C48.3784 23.9218 48.5284 23.8318 48.6784 23.7218L48.7084 23.7018L48.9484 23.5018H48.9684L48.9784 23.4718C49.3384 23.1118 49.5684 22.6718 49.7284 22.3218C49.8784 21.9818 50.0284 21.5618 50.1284 21.3018L50.1784 21.1618V21.1318C50.2484 20.9418 50.3184 20.7818 50.3784 20.6518L50.5684 21.1418L50.6284 21.3018L50.9784 22.2918V22.3118C51.1284 22.6618 51.3384 23.1218 51.6984 23.5018C52.0684 23.8818 52.5284 24.0918 52.8784 24.2318H52.8984L53.8784 24.5818L53.9884 24.6218L54.0484 24.6418C54.2684 24.7218 54.4484 24.7918 54.5884 24.8618C54.4484 24.9318 54.2484 25.0018 53.9884 25.0818L53.8684 25.1218C53.6184 25.2118 53.1884 25.3418 52.8484 25.4718C52.4984 25.6118 52.0484 25.8218 51.6784 26.1818C51.3084 26.5418 51.0884 26.9818 50.9384 27.3318C50.8084 27.6418 50.6484 28.0918 50.5584 28.3318L50.4884 28.5018C50.4184 28.6918 50.3484 28.8518 50.2884 28.9818C50.2384 28.8518 50.1684 28.6918 50.0984 28.5018L50.0384 28.3218L49.6584 27.2918C49.5084 26.9418 49.2884 26.5018 48.9384 26.1418C48.5784 25.7818 48.1484 25.5618 47.8084 25.4118H47.7884L46.8084 25.0418L46.6884 24.9918C46.4384 24.9018 46.2384 24.8218 46.0884 24.7518C46.2484 24.6818 46.4384 24.6118 46.6684 24.5318L46.6484 24.5618Z" fill="#FF610A"/>
</g>
<path fill-rule="evenodd" clip-rule="evenodd" d="M22.4216 4C25.6542 4 28.6338 4.6149 31.2646 5.75996C25.749 15.1996 14.872 26.201 2.6288 31.1908C2.21824 29.386 2 27.4526 2 25.4006C2 13.2373 10.4544 4 22.4216 4Z" fill="#FF610A"/>
<path fill-rule="evenodd" clip-rule="evenodd" d="M31.7838 5.98438C32.4356 6.28931 33.0634 6.62916 33.6672 7.00087C27.9602 19.495 17.7738 32.1456 6.7733 39.7096C5.67016 38.3822 4.73742 36.8854 4 35.23C16.7923 28.3246 26.4624 16.1884 31.7838 5.98438Z" fill="#FF610A"/>
<path fill-rule="evenodd" clip-rule="evenodd" d="M34.0958 7.29688C39.5108 10.8457 42.8482 17.0962 42.8482 25.1566C42.8482 37.3198 34.3956 46.622 22.4266 46.622C17.8017 46.622 13.6921 45.3602 10.3906 43.0682C20.1644 33.6684 27.8156 22.7388 34.0958 7.29688Z" fill="#FF610A"/>
<defs>
<clipPath id="clip0_11563_20279">
<rect width="31.8" height="43.31" fill="white" transform="translate(31.4785 18.792)"/>
</clipPath>
</defs>
</svg>
