<!--
  - Copyright (c) 2023-2025. Cloud Software Group, Inc. All Rights Reserved. Confidential & Proprietary
  -->

<svg width="496" height="112" viewBox="0 0 496 112" fill="none" xmlns="http://www.w3.org/2000/svg">
<rect width="496" height="112" rx="6" fill="#DEDEDE"/>
<path d="M255.652 76H230.5C229.119 76 228 74.8807 228 73.5V66.1758L238.218 53.334L255.652 76ZM268 69.7871V73.5C268 74.8807 266.881 76 265.5 76H258.755C258.714 75.9052 258.663 75.813 258.598 75.7275L251.824 66.9219L259.577 59.999L268 69.7871ZM265.5 36C266.881 36 268 37.1193 268 38.5V65.9541L260.642 57.4033C260.186 56.8736 259.384 56.8208 258.862 57.2861L250.296 64.9355L239.226 50.543C238.73 49.8993 237.762 49.8918 237.257 50.5273L228 62.1611V38.5C228 37.1193 229.119 36 230.5 36H265.5ZM251.337 42.25C248.575 42.25 246.337 44.4886 246.337 47.25C246.337 50.0114 248.575 52.25 251.337 52.25C254.098 52.2499 256.337 50.0114 256.337 47.25C256.337 44.4886 254.098 42.2501 251.337 42.25ZM251.337 44.75C252.718 44.7501 253.837 45.8693 253.837 47.25C253.837 48.6307 252.718 49.7499 251.337 49.75C249.956 49.75 248.837 48.6307 248.837 47.25C248.837 45.8693 249.956 44.75 251.337 44.75Z" fill="#727272"/>
</svg>
