<!--
  - Copyright (c) 2023-2025. Cloud Software Group, Inc. All Rights Reserved. Confidential & Proprietary
  -->

<svg width="48" height="49" viewBox="0 0 48 49" fill="none" xmlns="http://www.w3.org/2000/svg">
<path d="M31.6523 44.6074H6.5C5.11929 44.6074 4 43.4881 4 42.1074V34.7832L14.2178 21.9414L31.6523 44.6074ZM44 38.3945V42.1074C44 43.4881 42.8807 44.6074 41.5 44.6074H34.7549C34.7144 44.5127 34.6634 44.4204 34.5977 44.335L27.8242 35.5293L35.5771 28.6064L44 38.3945ZM41.5 4.60742C42.8807 4.60742 44 5.72671 44 7.10742V34.5615L36.6416 26.0107C36.1855 25.4811 35.3838 25.4282 34.8623 25.8936L26.2959 33.543L15.2256 19.1504C14.7303 18.5068 13.7625 18.4992 13.2568 19.1348L4 30.7686V7.10742C4 5.72671 5.11929 4.60742 6.5 4.60742H41.5ZM27.3369 10.8574C24.5755 10.8574 22.3369 13.096 22.3369 15.8574C22.3369 18.6188 24.5755 20.8574 27.3369 20.8574C30.0983 20.8573 32.3369 18.6188 32.3369 15.8574C32.3369 13.0961 30.0983 10.8575 27.3369 10.8574ZM27.3369 13.3574C28.7175 13.3575 29.8369 14.4768 29.8369 15.8574C29.8369 17.2381 28.7175 18.3573 27.3369 18.3574C25.9562 18.3574 24.8369 17.2381 24.8369 15.8574C24.8369 14.4767 25.9562 13.3574 27.3369 13.3574Z" fill="white"/>
</svg>
