<!--
  - Copyright (c) 2023-2025. Cloud Software Group, Inc. All Rights Reserved. Confidential & Proprietary
  -->

<svg width="44" height="45" viewBox="0 0 44 45" fill="none" xmlns="http://www.w3.org/2000/svg">
<g clip-path="url(#clip0_6687_9960)">
<path d="M7.83398 9.5918H4.50065C4.05862 9.5918 3.6347 9.76739 3.32214 10.08C3.00958 10.3925 2.83398 10.8164 2.83398 11.2585V39.5918C2.83398 40.0338 3.00958 40.4578 3.32214 40.7703C3.6347 41.0829 4.05862 41.2585 4.50065 41.2585H32.834C33.276 41.2585 33.6999 41.0829 34.0125 40.7703C34.3251 40.4578 34.5007 40.0338 34.5007 39.5918V36.2585" fill="#9FEAFF"/>
<path d="M7.83398 9.5918H4.50065C4.05862 9.5918 3.6347 9.76739 3.32214 10.08C3.00958 10.3925 2.83398 10.8164 2.83398 11.2585V39.5918C2.83398 40.0338 3.00958 40.4578 3.32214 40.7703C3.6347 41.0829 4.05862 41.2585 4.50065 41.2585H32.834C33.276 41.2585 33.6999 41.0829 34.0125 40.7703C34.3251 40.4578 34.5007 40.0338 34.5007 39.5918V36.2585" stroke="#00303E" stroke-width="2" stroke-linecap="round" stroke-linejoin="round"/>
<path d="M41.1673 4.59245C41.1673 4.15042 40.9917 3.7265 40.6792 3.41394C40.3666 3.10138 39.9427 2.92578 39.5007 2.92578H9.50065C9.05862 2.92578 8.6347 3.10138 8.32214 3.41394C8.00958 3.7265 7.83398 4.15042 7.83398 4.59245V34.5924C7.83398 35.0345 8.00958 35.4584 8.32214 35.771C8.6347 36.0835 9.05862 36.2591 9.50065 36.2591H39.5007C39.9427 36.2591 40.3666 36.0835 40.6792 35.771C40.9917 35.4584 41.1673 35.0345 41.1673 34.5924V4.59245Z" fill="white"/>
<path d="M41.1673 4.59245C41.1673 4.15042 40.9917 3.7265 40.6792 3.41394C40.3666 3.10138 39.9427 2.92578 39.5007 2.92578H9.50065C9.05862 2.92578 8.6347 3.10138 8.32214 3.41394C8.00958 3.7265 7.83398 4.15042 7.83398 4.59245V34.5924C7.83398 35.0345 8.00958 35.4584 8.32214 35.771C8.6347 36.0835 9.05862 36.2591 9.50065 36.2591H39.5007C39.9427 36.2591 40.3666 36.0835 40.6792 35.771C40.9917 35.4584 41.1673 35.0345 41.1673 34.5924V4.59245Z" stroke="#00303E" stroke-width="2" stroke-linecap="round" stroke-linejoin="round"/>
<path d="M14.4941 9.58594H34.4941" stroke="#00303E" stroke-width="2" stroke-linecap="round" stroke-linejoin="round"/>
<path d="M14.4941 16.2539H34.4941" stroke="#00303E" stroke-width="2" stroke-linecap="round" stroke-linejoin="round"/>
<path d="M14.4941 22.9199H34.4941" stroke="#00303E" stroke-width="2" stroke-linecap="round" stroke-linejoin="round"/>
<path d="M14.4941 29.5859H23.6675" stroke="#00303E" stroke-width="2" stroke-linecap="round" stroke-linejoin="round"/>
</g>
<defs>
<clipPath id="clip0_6687_9960">
<rect width="40" height="40" fill="white" transform="translate(2 2.0918)"/>
</clipPath>
</defs>
</svg>
