<!--
  - Copyright (c) 2023-2025. Cloud Software Group, Inc. All Rights Reserved. Confidential & Proprietary
  -->

<svg width="496" height="112" viewBox="0 0 496 112" fill="none" xmlns="http://www.w3.org/2000/svg">
<rect width="496" height="112" rx="6" fill="#D0F5FF"/>
<path d="M255.849 53.408C255.698 53.408 255.548 53.3498 255.433 53.2333L236.458 33.5093C236.239 33.2763 236.239 32.9035 236.47 32.6822C236.701 32.4608 237.06 32.4608 237.291 32.6938L255.872 52.01L276.326 32.6822C276.534 32.4841 276.846 32.4725 277.078 32.6472L301.556 51.7653C301.81 51.9634 301.856 52.3245 301.66 52.5808C301.463 52.8371 301.105 52.8837 300.85 52.6857L276.766 33.8705L256.253 53.2566C256.126 53.3614 255.988 53.408 255.849 53.408Z" fill="#2C365E"/>
<path d="M242.07 33.1002C242.07 35.9894 239.745 38.3311 236.878 38.3311C234.01 38.3311 231.686 35.9894 231.686 33.1002C231.686 30.2109 234.01 27.8692 236.878 27.8692C239.745 27.8575 242.07 30.2109 242.07 33.1002Z" fill="white"/>
<path d="M236.866 38.9141C233.686 38.9141 231.096 36.3044 231.096 33.1006C231.096 29.8968 233.686 27.2871 236.866 27.2871C240.046 27.2871 242.636 29.8968 242.636 33.1006C242.636 36.3044 240.057 38.9141 236.866 38.9141ZM236.866 28.4405C234.322 28.4405 232.252 30.5259 232.252 33.0889C232.252 35.652 234.322 37.7374 236.866 37.7374C239.41 37.7374 241.48 35.652 241.48 33.0889C241.491 30.5375 239.421 28.4405 236.866 28.4405Z" fill="#2C365E"/>
<path d="M281.913 33.1002C281.913 35.9894 279.589 38.3311 276.721 38.3311C273.854 38.3311 271.529 35.9894 271.529 33.1002C271.529 30.2109 273.854 27.8692 276.721 27.8692C279.589 27.8575 281.913 30.2109 281.913 33.1002Z" fill="white"/>
<path d="M276.709 38.9141C273.53 38.9141 270.928 36.3044 270.928 33.1006C270.928 29.8968 273.518 27.2871 276.709 27.2871C279.901 27.2871 282.48 29.8968 282.48 33.1006C282.48 36.3044 279.901 38.9141 276.709 38.9141ZM276.709 28.4405C274.166 28.4405 272.084 30.5259 272.084 33.0889C272.084 35.652 274.154 37.7374 276.709 37.7374C279.253 37.7374 281.323 35.652 281.323 33.0889C281.335 30.5375 279.265 28.4405 276.709 28.4405Z" fill="#2C365E"/>
<path d="M261.042 52.2212C261.042 55.1105 258.718 57.4522 255.85 57.4522C252.982 57.4522 250.658 55.1105 250.658 52.2212C250.658 49.3319 252.982 46.9902 255.85 46.9902C258.718 46.9902 261.042 49.3319 261.042 52.2212Z" fill="#2C365E"/>
<path d="M255.85 58.045C252.67 58.045 250.08 55.4353 250.08 52.2315C250.08 49.0276 252.67 46.418 255.85 46.418C259.03 46.418 261.632 49.0276 261.632 52.2315C261.632 55.4353 259.03 58.045 255.85 58.045ZM255.85 47.5713C253.306 47.5713 251.236 49.6567 251.236 52.2198C251.236 54.7829 253.306 56.8683 255.85 56.8683C258.394 56.8683 260.476 54.7829 260.476 52.2198C260.464 49.6567 258.394 47.5713 255.85 47.5713Z" fill="#2C365E"/>
<path d="M361.658 46.9253H380.271C376.572 46.9253 374.87 44.2101 374.87 40.8598V39.6678V32.912C374.87 29.7825 372.067 27.2422 368.609 27.2422H367.919C364.461 27.2422 361.658 29.7779 361.658 32.912V46.9253Z" fill="#E3E3F0"/>
<path d="M361.658 47.1551H380.271C380.399 47.1551 380.5 47.0538 380.5 46.9249C380.5 46.7961 380.399 46.6948 380.271 46.6948C377.033 46.6948 375.099 44.5135 375.099 40.8594V32.9116C375.099 29.6579 372.186 27.0117 368.609 27.0117H367.919C364.338 27.0117 361.429 29.6579 361.429 32.9116V46.9249C361.429 47.0538 361.53 47.1551 361.658 47.1551ZM377.875 46.6948H361.886V32.9116C361.886 29.9156 364.594 27.4719 367.919 27.4719H368.609C371.934 27.4719 374.642 29.911 374.642 32.9116V40.8594C374.642 43.7449 375.835 45.8204 377.875 46.6948Z" fill="#2C365E"/>
<path d="M368.77 27.2347C368.971 27.2347 368.573 27.2208 368.77 27.2347L353.943 27.3221V27.3267L326.384 27.2991C321.371 27.3267 317.333 30.8013 317.365 35.0628L317.397 71.6862H355.63C359.335 71.6862 362.33 69.1229 362.307 65.975L362.12 39.4072L362.088 35.0628C362.088 27.2577 368.77 27.2347 368.77 27.2347Z" fill="white"/>
<path d="M317.397 71.9118H355.63C357.67 71.9118 359.595 71.1478 360.912 69.8132C361.969 68.7409 362.549 67.3741 362.536 65.9705L362.316 35.0582C362.316 27.6029 368.476 27.4648 368.769 27.4648C369.016 27.4648 369.053 27.3221 369.053 27.2347C369.053 27.1657 369.03 27.0046 368.774 27C368.742 27 368.714 27 368.687 27.0046L353.938 27.092C353.924 27.092 353.915 27.092 353.901 27.0966L326.383 27.069C323.644 27.0828 321.065 28.1183 319.304 29.9131C317.891 31.3536 317.122 33.1806 317.131 35.0675L317.163 71.6909C317.168 71.8105 317.273 71.9118 317.397 71.9118ZM366.505 27.474C364.489 28.2196 361.859 30.134 361.859 35.0582L362.078 65.9705C362.088 67.2545 361.557 68.5016 360.587 69.4865C359.357 70.7336 357.551 71.4516 355.63 71.4516H317.625L317.593 35.0582C317.58 33.2956 318.302 31.5837 319.633 30.2307C321.307 28.5233 323.772 27.5384 326.388 27.5246L353.942 27.5522C353.956 27.5522 353.97 27.5523 353.984 27.5476L366.505 27.474Z" fill="#2C365E"/>
<path d="M329.1 40.8278C327.422 40.8278 326.059 39.4564 326.059 37.7674C326.059 36.0785 327.422 34.707 329.1 34.707C330.779 34.707 332.142 36.0785 332.142 37.7674C332.142 39.4564 330.783 40.8278 329.1 40.8278Z" fill="#2C365E"/>
<path d="M329.1 41.0595C327.298 41.0595 325.83 39.5822 325.83 37.769C325.83 35.9558 327.298 34.4785 329.1 34.4785C330.902 34.4785 332.37 35.9558 332.37 37.769C332.37 39.5822 330.907 41.0595 329.1 41.0595ZM329.1 34.9387C327.55 34.9387 326.287 36.2089 326.287 37.769C326.287 39.3291 327.55 40.5993 329.1 40.5993C330.651 40.5993 331.913 39.3291 331.913 37.769C331.913 36.2089 330.655 34.9387 329.1 34.9387Z" fill="#2C365E"/>
<path d="M354.881 35.7942H336.043C335.915 35.7942 335.814 35.6929 335.814 35.5641C335.814 35.4352 335.915 35.334 336.043 35.334H354.881C355.009 35.334 355.109 35.4352 355.109 35.5641C355.109 35.6929 355.009 35.7942 354.881 35.7942Z" fill="#2C365E"/>
<path d="M343.612 38.2415H336.047C335.919 38.2415 335.818 38.1402 335.818 38.0114C335.818 37.8825 335.919 37.7812 336.047 37.7812H343.612C343.74 37.7812 343.841 37.8825 343.841 38.0114C343.841 38.1402 343.735 38.2415 343.612 38.2415Z" fill="#2C365E"/>
<path d="M354.852 38.2415H347.287C347.159 38.2415 347.059 38.1402 347.059 38.0114C347.059 37.8825 347.159 37.7812 347.287 37.7812H354.852C354.98 37.7812 355.081 37.8825 355.081 38.0114C355.081 38.1402 354.98 38.2415 354.852 38.2415Z" fill="#2C365E"/>
<path d="M343.772 41.6907H336.207C336.079 41.6907 335.979 41.5894 335.979 41.4606C335.979 41.3317 336.079 41.2305 336.207 41.2305H343.772C343.9 41.2305 344.001 41.3317 344.001 41.4606C344.001 41.5894 343.9 41.6907 343.772 41.6907Z" fill="#2C365E"/>
<path d="M329.1 51.2163C327.481 51.2163 326.168 49.8955 326.168 48.2663C326.168 46.6372 327.481 45.3164 329.1 45.3164C330.719 45.3164 332.031 46.6372 332.031 48.2663C332.036 49.8955 330.723 51.2163 329.1 51.2163Z" fill="#2C365E"/>
<path d="M329.1 51.4441C327.357 51.4441 325.939 50.0174 325.939 48.264C325.939 46.5106 327.357 45.084 329.1 45.084C330.842 45.084 332.26 46.5106 332.26 48.264C332.265 50.0174 330.847 51.4441 329.1 51.4441ZM329.1 45.5396C327.609 45.5396 326.397 46.7591 326.397 48.2594C326.397 49.7597 327.609 50.9793 329.1 50.9793C330.591 50.9793 331.803 49.7597 331.803 48.2594C331.807 46.7591 330.591 45.5396 329.1 45.5396Z" fill="#2C365E"/>
<path d="M354.881 46.2883H336.043C335.915 46.2883 335.814 46.1871 335.814 46.0582C335.814 45.9294 335.915 45.8281 336.043 45.8281H354.881C355.009 45.8281 355.109 45.9294 355.109 46.0582C355.109 46.1825 355.009 46.2883 354.881 46.2883Z" fill="#2C365E"/>
<path d="M332.75 71.6505H354.913H355.15C350.815 71.6505 348.226 68.6775 348.226 65.0097V63.7027V56.3071C348.226 52.8786 344.943 50.1035 340.891 50.1035H340.086C336.034 50.1035 332.75 52.8832 332.75 56.3071V71.6505Z" fill="#E3E3F0"/>
<path d="M332.75 71.8783H355.15C355.278 71.8783 355.379 71.777 355.379 71.6482C355.379 71.5193 355.278 71.4181 355.15 71.4181C351.208 71.4181 348.455 68.7811 348.455 65.0074V56.3048C348.455 52.7566 345.061 49.8711 340.891 49.8711H340.086C335.915 49.8711 332.521 52.7566 332.521 56.3048V71.6482C332.521 71.7724 332.622 71.8783 332.75 71.8783ZM352.379 71.4181H332.979V56.3048C332.979 53.0097 336.166 50.3313 340.086 50.3313H340.891C344.81 50.3313 347.998 53.0097 347.998 56.3048V65.0074C347.998 68.0862 349.703 70.4608 352.379 71.4181Z" fill="#2C365E"/>
<path d="M306.77 50.0996H340.242C336.218 50.0996 332.957 52.7734 332.957 56.0685V80.9152C332.957 83.046 330.849 84.7717 328.251 84.7717H296.292V58.6871C296.292 53.9424 300.98 50.0996 306.77 50.0996Z" fill="white"/>
<path d="M296.292 84.9995H328.251C330.972 84.9995 333.185 83.1679 333.185 80.9129V56.0662C333.185 52.9 336.35 50.3274 340.242 50.3274C340.37 50.3274 340.471 50.2262 340.471 50.0973C340.471 49.9684 340.37 49.8672 340.242 49.8672H306.77C300.865 49.8672 296.063 53.8204 296.063 58.6802V84.7648C296.063 84.8983 296.164 84.9995 296.292 84.9995ZM337.402 50.332C334.663 51.257 332.728 53.4798 332.728 56.0708V80.9175C332.728 82.9148 330.72 84.5439 328.251 84.5439H296.521V58.6894C296.521 54.0827 301.117 50.3366 306.77 50.3366H337.402V50.332Z" fill="#2C365E"/>
<path d="M304.859 65.4594C303.29 65.4594 302.014 64.18 302.014 62.5969C302.014 61.0184 303.285 59.7344 304.859 59.7344C306.427 59.7344 307.703 61.0138 307.703 62.5969C307.703 64.18 306.427 65.4594 304.859 65.4594Z" fill="#2C365E"/>
<path d="M304.857 65.6911C303.164 65.6911 301.783 64.3058 301.783 62.5985C301.783 60.8911 303.16 59.5059 304.857 59.5059C306.554 59.5059 307.93 60.8911 307.93 62.5985C307.93 64.3058 306.549 65.6911 304.857 65.6911ZM304.857 59.9661C303.416 59.9661 302.241 61.1488 302.241 62.5985C302.241 64.0481 303.416 65.2309 304.857 65.2309C306.297 65.2309 307.473 64.0481 307.473 62.5985C307.473 61.1488 306.297 59.9661 304.857 59.9661Z" fill="#2C365E"/>
<path d="M325.511 60.4934H310.817C310.689 60.4934 310.588 60.3922 310.588 60.2633C310.588 60.1344 310.689 60.0332 310.817 60.0332H325.511C325.639 60.0332 325.739 60.1344 325.739 60.2633C325.739 60.3922 325.634 60.4934 325.511 60.4934Z" fill="#2C365E"/>
<path d="M318.116 63.5461H310.817C310.689 63.5461 310.588 63.4449 310.588 63.316C310.588 63.1872 310.689 63.0859 310.817 63.0859H318.116C318.244 63.0859 318.345 63.1872 318.345 63.316C318.345 63.4449 318.24 63.5461 318.116 63.5461Z" fill="#2C365E"/>
<path d="M325.511 66.0872H310.817C310.689 66.0872 310.588 65.9859 310.588 65.8571C310.588 65.7282 310.689 65.627 310.817 65.627H325.511C325.639 65.627 325.739 65.7282 325.739 65.8571C325.739 65.9859 325.634 66.0872 325.511 66.0872Z" fill="#2C365E"/>
<path d="M286.88 70.8184L324.491 70.8506L324.473 80.3401C324.454 82.4662 325.794 84.2841 328.319 84.6798C328.383 84.689 328.648 84.6937 328.319 84.6983C327.857 84.7075 327.486 84.6983 327.486 84.6983L302.973 84.7213C302.868 84.7213 302.758 84.7167 302.653 84.7121L292.29 84.7213C289.272 84.7075 286.839 82.7424 286.857 80.3401L286.88 70.8184Z" fill="#E3E3F0"/>
<path d="M292.29 84.9503L302.653 84.9411C302.749 84.9457 302.859 84.9503 302.969 84.9503L327.482 84.9273C327.482 84.9273 327.852 84.9365 328.319 84.9273C328.497 84.9227 328.699 84.9227 328.703 84.6972C328.703 84.596 328.657 84.4717 328.424 84.4579C328.397 84.4579 328.365 84.4533 328.351 84.4533C326.083 84.0989 324.679 82.525 324.697 80.3436L324.715 70.8541C324.715 70.7943 324.692 70.7345 324.647 70.693C324.605 70.6516 324.546 70.624 324.486 70.624L286.875 70.5918C286.747 70.5918 286.647 70.693 286.647 70.8219L286.628 80.3436C286.619 81.3791 287.054 82.4008 287.849 83.2107C288.933 84.306 290.552 84.9411 292.29 84.9503ZM302.667 84.4809L292.295 84.4901C290.676 84.4809 289.176 83.8964 288.183 82.884C287.461 82.1476 287.086 81.2686 287.09 80.339L287.109 71.0474L324.262 71.0796L324.244 80.339C324.23 82.2121 325.205 83.7216 326.823 84.4671L302.978 84.4901C302.868 84.4901 302.768 84.4855 302.667 84.4809Z" fill="#2C365E"/>
<path d="M176.991 48.945C176.845 48.945 176.708 48.8635 176.635 48.7332L174.347 44.4977L170.152 42.1681C170.022 42.0948 169.941 41.9563 169.941 41.8097C169.941 41.6631 170.022 41.5246 170.152 41.4513L174.355 39.1462L176.667 34.9188C176.74 34.7885 176.877 34.707 177.023 34.707C177.168 34.707 177.306 34.7885 177.379 34.9188L179.666 39.1544L183.862 41.4839C183.991 41.5572 184.072 41.6957 184.072 41.8423C184.072 41.9889 183.991 42.1274 183.862 42.2007L179.658 44.5058L177.354 48.7332C177.274 48.8635 177.136 48.945 176.991 48.945ZM171.194 41.8179L174.848 43.8379C174.913 43.8786 174.97 43.9356 175.01 44.0008L176.999 47.6906L179.004 44.0089C179.044 43.9438 179.101 43.8868 179.165 43.846L182.827 41.8423L179.173 39.8141C179.109 39.7734 179.052 39.7164 179.012 39.6512L177.023 35.9614L175.01 39.6431C174.97 39.7082 174.913 39.7653 174.848 39.806L171.194 41.8179Z" fill="#2C365E"/>
<path d="M122.549 72.2829C122.404 72.2829 122.266 72.2014 122.194 72.0711L119.906 67.8355L115.71 65.506C115.581 65.4327 115.5 65.2942 115.5 65.1476C115.5 65.001 115.581 64.8625 115.71 64.7892L119.914 62.4841L122.226 58.2567C122.299 58.1264 122.436 58.0449 122.582 58.0449C122.727 58.0449 122.865 58.1264 122.937 58.2567L125.225 62.4922L129.421 64.8218C129.55 64.8951 129.631 65.0336 129.631 65.1802C129.631 65.3268 129.55 65.4653 129.421 65.5386L125.217 67.8437L122.913 72.0711C122.832 72.2014 122.695 72.2829 122.549 72.2829Z" fill="#2C365E"/>
</svg>
