<!--
  - Copyright (c) 2023-2025. Cloud Software Group, Inc. All Rights Reserved. Confidential & Proprietary
  -->

<svg width="496" height="112" viewBox="0 0 496 112" fill="none" xmlns="http://www.w3.org/2000/svg">
<rect width="496" height="112" rx="6" fill="#B2FFAF"/>
<g clip-path="url(#clip0_6755_7788)">
<path d="M377.613 48.7754V77.7241L345.846 92.1985V63.2498L377.613 48.7754Z" fill="#D8FFD6"/>
<path d="M345.845 63.2498V92.1985L314.078 77.7241V48.7754L345.845 63.2498Z" fill="#D8FFD6"/>
<path d="M345.845 92.1888L377.613 77.7144V48.7656L345.845 63.24L314.078 48.7656V77.7144L345.845 92.1888Z" stroke="#134611" stroke-width="2" stroke-linecap="round" stroke-linejoin="round"/>
<path d="M328.518 42.1895L314.078 48.7666" stroke="#134611" stroke-width="2" stroke-linecap="round" stroke-linejoin="round"/>
<path d="M377.612 48.7666L363.172 42.1895" stroke="#134611" stroke-width="2" stroke-linecap="round" stroke-linejoin="round"/>
<path d="M345.846 63.2402V92.189" stroke="#134611" stroke-width="2" stroke-linecap="round" stroke-linejoin="round"/>
<path d="M345.846 48.7664V25.6074" stroke="#134611" stroke-width="2" stroke-linecap="round" stroke-linejoin="round"/>
<path d="M357.396 37.1855L345.845 48.765L334.293 37.1855" stroke="#134611" stroke-width="2" stroke-linecap="round" stroke-linejoin="round"/>
</g>
<path d="M129.35 27.2384C128.976 27.2384 128.682 26.944 128.682 26.5693V19.1691C128.682 18.7944 128.976 18.5 129.35 18.5C129.724 18.5 130.018 18.7944 130.018 19.1691V26.5693C130.032 26.944 129.724 27.2384 129.35 27.2384Z" fill="#134611"/>
<path d="M129.35 46.2403C128.976 46.2403 128.682 45.9459 128.682 45.5712V38.171C128.682 37.7964 128.976 37.502 129.35 37.502C129.724 37.502 130.018 37.7964 130.018 38.171V45.5712C130.032 45.9459 129.724 46.2403 129.35 46.2403Z" fill="#134611"/>
<path d="M142.543 33.0472H135.151C134.776 33.0472 134.482 32.7528 134.482 32.3781C134.482 32.0034 134.776 31.709 135.151 31.709H142.543C142.917 31.709 143.211 32.0034 143.211 32.3781C143.211 32.7394 142.917 33.0472 142.543 33.0472Z" fill="#134611"/>
<path d="M123.56 33.0472H116.168C115.794 33.0472 115.5 32.7528 115.5 32.3781C115.5 32.0034 115.794 31.709 116.168 31.709H123.56C123.935 31.709 124.229 32.0034 124.229 32.3781C124.229 32.7394 123.935 33.0472 123.56 33.0472Z" fill="#134611"/>
<path d="M120.032 42.371C119.858 42.371 119.684 42.3041 119.564 42.1703C119.296 41.9026 119.296 41.4878 119.564 41.2202L124.79 35.9878C125.058 35.7202 125.472 35.7202 125.739 35.9878C126.007 36.2555 126.007 36.6703 125.739 36.9379L120.513 42.1703C120.379 42.3041 120.205 42.371 120.032 42.371Z" fill="#134611"/>
<path d="M133.452 28.9374C133.278 28.9374 133.104 28.8705 132.984 28.7367C132.716 28.469 132.716 28.0542 132.984 27.7866L138.21 22.5542C138.478 22.2866 138.892 22.2866 139.159 22.5542C139.427 22.8219 139.427 23.2367 139.159 23.5044L133.919 28.7367C133.799 28.8705 133.625 28.9374 133.452 28.9374Z" fill="#134611"/>
<path d="M125.258 28.9374C125.084 28.9374 124.911 28.8705 124.79 28.7367L119.564 23.5044C119.296 23.2367 119.296 22.8219 119.564 22.5542C119.831 22.2866 120.245 22.2866 120.513 22.5542L125.739 27.7866C126.007 28.0542 126.007 28.469 125.739 28.7367C125.606 28.8705 125.432 28.9374 125.258 28.9374Z" fill="#134611"/>
<path d="M138.678 42.371C138.504 42.371 138.331 42.3041 138.21 42.1703L132.984 36.9379C132.716 36.6703 132.716 36.2555 132.984 35.9878C133.251 35.7202 133.665 35.7202 133.933 35.9878L139.159 41.2202C139.427 41.4878 139.427 41.9026 139.159 42.1703C139.026 42.3041 138.852 42.371 138.678 42.371Z" fill="#134611"/>
<path d="M180.926 74.8776C180.758 74.8776 180.599 74.784 180.515 74.6341L177.871 69.7644L173.022 67.086C172.873 67.0018 172.779 66.8426 172.779 66.674C172.779 66.5054 172.873 66.3462 173.022 66.2619L177.88 63.6117L180.552 58.7513C180.636 58.6015 180.795 58.5078 180.963 58.5078C181.131 58.5078 181.29 58.6015 181.374 58.7513L184.018 63.621L188.867 66.2994C189.016 66.3837 189.11 66.5429 189.11 66.7114C189.11 66.88 189.016 67.0392 188.867 67.1235L184.009 69.7738L181.346 74.6341C181.253 74.784 181.094 74.8776 180.926 74.8776Z" fill="#134611"/>
<path d="M254.965 66.0848C254.77 66.0848 254.574 66.0093 254.423 65.8582L229.697 40.2877C229.411 39.9856 229.411 39.5023 229.712 39.2153C230.014 38.9284 230.481 38.9284 230.782 39.2304L254.996 64.2724L281.65 39.2153C281.921 38.9586 282.328 38.9435 282.629 39.17L314.527 63.9552C314.859 64.212 314.919 64.6802 314.663 65.0124C314.407 65.3447 313.94 65.4051 313.608 65.1484L282.223 40.7559L255.493 65.8885C255.327 66.0244 255.146 66.0848 254.965 66.0848Z" fill="#134611"/>
<path d="M237.005 39.7601C237.005 43.5058 233.977 46.5417 230.24 46.5417C226.503 46.5417 223.475 43.5058 223.475 39.7601C223.475 36.0144 226.503 32.9786 230.24 32.9786C233.977 32.9635 237.005 36.0144 237.005 39.7601Z" fill="#9DE79A"/>
<path d="M230.224 47.2961C226.08 47.2961 222.705 43.9129 222.705 39.7594C222.705 35.6059 226.08 32.2227 230.224 32.2227C234.367 32.2227 237.742 35.6059 237.742 39.7594C237.742 43.9129 234.382 47.2961 230.224 47.2961ZM230.224 33.7179C226.909 33.7179 224.212 36.4215 224.212 39.7443C224.212 43.0671 226.909 45.7707 230.224 45.7707C233.539 45.7707 236.236 43.0671 236.236 39.7443C236.251 36.4366 233.554 33.7179 230.224 33.7179Z" fill="#134611"/>
<path d="M288.925 39.7601C288.925 43.5058 285.897 46.5417 282.16 46.5417C278.423 46.5417 275.395 43.5058 275.395 39.7601C275.395 36.0144 278.423 32.9786 282.16 32.9786C285.897 32.9635 288.925 36.0144 288.925 39.7601Z" fill="white"/>
<path d="M282.147 47.2961C278.003 47.2961 274.613 43.9129 274.613 39.7594C274.613 35.6059 277.988 32.2227 282.147 32.2227C286.306 32.2227 289.666 35.6059 289.666 39.7594C289.666 43.9129 286.306 47.2961 282.147 47.2961ZM282.147 33.7179C278.832 33.7179 276.12 36.4215 276.12 39.7443C276.12 43.0671 278.817 45.7707 282.147 45.7707C285.462 45.7707 288.159 43.0671 288.159 39.7443C288.174 36.4366 285.477 33.7179 282.147 33.7179Z" fill="#134611"/>
<path d="M261.73 64.5452C261.73 68.291 258.701 71.3268 254.965 71.3268C251.228 71.3268 248.199 68.291 248.199 64.5452C248.199 60.7995 251.228 57.7637 254.965 57.7637C258.701 57.7637 261.73 60.7995 261.73 64.5452Z" fill="#134611"/>
<path d="M254.966 72.0969C250.822 72.0969 247.447 68.7137 247.447 64.5602C247.447 60.4067 250.822 57.0234 254.966 57.0234C259.11 57.0234 262.5 60.4067 262.5 64.5602C262.5 68.7137 259.11 72.0969 254.966 72.0969ZM254.966 58.5187C251.651 58.5187 248.954 61.2223 248.954 64.5451C248.954 67.8679 251.651 70.5715 254.966 70.5715C258.281 70.5715 260.993 67.8679 260.993 64.5451C260.978 61.2223 258.281 58.5187 254.966 58.5187Z" fill="#134611"/>
<defs>
<clipPath id="clip0_6755_7788">
<rect width="69.3106" height="69.477" fill="white" transform="translate(311.189 24.0234)"/>
</clipPath>
</defs>
</svg>
