<!--
  - Copyright (c) 2023-2025. Cloud Software Group, Inc. All Rights Reserved. Confidential & Proprietary
  -->

<svg width="48" height="49" viewBox="0 0 48 49" fill="none" xmlns="http://www.w3.org/2000/svg">
<path d="M9.21739 11.0488H5.73913C5.27788 11.0488 4.83553 11.2321 4.50938 11.5582C4.18323 11.8844 4 12.3267 4 12.788V42.3532C4 42.8144 4.18323 43.2568 4.50938 43.5829C4.83553 43.9091 5.27788 44.0923 5.73913 44.0923H35.3044C35.7656 44.0923 36.208 43.9091 36.5341 43.5829C36.8603 43.2568 37.0435 42.8144 37.0435 42.3532V38.8749" fill="#134611"/>
<path d="M9.21739 11.0488H5.73913C5.27788 11.0488 4.83553 11.2321 4.50938 11.5582C4.18323 11.8844 4 12.3267 4 12.788V42.3532C4 42.8144 4.18323 43.2568 4.50938 43.5829C4.83553 43.9091 5.27788 44.0923 5.73913 44.0923H35.3044C35.7656 44.0923 36.208 43.9091 36.5341 43.5829C36.8603 43.2568 37.0435 42.8144 37.0435 42.3532V38.8749" stroke="#134611" stroke-width="2" stroke-linecap="round" stroke-linejoin="round"/>
<path d="M10.9561 4.5918H42.2607C42.5481 4.59191 42.8255 4.69149 43.0459 4.87207L43.1367 4.95508C43.3689 5.18743 43.499 5.50256 43.499 5.83105V37.1357C43.4989 37.4232 43.3994 37.7005 43.2188 37.9209L43.1367 38.0117C42.9045 38.244 42.5892 38.3739 42.2607 38.374H10.9561C10.6686 38.374 10.3914 38.2743 10.1709 38.0938L10.0801 38.0117C9.84781 37.7794 9.71692 37.4642 9.7168 37.1357V5.83105L9.72266 5.70801C9.74685 5.46517 9.84247 5.23472 9.99707 5.0459L10.0801 4.95508C10.2833 4.75184 10.5495 4.6259 10.833 4.59766L10.9561 4.5918Z" fill="white" stroke="#01004C"/>
<path d="M43.9994 5.83093C43.9994 5.36968 43.8162 4.92733 43.49 4.60118C43.1639 4.27503 42.7215 4.0918 42.2603 4.0918H10.9559C10.4947 4.0918 10.0523 4.27503 9.72618 4.60118C9.40003 4.92733 9.2168 5.36968 9.2168 5.83093V37.1353C9.2168 37.5965 9.40003 38.0389 9.72618 38.365C10.0523 38.6912 10.4947 38.8744 10.9559 38.8744H42.2603C42.7215 38.8744 43.1639 38.6912 43.49 38.365C43.8162 38.0389 43.9994 37.5965 43.9994 37.1353V5.83093Z" stroke="#134611" stroke-width="2" stroke-linecap="round" stroke-linejoin="round"/>
<g clip-path="url(#clip0_6687_9986)">
<path d="M15.9286 27.1942C15.3041 27.2292 14.8221 27.6357 14.747 28.2566C14.6944 28.6914 14.6523 29.3022 14.6523 30.1434C14.6523 30.9846 14.6944 31.5954 14.747 32.0302C14.8221 32.6511 15.3041 33.0577 15.9286 33.0926C16.3323 33.1152 16.8877 33.1326 17.6415 33.1326C18.3953 33.1326 18.9507 33.1152 19.3543 33.0926C19.9788 33.0577 20.4608 32.6511 20.5359 32.0302C20.5885 31.5954 20.6306 30.9846 20.6306 30.1434C20.6306 29.3022 20.5885 28.6914 20.5359 28.2566C20.4608 27.6357 19.9788 27.2292 19.3543 27.1942C18.9507 27.1716 18.3953 27.1543 17.6415 27.1543C16.8877 27.1543 16.3323 27.1716 15.9286 27.1942Z" fill="#9DE79A"/>
<path d="M33.8622 10.0751C33.2377 10.1101 32.7557 10.5165 32.6806 11.1375C32.628 11.5723 32.5859 12.183 32.5859 13.0243C32.5859 13.8655 32.628 14.4763 32.6806 14.911C32.7557 15.532 33.2377 15.9385 33.8622 15.9735C34.2659 15.996 34.8213 16.0134 35.5751 16.0134C36.3289 16.0134 36.8843 15.996 37.2879 15.9735C37.9124 15.9385 38.3944 15.532 38.4695 14.911C38.5221 14.4763 38.5642 13.8655 38.5642 13.0243C38.5642 12.183 38.5221 11.5723 38.4695 11.1375C38.3944 10.5165 37.9124 10.1101 37.2879 10.0751C36.8843 10.0525 36.3289 10.0352 35.5751 10.0352C34.8213 10.0352 34.2659 10.0525 33.8622 10.0751Z" fill="#9DE79A"/>
<path d="M33.7269 23.695C32.604 23.6534 32.1091 22.6376 32.7637 21.7243C32.9397 21.4787 33.1413 21.2056 33.3717 20.9038C33.819 20.3177 34.194 19.8941 34.4967 19.5891C35.0512 19.0302 35.8424 19.0302 36.397 19.589C36.6997 19.894 37.0746 20.3176 37.5219 20.9038C37.7521 21.2054 37.9536 21.4784 38.1295 21.7239C38.7842 22.6374 38.2893 23.6535 37.1661 23.695C36.6976 23.7123 36.1306 23.7235 35.4468 23.7235C34.7626 23.7235 34.1955 23.7123 33.7269 23.695Z" fill="white"/>
<path d="M15.9286 27.1942C15.3041 27.2292 14.8221 27.6357 14.747 28.2566C14.6944 28.6914 14.6523 29.3022 14.6523 30.1434C14.6523 30.9846 14.6944 31.5954 14.747 32.0302C14.8221 32.6511 15.3041 33.0577 15.9286 33.0926C16.3323 33.1152 16.8877 33.1326 17.6415 33.1326C18.3953 33.1326 18.9507 33.1152 19.3543 33.0926C19.9788 33.0577 20.4608 32.6511 20.5359 32.0302C20.5885 31.5954 20.6306 30.9846 20.6306 30.1434C20.6306 29.3022 20.5885 28.6914 20.5359 28.2566C20.4608 27.6357 19.9788 27.2292 19.3543 27.1942C18.9507 27.1716 18.3953 27.1543 17.6415 27.1543C16.8877 27.1543 16.3323 27.1716 15.9286 27.1942Z" stroke="#134611" stroke-width="2" stroke-linejoin="round"/>
<path d="M33.8622 10.0751C33.2377 10.1101 32.7557 10.5165 32.6806 11.1375C32.628 11.5723 32.5859 12.183 32.5859 13.0243C32.5859 13.8655 32.628 14.4763 32.6806 14.911C32.7557 15.532 33.2377 15.9385 33.8622 15.9735C34.2659 15.996 34.8213 16.0134 35.5751 16.0134C36.3289 16.0134 36.8843 15.996 37.2879 15.9735C37.9124 15.9385 38.3944 15.532 38.4695 14.911C38.5221 14.4763 38.5642 13.8655 38.5642 13.0243C38.5642 12.183 38.5221 11.5723 38.4695 11.1375C38.3944 10.5165 37.9124 10.1101 37.2879 10.0751C36.8843 10.0525 36.3289 10.0352 35.5751 10.0352C34.8213 10.0352 34.2659 10.0525 33.8622 10.0751Z" stroke="#134611" stroke-width="2" stroke-linejoin="round"/>
<path d="M35.4637 23.6972V29.8004C35.4637 31.6014 34.0037 33.0613 32.2028 33.0613H29.8696C28.0687 33.0613 26.6088 31.6014 26.6088 29.8004V13.0949C26.6088 11.2939 25.1488 9.83398 23.3479 9.83398H21.0148C19.2138 9.83398 17.7539 11.2939 17.7539 13.0949V23.6972" stroke="#134611" stroke-width="2" stroke-linecap="round" stroke-linejoin="round"/>
<path d="M33.7269 23.695C32.604 23.6534 32.1091 22.6376 32.7637 21.7243C32.9397 21.4787 33.1413 21.2056 33.3717 20.9038C33.819 20.3177 34.194 19.8941 34.4967 19.5891C35.0512 19.0302 35.8424 19.0302 36.397 19.589C36.6997 19.894 37.0746 20.3176 37.5219 20.9038C37.7521 21.2054 37.9536 21.4784 38.1295 21.7239C38.7842 22.6374 38.2893 23.6535 37.1661 23.695C36.6976 23.7123 36.1306 23.7235 35.4468 23.7235C34.7626 23.7235 34.1955 23.7123 33.7269 23.695Z" stroke="#134611" stroke-width="2" stroke-linejoin="round"/>
</g>
<defs>
<clipPath id="clip0_6687_9986">
<rect width="26.087" height="26.087" fill="white" transform="translate(13.5645 8.43945)"/>
</clipPath>
</defs>
</svg>
