<!--
  - Copyright (c) 2023-2025. Cloud Software Group, Inc. All Rights Reserved. Confidential & Proprietary
  -->

<svg width="36" height="17" viewBox="0 0 36 17" fill="none" xmlns="http://www.w3.org/2000/svg">
<rect x="0.976562" y="0.414062" width="35" height="16" rx="8" fill="url(#paint0_linear_5595_6720)"/>
<path d="M9.29656 11.9141L10.5966 5.37406H11.6566L12.9366 9.16406L13.3166 10.5741H13.3566C13.3966 10.2341 13.4366 9.8674 13.4766 9.47406C13.5166 9.08073 13.5732 8.70406 13.6466 8.34406L14.2366 5.37406H15.2766L13.9666 11.9141H12.9166L11.6466 8.13406L11.2666 6.70406H11.2266C11.1866 7.0574 11.1432 7.42406 11.0966 7.80406C11.0499 8.18406 10.9899 8.55406 10.9166 8.91406L10.3266 11.9141H9.29656ZM15.6152 9.95406C15.6152 9.49406 15.6918 9.0774 15.8452 8.70406C16.0052 8.32406 16.2118 8.00073 16.4652 7.73406C16.7252 7.46073 17.0152 7.25073 17.3352 7.10406C17.6552 6.9574 17.9752 6.88406 18.2952 6.88406C18.5818 6.88406 18.8218 6.93073 19.0152 7.02406C19.2152 7.1174 19.3752 7.2474 19.4952 7.41406C19.6218 7.57406 19.7118 7.76406 19.7652 7.98406C19.8252 8.20406 19.8552 8.44073 19.8552 8.69406C19.8552 8.9074 19.8285 9.11406 19.7752 9.31406C19.7218 9.51406 19.6785 9.65406 19.6452 9.73406H16.6552C16.6285 9.99406 16.6418 10.2174 16.6952 10.4041C16.7485 10.5907 16.8285 10.7441 16.9352 10.8641C17.0485 10.9841 17.1852 11.0741 17.3452 11.1341C17.5052 11.1874 17.6785 11.2141 17.8652 11.2141C18.0385 11.2141 18.2152 11.1741 18.3952 11.0941C18.5752 11.0141 18.7318 10.9241 18.8652 10.8241L19.2652 11.5141C19.0652 11.6541 18.8218 11.7774 18.5352 11.8841C18.2552 11.9841 17.9385 12.0341 17.5852 12.0341C17.2918 12.0341 17.0252 11.9874 16.7852 11.8941C16.5452 11.8007 16.3385 11.6674 16.1652 11.4941C15.9918 11.3141 15.8552 11.0974 15.7552 10.8441C15.6618 10.5841 15.6152 10.2874 15.6152 9.95406ZM16.7452 9.05406H18.9152C18.9285 8.9874 18.9385 8.92073 18.9452 8.85406C18.9585 8.78073 18.9652 8.70406 18.9652 8.62406C18.9652 8.38406 18.9052 8.17406 18.7852 7.99406C18.6718 7.8074 18.4652 7.71406 18.1652 7.71406C17.8652 7.71406 17.5818 7.83406 17.3152 8.07406C17.0552 8.3074 16.8652 8.63406 16.7452 9.05406ZM21.0117 11.9141L20.7217 7.00406H21.7817L21.8617 9.63406C21.8684 9.8674 21.8684 10.1007 21.8617 10.3341C21.8551 10.5674 21.8517 10.8041 21.8517 11.0441H21.8917C21.9851 10.8041 22.0751 10.5674 22.1617 10.3341C22.2551 10.1007 22.3551 9.8674 22.4617 9.63406L23.6017 7.00406H24.5817L24.7117 9.63406C24.7184 9.8674 24.7217 10.1007 24.7217 10.3341C24.7217 10.5674 24.7251 10.8041 24.7317 11.0441H24.7717C24.8651 10.8041 24.9517 10.5674 25.0317 10.3341C25.1184 10.1007 25.2117 9.8674 25.3117 9.63406L26.4017 7.00406H27.4017L25.2417 11.9141H23.9617L23.8717 9.55406C23.8717 9.32073 23.8684 9.08406 23.8617 8.84406C23.8617 8.60406 23.8617 8.3574 23.8617 8.10406H23.8217C23.7284 8.3574 23.6351 8.60406 23.5417 8.84406C23.4551 9.08406 23.3651 9.32073 23.2717 9.55406L22.2617 11.9141H21.0117Z" fill="white"/>
<defs>
<linearGradient id="paint0_linear_5595_6720" x1="6.12788" y1="-1.50062" x2="31.5615" y2="19.2778" gradientUnits="userSpaceOnUse">
<stop stop-color="#00DB16"/>
<stop offset="0.75" stop-color="#006315"/>
</linearGradient>
</defs>
</svg>
