<!--
  - Copyright (c) 2023-2025. Cloud Software Group, Inc. All Rights Reserved. Confidential & Proprietary
  -->

<svg width="50" height="16" viewBox="0 0 50 16" fill="none" xmlns="http://www.w3.org/2000/svg">
<rect width="50" height="16" rx="8" fill="url(#paint0_linear_5506_4456)"/>
<path d="M8.32 11.5L9.62 4.96H11.58C11.8933 4.96 12.18 4.99 12.44 5.05C12.7067 5.11 12.9333 5.21 13.12 5.35C13.3133 5.48333 13.4633 5.65667 13.57 5.87C13.6767 6.07667 13.73 6.33 13.73 6.63C13.73 7.05667 13.6533 7.42333 13.5 7.73C13.3533 8.03667 13.1467 8.28667 12.88 8.48C12.62 8.67333 12.31 8.81667 11.95 8.91C11.59 9.00333 11.2033 9.05 10.79 9.05H9.88L9.4 11.5H8.32ZM10.06 8.19H10.88C11.46 8.19 11.9 8.07333 12.2 7.84C12.5067 7.6 12.66 7.24667 12.66 6.78C12.66 6.44 12.55 6.19667 12.33 6.05C12.11 5.89667 11.7933 5.82 11.38 5.82H10.52L10.06 8.19ZM15.6485 11.62C15.3752 11.62 15.1252 11.5733 14.8985 11.48C14.6718 11.3867 14.4785 11.2533 14.3185 11.08C14.1585 10.9067 14.0352 10.6967 13.9485 10.45C13.8618 10.2033 13.8185 9.92667 13.8185 9.62C13.8185 9.15333 13.8952 8.72667 14.0485 8.34C14.2085 7.94667 14.4152 7.61333 14.6685 7.34C14.9218 7.06667 15.2085 6.85333 15.5285 6.7C15.8552 6.54667 16.1852 6.47 16.5185 6.47C17.0785 6.47 17.5252 6.65 17.8585 7.01C18.1918 7.36333 18.3585 7.85 18.3585 8.47C18.3585 8.93667 18.2785 9.36333 18.1185 9.75C17.9652 10.1367 17.7618 10.47 17.5085 10.75C17.2552 11.0233 16.9652 11.2367 16.6385 11.39C16.3185 11.5433 15.9885 11.62 15.6485 11.62ZM15.7685 10.75C15.9618 10.75 16.1485 10.6933 16.3285 10.58C16.5085 10.46 16.6685 10.3 16.8085 10.1C16.9485 9.89333 17.0585 9.65333 17.1385 9.38C17.2252 9.10667 17.2685 8.81333 17.2685 8.5C17.2685 8.12667 17.1952 7.84 17.0485 7.64C16.9018 7.44 16.6885 7.34 16.4085 7.34C16.2152 7.34 16.0252 7.4 15.8385 7.52C15.6585 7.63333 15.4985 7.79 15.3585 7.99C15.2185 8.19 15.1052 8.42667 15.0185 8.7C14.9385 8.97333 14.8985 9.26667 14.8985 9.58C14.8985 9.95333 14.9718 10.2433 15.1185 10.45C15.2652 10.65 15.4818 10.75 15.7685 10.75ZM20.0627 10.98L19.9027 11.98L19.6227 13.44H18.5527L19.9327 6.59H20.8027L20.7827 7.19H20.8127C21.046 6.98333 21.2993 6.81333 21.5727 6.68C21.846 6.54 22.1227 6.47 22.4027 6.47C22.8427 6.47 23.186 6.62333 23.4327 6.93C23.6793 7.23667 23.8027 7.68 23.8027 8.26C23.8027 8.73333 23.7293 9.17333 23.5827 9.58C23.436 9.98667 23.2393 10.3433 22.9927 10.65C22.746 10.95 22.466 11.1867 22.1527 11.36C21.8393 11.5333 21.5127 11.62 21.1727 11.62C20.9393 11.62 20.7293 11.5633 20.5427 11.45C20.356 11.33 20.2027 11.1733 20.0827 10.98H20.0627ZM21.9627 7.35C21.7693 7.35 21.5593 7.41 21.3327 7.53C21.106 7.64333 20.8993 7.82 20.7127 8.06L20.2927 10.16C20.3993 10.3667 20.5227 10.5167 20.6627 10.61C20.8027 10.6967 20.9493 10.74 21.1027 10.74C21.3093 10.74 21.5093 10.68 21.7027 10.56C21.896 10.4333 22.066 10.2633 22.2127 10.05C22.3593 9.83667 22.476 9.59 22.5627 9.31C22.656 9.02333 22.7027 8.72 22.7027 8.4C22.7027 8.04 22.636 7.77667 22.5027 7.61C22.3693 7.43667 22.1893 7.35 21.9627 7.35ZM29.2821 6.59L28.3121 11.5H27.4421L27.4821 10.8H27.4421C27.1954 11.02 26.9354 11.2133 26.6621 11.38C26.3888 11.54 26.1021 11.62 25.8021 11.62C25.3888 11.62 25.0888 11.5133 24.9021 11.3C24.7221 11.08 24.6321 10.7733 24.6321 10.38C24.6321 10.2667 24.6388 10.1567 24.6521 10.05C24.6654 9.93667 24.6854 9.81667 24.7121 9.69L25.3321 6.59H26.4021L25.8121 9.55C25.7854 9.66333 25.7654 9.76 25.7521 9.84C25.7388 9.92 25.7321 9.99667 25.7321 10.07C25.7321 10.49 25.9354 10.7 26.3421 10.7C26.6688 10.7 27.0721 10.4467 27.5521 9.94L28.2121 6.59H29.2821ZM30.7632 11.62C30.4765 11.62 30.2665 11.55 30.1332 11.41C29.9999 11.27 29.9332 11.0733 29.9332 10.82C29.9332 10.6667 29.9565 10.4933 30.0032 10.3L31.1732 4.44H32.2432L31.0632 10.35C31.0499 10.4033 31.0432 10.4433 31.0432 10.47C31.0432 10.4967 31.0432 10.52 31.0432 10.54C31.0432 10.68 31.0999 10.75 31.2132 10.75C31.2465 10.75 31.2732 10.75 31.2932 10.75C31.3132 10.7433 31.3465 10.7333 31.3932 10.72L31.3732 11.52C31.2999 11.5533 31.2132 11.5767 31.1132 11.59C31.0132 11.61 30.8965 11.62 30.7632 11.62ZM33.9004 11.62C33.4671 11.62 33.1237 11.4667 32.8704 11.16C32.6237 10.8533 32.5004 10.41 32.5004 9.83C32.5004 9.36333 32.5737 8.92667 32.7204 8.52C32.8671 8.10667 33.0637 7.75 33.3104 7.45C33.5571 7.14333 33.8371 6.90333 34.1504 6.73C34.4704 6.55667 34.8004 6.47 35.1404 6.47C35.3804 6.47 35.6004 6.53333 35.8004 6.66C36.0004 6.78 36.1571 6.94667 36.2704 7.16H36.2904L36.5004 6.59H37.3604L36.3804 11.5H35.5004L35.5504 10.82H35.5204C35.2871 11.06 35.0271 11.2533 34.7404 11.4C34.4604 11.5467 34.1804 11.62 33.9004 11.62ZM34.3404 10.74C34.5537 10.74 34.7704 10.6767 34.9904 10.55C35.2171 10.4233 35.4304 10.21 35.6304 9.91L36.0304 7.95C35.9171 7.73667 35.7871 7.58333 35.6404 7.49C35.5004 7.39667 35.3537 7.35 35.2004 7.35C34.9937 7.35 34.7937 7.41333 34.6004 7.54C34.4071 7.66 34.2371 7.82667 34.0904 8.04C33.9437 8.25333 33.8271 8.50333 33.7404 8.79C33.6537 9.07 33.6104 9.36667 33.6104 9.68C33.6104 10.04 33.6737 10.3067 33.8004 10.48C33.9337 10.6533 34.1137 10.74 34.3404 10.74ZM37.8098 11.5L38.7898 6.59H39.6598L39.5698 7.54H39.6098C39.8032 7.23333 40.0298 6.98 40.2898 6.78C40.5498 6.57333 40.8298 6.47 41.1298 6.47C41.3232 6.47 41.4865 6.5 41.6198 6.56L41.2598 7.5C41.1998 7.46667 41.1298 7.44667 41.0498 7.44C40.9698 7.42667 40.8865 7.42 40.7998 7.42C40.5665 7.42 40.3365 7.51 40.1098 7.69C39.8832 7.87 39.6698 8.15 39.4698 8.53L38.8898 11.5H37.8098Z" fill="white"/>
<defs>
<linearGradient id="paint0_linear_5506_4456" x1="-12.3171" y1="7.69308" x2="5.53988" y2="33.029" gradientUnits="userSpaceOnUse">
<stop stop-color="#BFCA33"/>
<stop offset="1" stop-color="#827717"/>
</linearGradient>
</defs>
</svg>
