<!--
  - Copyright (c) 2023-2025. Cloud Software Group, Inc. All Rights Reserved. Confidential & Proprietary
  -->

<svg width="496" height="112" viewBox="0 0 496 112" fill="none" xmlns="http://www.w3.org/2000/svg">
<rect width="496" height="112" rx="6" fill="#FFDFA2"/>
<path d="M335.873 34.9844H284.146V41.6383H335.873V34.9844Z" fill="#FFF1E4"/>
<path d="M284.148 42.4435C283.944 42.4435 283.74 42.3647 283.599 42.207C283.457 42.0651 283.363 41.8601 283.363 41.6552V35.0013C283.363 34.5598 283.709 34.2129 284.148 34.2129H335.874C336.314 34.2129 336.659 34.5598 336.659 35.0013V41.6552C336.659 41.8601 336.58 42.0651 336.423 42.207C336.282 42.3489 336.078 42.4435 335.874 42.4435H284.148ZM284.933 35.7896V40.8668H335.089V35.7896H284.933Z" fill="#F07502"/>
<path d="M335.858 49.7461H306.166V54.0664H335.858V49.7461Z" fill="#FFF1E4"/>
<path d="M306.166 54.8541C305.726 54.8541 305.381 54.5072 305.381 54.0657V49.7454C305.381 49.5404 305.459 49.3355 305.616 49.1936C305.758 49.0517 305.962 48.957 306.166 48.957H335.858C336.297 48.957 336.643 49.3039 336.643 49.7454V54.0657C336.643 54.2707 336.564 54.4757 336.407 54.6176C336.266 54.7595 336.062 54.8541 335.858 54.8541H306.166ZM306.95 50.5338V53.2773H335.073V50.5338H306.95Z" fill="#F07502"/>
<path d="M342.369 33.4336V66.6557L367.291 76.2423V43.5879L342.369 33.4336Z" fill="white"/>
<path d="M367.292 77.0346C367.198 77.0346 367.104 77.0188 367.01 76.9873L342.088 67.4006C341.79 67.2903 341.586 66.9907 341.586 66.6596V33.4532C341.586 33.1852 341.711 32.9486 341.931 32.8067C342.151 32.6648 342.418 32.6333 342.669 32.7279L367.59 42.8822C367.888 43.0083 368.077 43.2921 368.077 43.6075V76.262C368.077 76.5143 367.951 76.7665 367.731 76.9084C367.606 76.9873 367.449 77.0346 367.292 77.0346ZM343.155 66.1077L366.507 75.0952V44.112L343.155 34.6042V66.1077Z" fill="#F07502"/>
<path d="M392.212 33.4336V66.6557L367.291 76.2423V43.5879L392.212 33.4336Z" fill="white"/>
<path d="M367.294 77.0347C367.138 77.0347 366.981 76.9874 366.855 76.8928C366.635 76.7509 366.51 76.4986 366.51 76.2463V43.5919C366.51 43.2765 366.698 42.9769 366.996 42.8666L391.918 32.7123C392.153 32.6177 392.436 32.6492 392.655 32.7911C392.875 32.933 393.001 33.1853 393.001 33.4376V66.6439C393.001 66.9751 392.797 67.2589 392.498 67.385L367.577 76.9717C367.483 77.019 367.389 77.0347 367.294 77.0347ZM368.079 44.128V75.1111L391.431 66.1236V34.6202L368.079 44.128Z" fill="#F07502"/>
<path d="M392.212 33.4336V66.6557L367.291 76.2423V43.5879L392.212 33.4336Z" fill="white"/>
<path d="M367.294 77.0347C367.138 77.0347 366.981 76.9874 366.855 76.8928C366.635 76.7509 366.51 76.4986 366.51 76.2463V43.5919C366.51 43.2765 366.698 42.9769 366.996 42.8666L391.918 32.7123C392.153 32.6177 392.436 32.6492 392.655 32.7911C392.875 32.933 393.001 33.1853 393.001 33.4376V66.6439C393.001 66.9751 392.797 67.2589 392.498 67.385L367.577 76.9717C367.483 77.019 367.389 77.0347 367.294 77.0347ZM368.079 44.128V75.1111L391.431 66.1236V34.6202L368.079 44.128Z" fill="#F07502"/>
<path d="M382.516 37.2969V44.6603L376.992 46.7889V39.5516L382.516 37.2969Z" fill="#F07502"/>
<path d="M376.992 47.5793C376.835 47.5793 376.678 47.532 376.552 47.4374C376.333 47.2955 376.207 47.0432 376.207 46.791V39.5537C376.207 39.2383 376.395 38.9387 376.694 38.8284L382.218 36.5736C382.453 36.479 382.736 36.5105 382.955 36.6524C383.175 36.7944 383.301 37.0466 383.301 37.2989V44.6623C383.301 44.9935 383.097 45.2773 382.798 45.4034L377.274 47.532C377.18 47.5636 377.086 47.5793 376.992 47.5793ZM377.776 40.0898V45.6557L381.731 44.1263V38.4815L377.776 40.0898Z" fill="#F07502"/>
<path d="M367.291 23.3301L392.212 33.437L367.291 43.5913L342.369 33.437L367.291 23.3301Z" fill="white"/>
<path d="M367.292 44.377C367.198 44.377 367.088 44.3612 366.994 44.3139L342.072 34.1597C341.774 34.0335 341.586 33.7497 341.586 33.4344C341.586 33.119 341.774 32.8194 342.072 32.7091L366.994 22.6021C367.182 22.5233 367.386 22.5233 367.575 22.6021L392.496 32.7091C392.794 32.8352 392.983 33.119 392.983 33.4344C392.983 33.7497 392.794 34.0493 392.496 34.1597L367.575 44.3139C367.496 44.3612 367.386 44.377 367.292 44.377ZM344.458 33.4344L367.292 42.7372L390.126 33.4344L367.292 24.1788L344.458 33.4344Z" fill="#F07502"/>
<g opacity="0.12">
<path d="M367.291 23.3301L392.212 33.437L367.291 43.5913L342.369 33.437L367.291 23.3301Z" fill="white"/>
<path d="M367.292 44.377C367.198 44.377 367.088 44.3612 366.994 44.3139L342.072 34.1597C341.774 34.0335 341.586 33.7497 341.586 33.4344C341.586 33.119 341.774 32.8194 342.072 32.7091L366.994 22.6021C367.182 22.5233 367.386 22.5233 367.575 22.6021L392.496 32.7091C392.794 32.8352 392.983 33.119 392.983 33.4344C392.983 33.7497 392.794 34.0493 392.496 34.1597L367.575 44.3139C367.496 44.3612 367.386 44.377 367.292 44.377ZM344.458 33.4344L367.292 42.7372L390.126 33.4344L367.292 24.1788L344.458 33.4344Z" fill="#F07502"/>
</g>
<path d="M367.291 23.3301L392.212 33.437L367.291 43.5913L342.369 33.437L367.291 23.3301Z" fill="#F2F1F6"/>
<path d="M367.292 44.377C367.198 44.377 367.088 44.3612 366.994 44.3139L342.072 34.1597C341.774 34.0335 341.586 33.7497 341.586 33.4344C341.586 33.119 341.774 32.8194 342.072 32.7091L366.994 22.6021C367.182 22.5233 367.386 22.5233 367.575 22.6021L392.496 32.7091C392.794 32.8352 392.983 33.119 392.983 33.4344C392.983 33.7497 392.794 34.0493 392.496 34.1597L367.575 44.3139C367.496 44.3612 367.386 44.377 367.292 44.377ZM344.458 33.4344L367.292 42.7372L390.126 33.4344L367.292 24.1788L344.458 33.4344Z" fill="#F07502"/>
<path d="M376.993 39.398L355.006 28.4711L360.091 26.2637L382.517 37.3009L376.993 39.398Z" fill="#F07502"/>
<path d="M376.992 40.1842C376.867 40.1842 376.757 40.1527 376.647 40.1054L354.66 29.1785C354.393 29.0366 354.221 28.7528 354.221 28.4532C354.236 28.1536 354.409 27.8698 354.692 27.7437L359.776 25.5362C359.996 25.4416 360.231 25.4574 360.435 25.552L382.862 36.605C383.144 36.7469 383.317 37.0307 383.301 37.3461C383.285 37.6614 383.081 37.9295 382.799 38.0398L377.275 40.1369C377.18 40.1685 377.086 40.1842 376.992 40.1842ZM356.873 28.5163L377.039 38.5444L380.539 37.2199L360.059 27.1287L356.873 28.5163Z" fill="#F07502"/>
<path d="M248.19 37.2988C248.039 37.2988 247.897 37.2149 247.822 37.0805L245.46 32.7147L241.129 30.3136C240.996 30.238 240.912 30.0953 240.912 29.9441C240.912 29.793 240.996 29.6503 241.129 29.5747L245.469 27.1987L247.856 22.8413C247.931 22.707 248.073 22.623 248.223 22.623C248.373 22.623 248.515 22.707 248.59 22.8413L250.952 27.2071L255.283 29.6083C255.417 29.6839 255.5 29.8266 255.5 29.9777C255.5 30.1289 255.417 30.2716 255.283 30.3471L250.944 32.7231L248.565 37.0805C248.482 37.2149 248.34 37.2988 248.19 37.2988Z" fill="#F07502"/>
<path d="M187.442 70.8544C187.267 70.8544 187.092 70.7867 186.958 70.6513L164.87 47.7269C164.614 47.4561 164.614 47.0228 164.883 46.7655C165.152 46.5082 165.57 46.5082 165.839 46.7791L187.469 69.2295L211.28 46.7655C211.522 46.5353 211.885 46.5218 212.154 46.7249L240.649 68.9452C240.945 69.1754 240.999 69.5951 240.77 69.893C240.541 70.1909 240.124 70.2451 239.828 70.0149L211.791 48.1467L187.913 70.6784C187.765 70.8002 187.604 70.8544 187.442 70.8544Z" fill="#F07502"/>
<path d="M171.398 47.2536C171.398 50.6117 168.692 53.3334 165.354 53.3334C162.016 53.3334 159.311 50.6117 159.311 47.2536C159.311 43.8956 162.016 41.1739 165.354 41.1739C168.692 41.1603 171.398 43.8956 171.398 47.2536Z" fill="white"/>
<path d="M165.341 54.0097C161.64 54.0097 158.625 50.9766 158.625 47.2529C158.625 43.5292 161.64 40.4961 165.341 40.4961C169.043 40.4961 172.058 43.5292 172.058 47.2529C172.058 50.9766 169.056 54.0097 165.341 54.0097ZM165.341 41.8366C162.38 41.8366 159.971 44.2604 159.971 47.2394C159.971 50.2183 162.38 52.6421 165.341 52.6421C168.303 52.6421 170.712 50.2183 170.712 47.2394C170.725 44.2739 168.316 41.8366 165.341 41.8366Z" fill="#F07502"/>
<path d="M217.78 47.2536C217.78 50.6117 215.075 53.3334 211.737 53.3334C208.399 53.3334 205.693 50.6117 205.693 47.2536C205.693 43.8956 208.399 41.1739 211.737 41.1739C215.075 41.1603 217.78 43.8956 217.78 47.2536Z" fill="white"/>
<path d="M211.724 54.0097C208.023 54.0097 204.994 50.9766 204.994 47.2529C204.994 43.5292 208.009 40.4961 211.724 40.4961C215.439 40.4961 218.441 43.5292 218.441 47.2529C218.441 50.9766 215.439 54.0097 211.724 54.0097ZM211.724 41.8366C208.763 41.8366 206.34 44.2604 206.34 47.2394C206.34 50.2183 208.749 52.6421 211.724 52.6421C214.685 52.6421 217.095 50.2183 217.095 47.2394C217.108 44.2739 214.699 41.8366 211.724 41.8366Z" fill="#F07502"/>
<path d="M193.485 69.4743C193.485 72.8324 190.78 75.5541 187.442 75.5541C184.104 75.5541 181.398 72.8324 181.398 69.4743C181.398 66.1162 184.104 63.3945 187.442 63.3945C190.78 63.3945 193.485 66.1162 193.485 69.4743Z" fill="#F07502"/>
<path d="M187.441 76.2441C183.74 76.2441 180.725 73.211 180.725 69.4873C180.725 65.7636 183.74 62.7305 187.441 62.7305C191.143 62.7305 194.171 65.7636 194.171 69.4873C194.171 73.211 191.143 76.2441 187.441 76.2441ZM187.441 64.071C184.48 64.071 182.071 66.4948 182.071 69.4737C182.071 72.4527 184.48 74.8765 187.441 74.8765C190.402 74.8765 192.825 72.4527 192.825 69.4737C192.812 66.4948 190.402 64.071 187.441 64.071Z" fill="#F07502"/>
<path d="M260.744 53.9238C267.905 53.9239 273.852 59.1676 275.01 66.0537L275.08 66.4707H278.2C284.007 66.4707 288.826 71.4761 289.112 77.8623L289.126 78.4844V78.4854C289.126 85.1666 284.194 90.499 278.2 90.499H241.756C235.762 90.499 230.83 85.1666 230.83 78.4854C230.83 71.8039 235.762 66.4707 241.756 66.4707H246.407L246.478 66.0537C247.636 59.1673 253.573 53.9238 260.744 53.9238Z" fill="#FFF1E4" stroke="#F07502"/>
<path d="M115.372 28.8341C115.038 28.8341 114.775 28.5701 114.775 28.2342V21.5999C114.775 21.2639 115.038 21 115.372 21C115.707 21 115.97 21.2639 115.97 21.5999V28.2342C115.981 28.5701 115.707 28.8341 115.372 28.8341Z" fill="#F07502"/>
<path d="M115.372 45.8712C115.038 45.8712 114.775 45.6072 114.775 45.2713V38.637C114.775 38.301 115.038 38.0371 115.372 38.0371C115.707 38.0371 115.97 38.301 115.97 38.637V45.2713C115.981 45.6072 115.707 45.8712 115.372 45.8712Z" fill="#F07502"/>
<path d="M127.155 34.0435H120.552C120.218 34.0435 119.955 33.7795 119.955 33.4436C119.955 33.1077 120.218 32.8438 120.552 32.8438H127.155C127.49 32.8438 127.752 33.1077 127.752 33.4436C127.752 33.7675 127.49 34.0435 127.155 34.0435Z" fill="#F07502"/>
<path d="M110.2 34.0435H103.597C103.263 34.0435 103 33.7795 103 33.4436C103 33.1077 103.263 32.8438 103.597 32.8438H110.2C110.535 32.8438 110.797 33.1077 110.797 33.4436C110.797 33.7675 110.535 34.0435 110.2 34.0435Z" fill="#F07502"/>
<path d="M107.048 42.4006C106.893 42.4006 106.738 42.3406 106.63 42.2206C106.391 41.9807 106.391 41.6088 106.63 41.3689L111.299 36.678C111.538 36.4381 111.908 36.4381 112.147 36.678C112.386 36.9179 112.386 37.2899 112.147 37.5298L107.478 42.2206C107.359 42.3406 107.203 42.4006 107.048 42.4006Z" fill="#F07502"/>
<path d="M119.038 30.3557C118.883 30.3557 118.728 30.2957 118.621 30.1757C118.382 29.9358 118.382 29.5639 118.621 29.3239L123.289 24.6331C123.528 24.3931 123.898 24.3931 124.137 24.6331C124.376 24.873 124.376 25.2449 124.137 25.4849L119.456 30.1757C119.349 30.2957 119.194 30.3557 119.038 30.3557Z" fill="#F07502"/>
<path d="M111.717 30.3557C111.562 30.3557 111.407 30.2957 111.299 30.1757L106.63 25.4849C106.391 25.2449 106.391 24.873 106.63 24.6331C106.869 24.3931 107.239 24.3931 107.478 24.6331L112.147 29.3239C112.386 29.5639 112.386 29.9358 112.147 30.1757C112.028 30.2957 111.872 30.3557 111.717 30.3557Z" fill="#F07502"/>
<path d="M123.707 42.4006C123.552 42.4006 123.397 42.3406 123.289 42.2206L118.621 37.5298C118.382 37.2899 118.382 36.9179 118.621 36.678C118.859 36.4381 119.23 36.4381 119.468 36.678L124.137 41.3689C124.376 41.6088 124.376 41.9807 124.137 42.2206C124.018 42.3406 123.863 42.4006 123.707 42.4006Z" fill="#F07502"/>
</svg>
