<!--
  - Copyright (c) 2023-2025. Cloud Software Group, Inc. All Rights Reserved. Confidential & Proprietary
  -->

<svg width="48" height="57" viewBox="0 0 48 57" fill="none" xmlns="http://www.w3.org/2000/svg">
<g clip-path="url(#clip0_6687_10000)">
<path d="M13 6.0918H39C39 6.0918 41 6.0918 41 8.0918V31.3798C41 31.3798 41 33.3798 39 33.3798H13C13 33.3798 11 33.3798 11 31.3798V8.0918C11 8.0918 11 6.0918 13 6.0918Z" fill="#FFF7E6"/>
<path d="M46.9625 28.4918C47.0218 28.201 47.0157 27.9007 46.9446 27.6125C46.8735 27.3244 46.7391 27.0557 46.5513 26.826C46.3635 26.5962 46.1268 26.4111 45.8586 26.2841C45.5904 26.1571 45.2972 26.0914 45.0005 26.0918H20.4005C19.9391 26.0924 19.4916 25.9334 19.1341 25.6418C18.7765 25.3502 18.5307 24.9439 18.4385 24.4918L17.8825 21.6918C17.7902 21.2397 17.5444 20.8334 17.1868 20.5418C16.8293 20.2502 16.3819 20.0912 15.9205 20.0918H3.00046C2.70368 20.0914 2.41054 20.1571 2.14231 20.2841C1.87407 20.4111 1.63745 20.5962 1.44962 20.826C1.26178 21.0557 1.12743 21.3244 1.05632 21.6125C0.985201 21.9007 0.9791 22.201 1.03846 22.4918L6.23846 48.4918C6.33074 48.9439 6.57649 49.3502 6.93407 49.6418C7.29165 49.9334 7.73905 50.0924 8.20046 50.0918H41.0005C41.4615 50.0919 41.9084 49.9327 42.2656 49.6411C42.6228 49.3496 42.8682 48.9435 42.9605 48.4918L46.9625 28.4918Z" fill="#F07502"/>
<path d="M11 16.0918V8.0918C11 7.56136 11.2107 7.05266 11.5858 6.67758C11.9609 6.30251 12.4696 6.0918 13 6.0918H39C39.5304 6.0918 40.0391 6.30251 40.4142 6.67758C40.7893 7.05266 41 7.56136 41 8.0918V22.0918" stroke="#F07502" stroke-width="2" stroke-linecap="round" stroke-linejoin="round"/>
<path d="M17 12.0918H34" stroke="#F07502" stroke-width="2" stroke-linecap="round" stroke-linejoin="round"/>
<path d="M25 18.0918H34" stroke="#F07502" stroke-width="2" stroke-linecap="round" stroke-linejoin="round"/>
<path d="M46.9625 28.4918C47.0218 28.201 47.0157 27.9007 46.9446 27.6125C46.8735 27.3244 46.7391 27.0557 46.5513 26.826C46.3635 26.5962 46.1268 26.4111 45.8586 26.2841C45.5904 26.1571 45.2972 26.0914 45.0005 26.0918H20.4005C19.9391 26.0924 19.4916 25.9334 19.1341 25.6418C18.7765 25.3502 18.5307 24.9439 18.4385 24.4918L17.8825 21.6918C17.7902 21.2397 17.5444 20.8334 17.1868 20.5418C16.8293 20.2502 16.3819 20.0912 15.9205 20.0918H3.00046C2.70368 20.0914 2.41054 20.1571 2.14231 20.2841C1.87407 20.4111 1.63745 20.5962 1.44961 20.826C1.26178 21.0557 1.12743 21.3244 1.05632 21.6125C0.985201 21.9007 0.9791 22.201 1.03846 22.4918L6.23846 48.4918C6.33074 48.9439 6.57649 49.3502 6.93407 49.6418C7.29165 49.9334 7.73905 50.0924 8.20046 50.0918H41.0005C41.4615 50.0919 41.9084 49.9327 42.2656 49.6411C42.6228 49.3496 42.8682 48.9435 42.9605 48.4918L46.9625 28.4918Z" stroke="#F07502" stroke-width="2" stroke-linecap="round" stroke-linejoin="round"/>
</g>
<defs>
<clipPath id="clip0_6687_10000">
<rect width="48" height="48" fill="white" transform="translate(0 4.0918)"/>
</clipPath>
</defs>
</svg>
