<svg width="48" height="48" viewBox="0 0 48 48" fill="none" xmlns="http://www.w3.org/2000/svg">
<path d="M9.21739 10.957H5.73913C5.27788 10.957 4.83553 11.1403 4.50938 11.4664C4.18323 11.7926 4 12.2349 4 12.6962V42.2614C4 42.7226 4.18323 43.165 4.50938 43.4911C4.83553 43.8173 5.27788 44.0005 5.73913 44.0005H35.3043C35.7656 44.0005 36.208 43.8173 36.5341 43.4911C36.8603 43.165 37.0435 42.7226 37.0435 42.2614V38.7831" fill="#018686"/>
<path d="M9.21739 10.957H5.73913C5.27788 10.957 4.83553 11.1403 4.50938 11.4664C4.18323 11.7926 4 12.2349 4 12.6962V42.2614C4 42.7226 4.18323 43.165 4.50938 43.4911C4.83553 43.8173 5.27788 44.0005 5.73913 44.0005H35.3043C35.7656 44.0005 36.208 43.8173 36.5341 43.4911C36.8603 43.165 37.0435 42.7226 37.0435 42.2614V38.7831" stroke="#018686" stroke-width="2" stroke-linecap="round" stroke-linejoin="round"/>
<path d="M43.9994 5.73913C43.9994 5.27788 43.8162 4.83553 43.49 4.50938C43.1639 4.18323 42.7215 4 42.2603 4H10.9559C10.4947 4 10.0523 4.18323 9.72618 4.50938C9.40003 4.83553 9.2168 5.27788 9.2168 5.73913V37.0435C9.2168 37.5047 9.40003 37.9471 9.72618 38.2732C10.0523 38.5994 10.4947 38.7826 10.9559 38.7826H42.2603C42.7215 38.7826 43.1639 38.5994 43.49 38.2732C43.8162 37.9471 43.9994 37.5047 43.9994 37.0435V5.73913Z" fill="white"/>
<path d="M43.9994 5.73913C43.9994 5.27788 43.8162 4.83553 43.49 4.50938C43.1639 4.18323 42.7215 4 42.2603 4H10.9559C10.4947 4 10.0523 4.18323 9.72618 4.50938C9.40003 4.83553 9.2168 5.27788 9.2168 5.73913V37.0435C9.2168 37.5047 9.40003 37.9471 9.72618 38.2732C10.0523 38.5994 10.4947 38.7826 10.9559 38.7826H42.2603C42.7215 38.7826 43.1639 38.5994 43.49 38.2732C43.8162 37.9471 43.9994 37.5047 43.9994 37.0435V5.73913Z" stroke="#018686" stroke-width="2" stroke-linecap="round" stroke-linejoin="round"/>
<g clip-path="url(#clip0_12832_20838)">
<path d="M37.2871 11.4609C37.2871 10.9087 36.8394 10.4609 36.2871 10.4609H31.1738C30.6215 10.4609 30.1738 10.9087 30.1738 11.4609V16.5742C30.1738 17.1265 30.6215 17.5742 31.1738 17.5742H36.2871C36.8394 17.5742 37.2871 17.1265 37.2871 16.5742V11.4609Z" stroke="#018686" stroke-width="2" stroke-linecap="round" stroke-linejoin="round"/>
<path d="M22.7402 26.2031C22.7402 25.6508 22.2925 25.2031 21.7402 25.2031H16.627C16.0747 25.2031 15.627 25.6508 15.627 26.2031V31.3164C15.627 31.8687 16.0747 32.3164 16.627 32.3164H21.7402C22.2925 32.3164 22.7402 31.8687 22.7402 31.3164V26.2031Z" fill="#A3E6E6" stroke="#018686" stroke-width="2" stroke-linecap="round" stroke-linejoin="round"/>
<path d="M34.7324 17.5781C34.7324 17.0258 34.2847 16.5781 33.7324 16.5781C33.1801 16.5781 32.7324 17.0258 32.7324 17.5781H33.7324H34.7324ZM28.3991 28.7598C28.3991 31.7053 30.7869 34.0931 33.7324 34.0931C36.6779 34.0931 39.0658 31.7053 39.0658 28.7598C39.0658 25.8142 36.6779 23.4264 33.7324 23.4264C30.7869 23.4264 28.3991 25.8142 28.3991 28.7598ZM33.7324 17.5781H32.7324V28.7598H33.7324H34.7324V17.5781H33.7324Z" fill="#018686"/>
<path d="M30.1745 17.5781L22.6426 25.11" stroke="#018686" stroke-width="2" stroke-linecap="round" stroke-linejoin="round"/>
<path d="M16.5 12.4081C16.5 13.111 16.7792 13.7851 17.2763 14.2822C17.7733 14.7792 18.4474 15.0584 19.1503 15.0584C19.8532 15.0584 20.5273 14.7792 21.0244 14.2822C21.5214 13.7851 21.8006 13.111 21.8006 12.4081C21.8006 11.7052 21.5214 11.0311 21.0244 10.5341C20.5273 10.037 19.8532 9.75781 19.1503 9.75781C18.4474 9.75781 17.7733 10.037 17.2763 10.5341C16.7792 11.0311 16.5 11.7052 16.5 12.4081Z" fill="#018686"/>
<path d="M19.1515 15.6172C18.0416 15.6172 16.9773 16.0581 16.1925 16.8429C15.4077 17.6276 14.9668 18.692 14.9668 19.8019C14.9668 19.8759 14.9962 19.9468 15.0485 19.9992C15.1008 20.0515 15.1718 20.0809 15.2458 20.0809H23.0572C23.1312 20.0809 23.2022 20.0515 23.2545 19.9992C23.3068 19.9468 23.3362 19.8759 23.3362 19.8019C23.3362 18.692 22.8953 17.6276 22.1105 16.8429C21.3257 16.0581 20.2614 15.6172 19.1515 15.6172Z" fill="#018686"/>
</g>
<defs>
<clipPath id="clip0_12832_20838">
<rect width="24" height="24" fill="white" transform="translate(14.6074 9.39062)"/>
</clipPath>
</defs>
</svg>
