<svg width="496" height="112" viewBox="0 0 496 112" fill="none" xmlns="http://www.w3.org/2000/svg">
<rect width="496" height="112" rx="6" fill="#A3E6E6"/>
<path d="M88.8822 23.4552C88.5479 23.4552 88.2852 23.1912 88.2852 22.8553V16.2209C88.2852 15.885 88.5479 15.6211 88.8822 15.6211C89.2165 15.6211 89.4793 15.885 89.4793 16.2209V22.8553C89.4912 23.1912 89.2165 23.4552 88.8822 23.4552Z" fill="#018686"/>
<path d="M88.8822 40.4923C88.5479 40.4923 88.2852 40.2283 88.2852 39.8924V33.2581C88.2852 32.9221 88.5479 32.6582 88.8822 32.6582C89.2165 32.6582 89.4793 32.9221 89.4793 33.2581V39.8924C89.4912 40.2283 89.2165 40.4923 88.8822 40.4923Z" fill="#018686"/>
<path d="M100.665 28.6645H94.0619C93.7275 28.6645 93.4648 28.4006 93.4648 28.0647C93.4648 27.7288 93.7275 27.4648 94.0619 27.4648H100.665C101 27.4648 101.262 27.7288 101.262 28.0647C101.262 28.3886 101 28.6645 100.665 28.6645Z" fill="#018686"/>
<path d="M83.7101 28.6645H77.1068C76.7725 28.6645 76.5098 28.4006 76.5098 28.0647C76.5098 27.7288 76.7725 27.4648 77.1068 27.4648H83.7101C84.0444 27.4648 84.3071 27.7288 84.3071 28.0647C84.3071 28.3886 84.0444 28.6645 83.7101 28.6645Z" fill="#018686"/>
<path d="M80.558 37.0217C80.4027 37.0217 80.2475 36.9617 80.1401 36.8417C79.9012 36.6018 79.9012 36.2299 80.1401 35.9899L84.8089 31.2991C85.0477 31.0592 85.4179 31.0592 85.6567 31.2991C85.8955 31.539 85.8955 31.9109 85.6567 32.1509L80.9878 36.8417C80.8684 36.9617 80.7132 37.0217 80.558 37.0217Z" fill="#018686"/>
<path d="M92.5483 24.9768C92.393 24.9768 92.2378 24.9168 92.1303 24.7968C91.8915 24.5569 91.8915 24.185 92.1303 23.945L96.7992 19.2542C97.038 19.0142 97.4081 19.0142 97.6469 19.2542C97.8858 19.4941 97.8858 19.866 97.6469 20.106L92.9662 24.7968C92.8587 24.9168 92.7035 24.9768 92.5483 24.9768Z" fill="#018686"/>
<path d="M85.2268 24.9768C85.0716 24.9768 84.9164 24.9168 84.8089 24.7968L80.1401 20.106C79.9012 19.866 79.9012 19.4941 80.1401 19.2542C80.3789 19.0142 80.749 19.0142 80.9878 19.2542L85.6567 23.945C85.8955 24.185 85.8955 24.5569 85.6567 24.7968C85.5373 24.9168 85.3821 24.9768 85.2268 24.9768Z" fill="#018686"/>
<path d="M97.2171 37.0217C97.0619 37.0217 96.9067 36.9617 96.7992 36.8417L92.1303 32.1509C91.8915 31.9109 91.8915 31.539 92.1303 31.2991C92.3691 31.0592 92.7393 31.0592 92.9781 31.2991L97.6469 35.9899C97.8858 36.2299 97.8858 36.6018 97.6469 36.8417C97.5275 36.9617 97.3723 37.0217 97.2171 37.0217Z" fill="#018686"/>
<path d="M428.058 63.8341C427.724 63.8341 427.461 63.5701 427.461 63.2342V56.5999C427.461 56.2639 427.724 56 428.058 56C428.392 56 428.655 56.2639 428.655 56.5999V63.2342C428.667 63.5701 428.392 63.8341 428.058 63.8341Z" fill="#018686"/>
<path d="M428.058 80.8712C427.724 80.8712 427.461 80.6072 427.461 80.2713V73.637C427.461 73.301 427.724 73.0371 428.058 73.0371C428.392 73.0371 428.655 73.301 428.655 73.637V80.2713C428.667 80.6072 428.392 80.8712 428.058 80.8712Z" fill="#018686"/>
<path d="M439.841 69.0435H433.238C432.903 69.0435 432.641 68.7795 432.641 68.4436C432.641 68.1077 432.903 67.8438 433.238 67.8438H439.841C440.175 67.8438 440.438 68.1077 440.438 68.4436C440.438 68.7675 440.175 69.0435 439.841 69.0435Z" fill="#018686"/>
<path d="M422.886 69.0435H416.283C415.948 69.0435 415.686 68.7795 415.686 68.4436C415.686 68.1077 415.948 67.8438 416.283 67.8438H422.886C423.22 67.8438 423.483 68.1077 423.483 68.4436C423.483 68.7675 423.22 69.0435 422.886 69.0435Z" fill="#018686"/>
<path d="M419.734 77.4006C419.579 77.4006 419.423 77.3406 419.316 77.2206C419.077 76.9807 419.077 76.6088 419.316 76.3689L423.985 71.678C424.224 71.4381 424.594 71.4381 424.832 71.678C425.071 71.9179 425.071 72.2899 424.832 72.5298L420.164 77.2206C420.044 77.3406 419.889 77.4006 419.734 77.4006Z" fill="#018686"/>
<path d="M431.724 65.3557C431.569 65.3557 431.414 65.2957 431.306 65.1757C431.067 64.9358 431.067 64.5639 431.306 64.3239L435.975 59.6331C436.214 59.3931 436.584 59.3931 436.823 59.6331C437.062 59.873 437.062 60.2449 436.823 60.4849L432.142 65.1757C432.034 65.2957 431.879 65.3557 431.724 65.3557Z" fill="#018686"/>
<path d="M424.403 65.3557C424.247 65.3557 424.092 65.2957 423.985 65.1757L419.316 60.4849C419.077 60.2449 419.077 59.873 419.316 59.6331C419.555 59.3931 419.925 59.3931 420.164 59.6331L424.832 64.3239C425.071 64.5639 425.071 64.9358 424.832 65.1757C424.713 65.2957 424.558 65.3557 424.403 65.3557Z" fill="#018686"/>
<path d="M436.393 77.4006C436.238 77.4006 436.082 77.3406 435.975 77.2206L431.306 72.5298C431.067 72.2899 431.067 71.9179 431.306 71.678C431.545 71.4381 431.915 71.4381 432.154 71.678L436.823 76.3689C437.062 76.6088 437.062 76.9807 436.823 77.2206C436.703 77.3406 436.548 77.4006 436.393 77.4006Z" fill="#018686"/>
<path d="M234.934 41.4279C234.934 45.5072 236.554 49.4194 239.439 52.3039C242.323 55.1884 246.235 56.8089 250.315 56.8089C254.394 56.8089 258.306 55.1884 261.191 52.3039C264.075 49.4194 265.696 45.5072 265.696 41.4279C265.696 37.3486 264.075 33.4364 261.191 30.5519C258.306 27.6674 254.394 26.0469 250.315 26.0469C246.235 26.0469 242.323 27.6674 239.439 30.5519C236.554 33.4364 234.934 37.3486 234.934 41.4279Z" fill="#018686"/>
<path d="M250.315 60.0469C243.874 60.0469 237.697 62.6055 233.142 67.16C228.588 71.7145 226.029 77.8917 226.029 84.3327C226.029 84.762 226.2 85.1739 226.504 85.4775C226.807 85.7811 227.219 85.9517 227.648 85.9517H272.982C273.411 85.9517 273.823 85.7811 274.127 85.4775C274.43 85.1739 274.601 84.762 274.601 84.3327C274.601 77.8917 272.042 71.7145 267.488 67.16C262.933 62.6055 256.756 60.0469 250.315 60.0469Z" fill="#018686"/>
<path d="M173.475 47.0248L173.475 66.158C173.475 69.8914 176.455 72.6914 179.892 72.6914C183.559 72.6914 186.309 69.658 186.309 66.158L186.309 47.0248C186.309 43.2915 183.33 40.4915 179.892 40.4915C176.455 40.4915 173.475 43.5248 173.475 47.0248Z" fill="#00A3A3" stroke="#018686" stroke-width="2" stroke-miterlimit="10" stroke-linecap="round" stroke-linejoin="round"/>
<path d="M335.936 56.5918L367.535 56.5918" stroke="#018686" stroke-width="2" stroke-miterlimit="10" stroke-linecap="round" stroke-linejoin="round"/>
<path d="M172.406 56.5918L142.18 56.5918" stroke="#018686" stroke-width="2" stroke-miterlimit="10" stroke-linecap="round" stroke-linejoin="round"/>
<path d="M361.936 49.3586L369.269 56.5919L361.936 64.0586" stroke="#018686" stroke-width="2" stroke-miterlimit="10" stroke-linecap="round" stroke-linejoin="round"/>
<path d="M148.494 49.3586L141.161 56.5919L148.494 64.0586" stroke="#018686" stroke-width="2" stroke-miterlimit="10" stroke-linecap="round" stroke-linejoin="round"/>
<path d="M274.602 56.808L283.79 47.5176L293.08 56.808L303.484 67.2121L314.321 56.808" stroke="#018686" stroke-width="2" stroke-linecap="round" stroke-linejoin="round"/>
<path d="M226.029 56.808L216.841 47.5176L207.55 56.808L197.146 67.2121L186.31 56.808" stroke="#018686" stroke-width="2" stroke-linecap="round" stroke-linejoin="round"/>
<rect x="314.752" y="35.627" width="20.1836" height="42.1328" rx="5" stroke="#018686" stroke-width="2"/>
<path d="M290.493 48.1839C290.493 44.8258 287.788 42.1041 284.45 42.1041C281.112 42.1041 278.406 44.8258 278.406 48.1839C278.406 51.542 281.112 54.2637 284.45 54.2637C287.788 54.2637 290.493 51.542 290.493 48.1839Z" fill="#00A3A3"/>
<path d="M284.443 41.4278C280.742 41.4278 277.727 44.4609 277.727 48.1846C277.727 51.9083 280.742 54.9414 284.443 54.9414C288.145 54.9414 291.173 51.9083 291.173 48.1846C291.173 44.4609 288.145 41.4278 284.443 41.4278ZM284.443 53.6009C281.482 53.6009 279.073 51.1771 279.073 48.1981C279.073 45.2192 281.482 42.7954 284.443 42.7954C287.404 42.7954 289.827 45.2192 289.827 48.1981C289.814 51.1771 287.404 53.6009 284.443 53.6009Z" fill="#018686"/>
<path d="M232.085 57.3635C232.085 54.0054 229.38 51.2838 226.042 51.2838C222.703 51.2838 219.998 54.0054 219.998 57.3635C219.998 60.7216 222.703 63.4433 226.042 63.4433C229.38 63.4569 232.085 60.7216 232.085 57.3635Z" fill="white"/>
<path d="M226.029 50.6075C222.328 50.6075 219.312 53.6406 219.312 57.3643C219.312 61.088 222.328 64.1211 226.029 64.1211C229.73 64.1211 232.745 61.088 232.745 57.3643C232.745 53.6406 229.744 50.6075 226.029 50.6075ZM226.029 62.7806C223.068 62.7806 220.658 60.3568 220.658 57.3778C220.658 54.3989 223.068 51.9751 226.029 51.9751C228.99 51.9751 231.399 54.3989 231.399 57.3778C231.413 60.3432 229.004 62.7806 226.029 62.7806Z" fill="#018686"/>
</svg>
