<!--
  - Copyright (c) 2023-2025. Cloud Software Group, Inc. All Rights Reserved. Confidential & Proprietary
  -->

<svg xmlns="http://www.w3.org/2000/svg" width="21" height="21" viewBox="0 0 21 21" fill="none">
    <path fill-rule="evenodd" clip-rule="evenodd" d="M10.1429 18.3757C14.7453 18.3757 18.4762 14.6447 18.4762 10.0423C18.4762 5.43994 14.7453 1.70898 10.1429 1.70898C5.54054 1.70898 1.80958 5.43994 1.80958 10.0423C1.80958 14.6447 5.54054 18.3757 10.1429 18.3757ZM9.65356 12.765L13.8198 8.59834C13.9614 8.45667 14.0489 8.26176 14.0489 8.04556C14.0489 7.61454 13.6989 7.26454 13.2679 7.26454C13.0522 7.26454 12.8563 7.3525 12.7151 7.49371L9.10125 11.1081L7.31004 9.31685C7.16838 9.17519 6.97301 9.08769 6.75727 9.08769C6.32625 9.08769 5.97625 9.43723 5.97625 9.86871C5.97625 10.0844 6.06329 10.2798 6.20495 10.421L8.54847 12.765C8.69014 12.9067 8.88551 12.9937 9.10125 12.9937C9.31699 12.9937 9.51236 12.9067 9.65356 12.765Z" fill="#039145"/>
</svg>