<!--
  - Copyright (c) 2023-2025. Cloud Software Group, Inc. All Rights Reserved. Confidential & Proprietary
  -->

<svg width="496" height="112" viewBox="0 0 496 112" fill="none" xmlns="http://www.w3.org/2000/svg">
<rect width="496" height="112" rx="6" fill="#FFCCF2"/>
<path d="M196.188 56.1152V97.501H181.656V56.1152H196.188Z" fill="#311847" stroke="#311847"/>
<path d="M226.993 37.2852V97.499H212.449V37.2852H226.993Z" fill="white" stroke="#311847"/>
<path d="M257.789 63.2324V97.499H243.258V63.2324H257.789Z" fill="#F3E5FF" stroke="#311847"/>
<path d="M351.197 51.7686L323.881 51.7686C323.292 51.7686 322.793 52.2741 322.811 52.8699C323.417 69.2997 337.655 82.1908 354.408 80.3131C367.433 78.8507 377.96 68.2165 379.387 55.0365C381.242 38.0651 368.468 23.6393 352.214 23.0435C351.643 23.0254 351.179 23.4949 351.179 24.0726L351.179 51.7686L351.197 51.7686Z" fill="white"/>
<path d="M321.936 52.8343C321.936 52.3288 322.132 51.8413 322.489 51.4802C322.863 51.101 323.381 50.8664 323.898 50.8664L350.322 50.8664L350.322 24.0912C350.322 23.5676 350.536 23.0621 350.911 22.701C351.285 22.3399 351.767 22.1413 352.284 22.1593C360.385 22.4482 368.074 26.1855 373.391 32.4144C378.779 38.7155 381.224 46.8041 380.314 55.1454C378.833 68.7586 367.985 79.7178 354.55 81.2164C346.307 82.1372 338.332 79.6456 332.105 74.2292C325.968 68.867 322.257 61.1034 321.953 52.9066C321.936 52.8885 321.936 52.8524 321.936 52.8343ZM378.708 51.7511C378.708 45.0528 376.389 38.7156 372.035 33.588C367.057 27.7383 359.831 24.2356 352.231 23.9648L352.106 51.7691C352.106 52.2747 351.713 52.6719 351.214 52.6719L323.898 52.6719L322.828 52.8704L323.72 52.8343C324.005 60.5256 327.484 67.8198 333.247 72.857C339.099 77.9665 346.575 80.2956 354.336 79.429C366.968 78.0207 377.138 67.7295 378.53 54.9468C378.655 53.8635 378.708 52.7982 378.708 51.7511Z" fill="#311847"/>
<path d="M344.539 15.4078C328.66 16.0578 315.903 28.9669 315.261 45.0356C315.225 45.7397 315.814 46.3175 316.492 46.3175L344.575 46.3175C345.253 46.3175 345.806 45.7578 345.806 45.0717L345.806 16.6536C345.824 15.9675 345.235 15.3717 344.539 15.4078Z" fill="#F3E5FF"/>
<path d="M314.37 45.0897C314.37 45.0536 314.37 45.0356 314.37 44.9995C315.03 28.5697 328.269 15.1731 344.505 14.505C345.076 14.487 345.629 14.6856 346.039 15.1008C346.467 15.5161 346.699 16.0758 346.699 16.6536L346.699 45.0717C346.699 46.2452 345.754 47.2202 344.576 47.2202L316.493 47.2202C315.922 47.2202 315.351 46.9855 314.941 46.5522C314.584 46.155 314.37 45.6314 314.37 45.0897ZM344.594 16.3105C329.286 16.9424 316.796 29.5807 316.172 45.0717C316.172 45.1981 316.225 45.2703 316.261 45.3064C316.333 45.3786 316.422 45.4147 316.511 45.4147L344.594 45.4147C344.772 45.4147 344.933 45.2703 344.933 45.0717L344.933 16.6536C344.933 16.5633 344.897 16.4549 344.826 16.4008C344.772 16.3646 344.701 16.3105 344.594 16.3105Z" fill="#311847"/>
<path d="M273.626 22.2754C273.274 22.2754 272.998 21.9966 272.998 21.6417V14.6336C272.998 14.2788 273.274 14 273.626 14C273.977 14 274.254 14.2788 274.254 14.6336V21.6417C274.266 21.9966 273.977 22.2754 273.626 22.2754Z" fill="#311847"/>
<path d="M273.626 40.2715C273.274 40.2715 272.998 39.9926 272.998 39.6378V32.6297C272.998 32.2749 273.274 31.9961 273.626 31.9961C273.977 31.9961 274.254 32.2749 274.254 32.6297V39.6378C274.266 39.9926 273.977 40.2715 273.626 40.2715Z" fill="#311847"/>
<path d="M286.018 27.777H279.075C278.723 27.777 278.447 27.4982 278.447 27.1434C278.447 26.7886 278.723 26.5098 279.075 26.5098H286.018C286.37 26.5098 286.646 26.7886 286.646 27.1434C286.646 27.4856 286.37 27.777 286.018 27.777Z" fill="#311847"/>
<path d="M268.188 27.777H261.245C260.893 27.777 260.617 27.4982 260.617 27.1434C260.617 26.7886 260.893 26.5098 261.245 26.5098H268.188C268.54 26.5098 268.816 26.7886 268.816 27.1434C268.816 27.4856 268.54 27.777 268.188 27.777Z" fill="#311847"/>
<path d="M264.874 36.6042C264.711 36.6042 264.547 36.5408 264.434 36.4141C264.183 36.1606 264.183 35.7678 264.434 35.5143L269.344 30.5592C269.595 30.3058 269.984 30.3058 270.235 30.5592C270.486 30.8127 270.486 31.2055 270.235 31.459L265.326 36.4141C265.2 36.5408 265.037 36.6042 264.874 36.6042Z" fill="#311847"/>
<path d="M277.479 23.8835C277.316 23.8835 277.153 23.8201 277.04 23.6934C276.789 23.4399 276.789 23.0471 277.04 22.7936L281.949 17.8385C282.2 17.5851 282.59 17.5851 282.841 17.8385C283.092 18.092 283.092 18.4848 282.841 18.7383L277.919 23.6934C277.806 23.8201 277.643 23.8835 277.479 23.8835Z" fill="#311847"/>
<path d="M269.783 23.8835C269.62 23.8835 269.457 23.8201 269.344 23.6934L264.434 18.7383C264.183 18.4848 264.183 18.092 264.434 17.8385C264.686 17.5851 265.075 17.5851 265.326 17.8385L270.235 22.7936C270.486 23.0471 270.486 23.4399 270.235 23.6934C270.11 23.8201 269.946 23.8835 269.783 23.8835Z" fill="#311847"/>
<path d="M282.389 36.6042C282.225 36.6042 282.062 36.5408 281.949 36.4141L277.04 31.459C276.789 31.2055 276.789 30.8127 277.04 30.5592C277.291 30.3058 277.68 30.3058 277.931 30.5592L282.841 35.5143C283.092 35.7678 283.092 36.1606 282.841 36.4141C282.715 36.5408 282.552 36.6042 282.389 36.6042Z" fill="#311847"/>
<path d="M123.152 44.3579C122.994 44.3579 122.845 44.2692 122.766 44.1273L120.283 39.5156L115.728 36.9792C115.588 36.8994 115.5 36.7486 115.5 36.589C115.5 36.4293 115.588 36.2785 115.728 36.1987L120.291 33.6889L122.801 29.0861C122.88 28.9442 123.029 28.8555 123.187 28.8555C123.345 28.8555 123.494 28.9442 123.573 29.0861L126.057 33.6978L130.611 36.2342C130.752 36.314 130.839 36.4648 130.839 36.6244C130.839 36.7841 130.752 36.9348 130.611 37.0146L126.048 39.5245L123.547 44.1273C123.459 44.2692 123.31 44.3579 123.152 44.3579Z" fill="#311847"/>
<path d="M299.982 80.4975C296.09 80.4975 292.92 77.2935 292.92 73.3601C292.92 69.4266 296.09 66.2227 299.982 66.2227C303.874 66.2227 307.045 69.4266 307.045 73.3601C307.045 77.2935 303.888 80.4975 299.982 80.4975ZM299.982 67.6387C296.869 67.6387 294.335 70.199 294.335 73.3458C294.335 76.4925 296.869 79.0528 299.982 79.0528C303.096 79.0528 305.629 76.4925 305.629 73.3458C305.643 70.2133 303.11 67.6387 299.982 67.6387Z" fill="#311847"/>
</svg>
