<!--
  - Copyright (c) 2023-2025. Cloud Software Group, Inc. All Rights Reserved. Confidential & Proprietary
  -->

<svg width="48" height="49" viewBox="0 0 48 49" fill="none" xmlns="http://www.w3.org/2000/svg">
<path d="M9.21739 11.0488H5.73913C5.27788 11.0488 4.83553 11.2321 4.50938 11.5582C4.18323 11.8844 4 12.3267 4 12.788V42.3532C4 42.8144 4.18323 43.2568 4.50938 43.5829C4.83553 43.9091 5.27788 44.0923 5.73913 44.0923H35.3043C35.7656 44.0923 36.208 43.9091 36.5341 43.5829C36.8603 43.2568 37.0435 42.8144 37.0435 42.3532V38.8749" fill="#810761"/>
<path d="M9.21739 11.0488H5.73913C5.27788 11.0488 4.83553 11.2321 4.50938 11.5582C4.18323 11.8844 4 12.3267 4 12.788V42.3532C4 42.8144 4.18323 43.2568 4.50938 43.5829C4.83553 43.9091 5.27788 44.0923 5.73913 44.0923H35.3043C35.7656 44.0923 36.208 43.9091 36.5341 43.5829C36.8603 43.2568 37.0435 42.8144 37.0435 42.3532V38.8749" stroke="#810761" stroke-width="2" stroke-linecap="round" stroke-linejoin="round"/>
<path d="M43.9994 5.83093C43.9994 5.36968 43.8162 4.92733 43.49 4.60118C43.1639 4.27503 42.7215 4.0918 42.2603 4.0918H10.9559C10.4947 4.0918 10.0523 4.27503 9.72618 4.60118C9.40003 4.92733 9.2168 5.36968 9.2168 5.83093V37.1353C9.2168 37.5965 9.40003 38.0389 9.72618 38.365C10.0523 38.6912 10.4947 38.8744 10.9559 38.8744H42.2603C42.7215 38.8744 43.1639 38.6912 43.49 38.365C43.8162 38.0389 43.9994 37.5965 43.9994 37.1353V5.83093Z" fill="white"/>
<path d="M43.9994 5.83093C43.9994 5.36968 43.8162 4.92733 43.49 4.60118C43.1639 4.27503 42.7215 4.0918 42.2603 4.0918H10.9559C10.4947 4.0918 10.0523 4.27503 9.72618 4.60118C9.40003 4.92733 9.2168 5.36968 9.2168 5.83093V37.1353C9.2168 37.5965 9.40003 38.0389 9.72618 38.365C10.0523 38.6912 10.4947 38.8744 10.9559 38.8744H42.2603C42.7215 38.8744 43.1639 38.6912 43.49 38.365C43.8162 38.0389 43.9994 37.5965 43.9994 37.1353V5.83093Z" stroke="#810761" stroke-width="2" stroke-linecap="round" stroke-linejoin="round"/>
<path d="M28.0156 31.4528C28.0323 30.7081 28.3749 30.2526 28.8092 30.2214C31.3185 30.0408 34.7874 30.0408 37.2967 30.2214C37.731 30.2526 38.0736 30.7081 38.0904 31.4528C38.0928 31.5627 38.0942 31.6821 38.0942 31.8117C38.0942 31.9412 38.0928 32.0606 38.0904 32.1704C38.0736 32.9152 37.731 33.3707 37.2967 33.4019C34.7874 33.5825 31.3185 33.5825 28.8092 33.4019C28.3749 33.3707 28.0323 32.9152 28.0156 32.1704C28.0131 32.0606 28.0117 31.9412 28.0117 31.8117C28.0117 31.6821 28.0131 31.5627 28.0156 31.4528Z" stroke="#810761" stroke-width="1.5" stroke-linejoin="round"/>
<path d="M28.0156 24.7751C28.0323 24.0304 28.3749 23.5749 28.8092 23.5437C31.3185 23.363 34.7874 23.3631 37.2967 23.5437C37.731 23.5749 38.0736 24.0304 38.0904 24.7751C38.0928 24.885 38.0942 25.0043 38.0942 25.1339C38.0942 25.2635 38.0928 25.3828 38.0904 25.4927C38.0736 26.2375 37.731 26.6929 37.2967 26.7241C34.7874 26.9048 31.3185 26.9048 28.8092 26.7241C28.3749 26.6929 28.0323 26.2375 28.0156 25.4927C28.0131 25.3828 28.0117 25.2635 28.0117 25.1339C28.0117 25.0043 28.0131 24.885 28.0156 24.7751Z" stroke="#810761" stroke-width="1.5" stroke-linejoin="round"/>
<path d="M37.9429 11.8061C37.7948 10.4959 36.6944 9.62458 35.3769 9.57353C33.5901 9.50431 30.6445 9.42773 26.3563 9.42773C22.0681 9.42773 19.1226 9.50431 17.3358 9.57353C16.0182 9.62458 14.9179 10.4959 14.7697 11.8061C14.6831 12.5717 14.6172 13.5573 14.6172 14.7835C14.6172 16.0098 14.6831 16.9953 14.7697 17.7609C14.9179 19.0711 16.0183 19.9424 17.3358 19.9935C19.1226 20.0627 22.0681 20.1393 26.3563 20.1393C30.6445 20.1393 33.5901 20.0627 35.3769 19.9935C36.6944 19.9424 37.7948 19.0712 37.9429 17.7609C38.0295 16.9953 38.0954 16.0098 38.0954 14.7835C38.0954 13.5573 38.0295 12.5717 37.9429 11.8061Z" stroke="#810761" stroke-width="1.5" stroke-linejoin="round"/>
<path d="M14.6926 31.2932C14.7577 32.4882 15.6663 33.3966 16.8612 33.4617C17.6378 33.5041 18.6556 33.5372 19.9385 33.5372C21.2214 33.5372 22.2392 33.5041 23.0158 33.4617C24.2108 33.3966 25.1193 32.4882 25.1844 31.2932C25.2267 30.5166 25.2599 29.4987 25.2599 28.2159C25.2599 26.933 25.2267 25.9152 25.1844 25.1385C25.1193 23.9436 24.2108 23.0351 23.0158 22.97C22.2392 22.9277 21.2214 22.8945 19.9385 22.8945C18.6556 22.8945 17.6378 22.9277 16.8612 22.97C15.6663 23.0351 14.7577 23.9436 14.6926 25.1385C14.6503 25.9152 14.6172 26.933 14.6172 28.2159C14.6172 29.4987 14.6503 30.5165 14.6926 31.2932Z" stroke="#810761" stroke-width="1.5" stroke-linejoin="round"/>
</svg>
